<?xml version="1.0" encoding="utf-8"?>
<!-- Generator: Adobe Illustrator 25.3.1, SVG Export Plug-In . SVG Version: 6.00 Build 0)  -->
<svg version="1.1" id="Layer_1" xmlns="http://www.w3.org/2000/svg" xmlns:xlink="http://www.w3.org/1999/xlink" x="0px" y="0px"
	 viewBox="0 0 612 792" style="enable-background:new 0 0 612 792;" xml:space="preserve">
<style type="text/css">
	.st0{fill:#FCFCFC;}
	.st1{fill:#006838;}
	.st2{fill:#444441;}
	.st3{fill:#161615;}
	.st4{fill:#807D7D;}
</style>
<g>
	<path class="st0" d="M569.6,706.4c-178.4,0-356.8,0-535.2,0c0-213.5,0-426.9,0-640.4c178.4,0,356.8,0,535.2,0
		C569.6,279.5,569.6,492.9,569.6,706.4z M184.1,679.2c0.7-0.5,1.4-1,2.2-1.5l0.6-0.4l0.7,0.1c3.2-1.2,6.4-2.3,9.6-3.5
		c4.3-1.1,7.9,7,12.4,1.1l0.7-0.4c3-3.9,6.3-6.9,11.8-4.5l0.2,0c1.5,2.2,3.7,2.3,6.1,2c3.5-2.8,3.8-8.4,8.5-10.2
		c4.1-1.5,6.4,3.1,10,3.4c1-3.1,1.9-5.9,2.7-8.7l-0.3-0.5l0.5,0.2c2.5-0.2,4.9-0.6,6.2-3.2l-0.2,0.2c1.3-0.1,2.3-0.5,2.8-1.8
		l0.3,0.2c2.6,0.3,5.2,0.3,6.6-2.5l0.3,0c6.4-0.4,5.5-7.8,10-10.5c4.5,4.1,10.2,7.3,15.2,2.5c4-3.9,8.5-3.9,12.4-4.5
		c1.2-2.6,0.5-3.9-0.4-5.1c4.2,1.4,6.1-2,8.4-4.3c6.8,0,6.1-4.7,5.6-9.7c11.1,1.2,17.7-6.8,25.5-12.2l0.4-0.4c2.5-2.8,5-5.5,7.1-7.9
		c-0.4-2.6-2.8-3.6-1.9-6c5.1-2.2,9.9-5.6,16-5.3c7.2,0.3,14.7-1.6,21.3-1.4c7.1,0.2,14.1-0.6,21.1-0.3c4.3,2,4.6-2.3,6.5-4.1
		l0.6-0.3c1-0.6,1.9-1.3,2.9-1.9c0.1-0.5,0.4-0.8,1-0.8c9.2-9.3,17.6-2.2,26.3,1.4c5.9-1.6,11.6-4.4,17.9-1.1c1.7,0.9,4.4-0.7,5-3.5
		c0.9-2.4,1.7-4.9,2.7-7.7c-4.5-3.7-8.7-7.6-5.8-14.1l-0.2-0.6l0.6,0c2.6-2.9,2.9-6.5,3.6-10.1c1.2-2,0.8-4.2,0.6-6.4l0.3,0
		c0.6-0.7,1.1-1.5,1.7-2.2l-0.6,0.1l0.6,0c6.2,0,4.9-5.8,7.1-9l0.3-0.4c7.6-5.4,0.5-12,1.9-19.7c5.8-7.1,8.6-17,8.5-27.8
		c9.4-6.2,13.2-20.7,8.7-33.8c3.6-6.9,1.9-13.6-2.1-20.2c-4.9-8.2-0.5-17.3-2.8-25c1.4-3.1,4.9-2.3,5.9-6.3
		c-0.4-3.7,1.4-8.2,4.4-12.4c-2.7-1.9-4.8-3.3-7-4.8c-0.1-2.3-0.2-4.6-0.2-6.9c1.4-1.3,1.1-3.1,1.3-4.7c1.6-2.5,5.3-0.7,7.1-3.6
		c0.8-3,1-6.3-0.6-10.5c-5.8,0-7.5-6.2-11.9-9c-1.1-3-2.1-6-4.8-8c0.3-1.7,0.3-3.3-1.7-4c-3-9.4,1.5-20.5-7.9-28.8
		c8.2-2.3,15.6-3.6,16.8-11.8c2.7-1.4,5.3,0.2,7-2c0.3-0.4,0.7-0.5,1.2-0.4c1.5-0.7,2.4-1.8,2.9-3.4c3.5-2.5,6.6-5.4,8.7-9.2
		c3.9-5.2,2-11.8,3.5-17.5c5.7-3.2,11.5-1.8,17.1-2.2l0.3,0c1.2,1.8,2.4,2,3.7,0.1l1-0.3c11.5-9.5,18.9-21.3,20.5-36.3
		c0.8-2.8,1.7-5.5,2.5-8.3c0.7-0.9,1-1.9,0-2.6c-0.3-0.2-1.1,0.2-1.7,0.3c-4.9-0.7-2.8-6.5-6.1-8.3l-0.4,0.6l0.4-0.5
		c-0.2-1.5-1.1-2.2-2.5-2.4l0.2,0.1c-5.1-6.4,3.1-11.8,2.1-19.5c-7.5,4.9-14.6,7.7-23.4,6.9c-0.4-3.8-7.7,0.4-7.2-5.9
		c2.4-0.5,5.3,1.1,7.3-1.5c6.4-9.8,6.3-11.7-0.9-21.2c-2.4-0.3-5-0.7-7.7-1.1c-0.2,0.2-0.5,0.3-0.7,0.5c0.2-0.2,0.4-0.4,0.7-0.6
		c-0.5-1.8-1.5-3.2-3.3-3.9c-0.2-1.2-0.8-2-2-2.1c-2.2-3.8-2.7-8.9-7.9-10.4l-0.7-0.1c0,0,0-0.7,0-0.7c-1.2-1.5-2.4-2.9-3.3-4
		c-0.9-3.1,4.1-4.4,1.7-7.4c-1.8-1.3-3.8-1.1-5.7-1.1c-6.3-4.7-0.4-10.6-1.3-15.6c-2.7-3.6-3.7-7.9-7.1-10.6
		c-3.8-0.9-7.5-1.6-10.8,1.3c-1.5,0-3-0.1-4.5-0.1c-6.2-5.1-14.5-3.4-21.4-6.8c-2.9-1.5-5.8,0.6-7,4l0.1-0.1
		c-7.8,3.1-16.2,3.8-23.8,8.1c-4.2,2.4-10.5,1.7-15.4-0.7c-1.7-2.7,0.9-5.7-3-9.7c-2.7-2.2-8.2-4-13.4-6.2c-1-0.5-2-1-3-1.5
		l-0.6,0.1c0,0-0.4-0.5-0.4-0.5c-0.6-0.5-1.2-1.1-1.8-1.6l-0.2-0.6c-2.3-2.9-5-5.5-8.9-7.6c-3.2,1.6-7.3-2.4-11,1l-0.7,0.4
		c-1.7,1.1-1.9,2.9-2.1,4.6l0.7,0.4c0,0-0.6-0.6-0.6-0.6c-1.5,1.5-3.1,3-4.6,4.5l0.2,0.8l-0.1-0.8c-3.7,1.6-8.4-1.2-12.3,3.1
		c1.4,4.4-4.6,9-0.5,14.2c0.1,1.6,1.3,3.3-0.2,4.8c-1.5-1-3-2-4.5-3l0.1,0.1c-1-3.7-2.1-7.5-3.1-11.2c0.2-3.5-1.5-4.9-4.8-4.7
		c-6.2,0.3-11.7,2.8-17.2,4.3c-3.7,2-4.1,6.9-8.3,7.9c-2.6-0.8-2.6-5-8.5-4.1c-0.1,0-2,1.1-2.8,3.5c-8.4,3.4-16.8,7-25.5,7.3
		c-4.9,2.8-4.7,9.5-10.7,10c1.4,2.2,1.9,4.1,1.7,6.1c-1.5,2-5.1,0.6-5.8,3.7l-0.8,0.2c-0.6,0.4-1,0.9-1.4,1.5
		c-0.3,0.5-0.6,0.6-1.1,0.3c-3.8,1.6-10.5-1.4-10.8,6c1.6,2.2,3.6,1.9,5.5,1.8c1.5,0.2,3,0.4,4.5,0.6c0,5.2,2.5,9.9,4,14.8
		c-3.3,2.9-7.7-0.1-10.3,3.5c-3.5,2.6,1.5,7.6-3.1,10.8c-5.1,0.9-11.8-0.4-16.1,5.4c-5,1.9-8.1,5.4-9.8,10.5c4,6,9.9,8.3,16.6,9.7
		c11.7,2.5,23.4,3.2,35.2,0.7c3,1.9,7.9-2,9.7,3.4c-1,2-2,4-3,6l0.1-0.1c-3,1-2.8,3.9-3.4,6.2l0.1,0.2c-0.7,0.6-1.3,1.2-2,1.8
		c0,0-1,0.2-1,0.2c-2.8,1.8-5.6,3.5-8.7,5.5c-2.7,0.7-6.7-4.6-9.1,1.1l-0.3,0.8c-2,3.4-6.7,3.9-8.2,7.7l0-0.1
		c-2.7,3.6-8.2,1.7-11,5.8c-2.4,7.1,3.3,8.5,8,10.7c-0.5,0.7-1,1.4-1.5,2.1c-9.6,2-19.2,1.9-28.9,1.2l-0.6,0.2l0-0.6
		c-5.8-3-11.7-1.2-18.2-1.2c-1.2,3.6-1.4,8.1-6.9,8c-2.7-1.7-2-6.4-5.8-7.5c-2.2-3.2-5-5.8-7.8-6.6c-19.9,0-38.8,1.4-55.9-2.3
		c-6.3,4.4,0.4,10.2-4.6,13.3c-1.3-0.4-2.6-0.8-3.8-1.2l-0.3-0.7c-1.2-2.4-2.5-4.7-5.8-6.3c-2.1,3.5-6.9,1.6-9.5,4.5
		c-4.8,8.2-2.8,17.5-5.6,25.8c-1.1,3.1,1.5,5.8,5.6,5c4.3-2.7,2.1-8,4.6-11.4l0.5-0.9c2.4-0.7,0.4-5,4.3-4.7
		c3.7,5.3,0.1,10.7-0.3,14.8c1.3,5.2,3.9,8,7.1,10.4c-8.1,1.4-16.2,2.8-24.4,4c-3.7,0.5-7.3,0.7-9.4,4.3c2.4,3.6,5.7,4.3,8.5,4.6
		c2.8,0.3,5.8-2.1,9.9,0.4c1.2,2.1,0.2,7.2,5.4,7.8c0.9,1.4,2.1,2.5,3.8,2.9l0.7-0.5l-0.7,0.6c2.7,4.8,6.9,6.5,11.4,3.7
		c8.9-5.6,18.1-2.3,27.3-2.4c-0.2,0.8-0.5,1.6-0.7,2.5c-3,0.1-6.1,0.2-4.3,4.7c-0.1,1.6-0.1,3.1-0.2,4.7c-8,2.2-16.6,2.2-24.3,5.8
		l-0.3,0.2c-8.2,6.1-3.1,14.5-3.5,23.1c-10,2.3-19,6.8-29.2,11.2c4.8,4.9,10.3,6.3,12.8,10.6c-1.9,3.1-5.6,2.4-6.8,5.2
		c-2.8,1.6-4.2,3.3-0.3,5.3c0.6,0.5,1.2,0.8,2,1c7.5,2.7,15,5.3,23.3,8.3c0.3,2.4-0.5,6.3,3.9,9c3.2-0.7,7.7,4.3,11.5-1.4l0.2-0.3
		c1.4,0,3-0.8,4.1,1.4c-3.2,4.1-3,7.8,2.5,10l0.6,0l0.2,0.6c2,2.4,4.2,3.1,6.5,0.4c0.1-0.6,0.5-1,1.1-1.2l0.1,0
		c1.6-0.2,3.2-0.4,4.8-0.6c1.8,3.8,5.3,3.4,8.7,3.7c7.7,0.7,14.6-2.3,21.7-4.3c4.7-0.4,9.6,1.4,14-1.3c3.6,0.3,7.4-1,11.6,1.1
		c-5.5,3.4,2.2,7.5-1.7,11.5c-4.7,0.6-10.4,0.7-13.2,5.9c-5-0.7-9.1-3.6-13.5-2.5c-7.9,10.8-13.7,22.3-19.8,34
		c3.2,1.5,6.9,0.1,8.8,3.3c0.2,2.3-2.4,2.7-3,4.4l-0.2,0.5c0,0.6-0.3,0.9-0.9,0.9c-3,5.5-6.9,10.5-7.3,17.3c-3.4,0.6-6.4,1-9.9,1.6
		c-0.9,2.7-4.2,4.1-4.1,7.7c-1,1.5-1.9,3-2.9,4.5l0.2-0.2c-1.4,0.2-2.4,0.9-2.7,2.5l0.2-0.3c-2.5,0.7-4.2,2.2-5,4.8l0.3-0.2
		c-2.7,1.1-6.3,0.8-7.6,4.4c-0.2-0.1,0.9,0.8,0,0c-2.8,2.7-7.9,2.7-9.5,9.4c5.7-2.1,10.4,4.6,15.2-1.5c0.8-0.5,1.5-0.9,2.3-1.4
		c7.2,3.3,2.9,8.4,2.1,12.9l0-0.1c-7.2,4.9-14.7,9.2-23.3,11.6c2.6,4.9,7.8,3,10.3,6.4c0,1.8,0,3.7,0,5.6c0.3,0.7,0,1.1-0.6,1.3
		l-0.7,0.3c-2.7,1.9-7-1.2-9,2.2c0.4,6,7,5.6,9.2,9.8c-5.5,4-8.9,0-11.9-1.1c-2.8-3-0.2-7.5-5.1-8.5c-0.6,0.2-1.9,0.4-2.6,1.1
		c-1.5,1.4-1.4,3.4-1.3,5.4c-2.8,1.7-5.4,2-8.5,0.3c-6.3-3.3-11.3-0.9-15.6,4l-0.2,0.2c-6.6-0.1-6.8,10.7-14.1,7.8
		c-3.2,5.6-4.3,10.6-1.6,15.6c3.8,0.9,6.7,0.9,8.3-2.7l-0.8-0.8l0.9,0.7c11.5-2,23.3,2.6,34.6-1.9c0.6-0.2,1.9,1.2,2.8,1.9l0.5,0.4
		c4.2,3.9-2.3,7.3-0.6,11.1l0.2,0.6l-0.6,0.4c0,0-0.6,0.7-0.6,0.7c-3.7,0.1-7.3,0.2-11,0.3c-2.6,0.1-5.2,0.1-6.2,3.3l0.2,0.9
		l-0.3-0.8c-0.6,0.1-1,0.4-1.3,0.9c-4,1.3-8.1,2.5-10.7,6.1c0.1,1.6,0.2,3.2,0.4,4.8c-4.5,1.4-10.5-0.4-12.7,6.6
		c3,6.3,7.3,12.1,12.4,17.2c4.7-1.5,2.5-8.4,7.7-8c6.2,1.9,3,8.2,5.6,11.7c4.3,1.6,8.3,2.1,11.7-1.5l0.5-0.6l0.8,0
		c2.4-0.1,4.5-0.8,5.9-2.9l0.1,0.2c3.5,0.5,6-0.8,7.2-4.2l-0.3-0.5l0.5,0.2c3.5-1.6,8.1,0.4,10.9-4.5c1.3-2.2,6-3,8.5,0.8
		c-1.1,0.2-2,0.8-2.2,2.1c-1.8,0.6-2.7,2-3.3,3.6l0,0.6l-0.6-0.1c-2.9,2.8-5.3,6.4-10.2,6.4c-1,0-2,1.9-3,2.9l0.3,0.9l-0.3-0.9
		c-2.6,0.4-5.1,1-7.5,3.1c-0.3,2.1-0.7,4.6-1.1,7.1l0.1-0.1c-5.9,2.1-12.6,3.3-14.1,11.2c3.5,2.9,7.1,3.2,11,3c3.3-2.7,8-3,10.4-6.9
		l-0.1,0.1c12.2,0.1,22.7-5.9,33.3-10.5c3.7-1.6,7.2-3.2,11.2-3.8c-0.1,2.4-0.2,4.8-0.3,7.1l-0.1-0.2c-1.5,0.4-2.5,1.4-3.2,2.7
		c-0.6,0.4-1.3,0.9-1.9,1.3l-0.5,0.1c-0.5-0.7-1.2-0.9-2-0.6c-4.5,3.7-10.3,4.2-15.4,6.5c-4.4,1.9-8.7,3.9-9.7,10.1
		c6.5,0.3,10.8-5.4,16.6-3.8c-0.7,5.2-4.8,5.8-8.8,7.6c-4.6,2-11.3,3.9-9.1,11.8c9,2.2,11.3-5.9,16.5-9.2c2.2,1.1,3.4,4.2,7.5,3.3
		c3.8-1.4,7.5-5.5,13.3-5.1c2.3,1.3,2.1,5.9,6.1,5.6c7,1.2,13.8,1.9,19.4-3.9l-0.2,0.1c1.8-0.4,3.6-0.7,4.7-2.4
		C183.9,679.2,184.1,679.2,184.1,679.2z M91.1,320.8c6,3.3,9,1.6,12.7-1.8C99.2,316.6,96.1,317.4,91.1,320.8z M81.3,349.1
		c-1.9-4.5-4.3-4.2-6.9-1.4c-0.4,0.4-0.1,1.4-0.2,2.2C76.4,352.3,78.5,352.4,81.3,349.1z M84.5,335.3c2.5,2.8,2.5,2.8,4.8-0.3
		C87.6,333.1,86.1,333.7,84.5,335.3z M497.8,368.8c0.6,1.8,1.6,2.2,2.7,1.9c1.2-0.4,1.4-1.6,0.8-2.6c-0.3-0.5-1.2-0.9-1.8-0.8
		C498.4,367.3,497.7,368,497.8,368.8z"/>
	<path class="st1" d="M342.9,100.8c1.6-1.5,0.4-3.2,0.2-4.8c3.9-3.4,3.9-8.5,4.8-12c2.4-3.5,8,0.4,8-5.3l0.1,0.8l-0.2-0.8
		c4.4,1.4,6,0,4.6-4.5l0.6,0.6l-0.7-0.4c4.3,0.1,3.2-2.3,2.1-4.6l0.7-0.4c6.8,1.9,12.2,7.8,20,6.7l0.2,0.6c-0.6,1.9-0.3,2.8,1.8,1.6
		l0.4,0.5l0.6-0.1c-2.1,3.8,1.1,3.1,3,3.5c1.8,5,7.7,4.8,10.6,8c-2.3,6.2,2.4,8.1,6,10c12.4,4.4,22.5-4.3,33.9-5.2
		c2.7-0.2,6.1-2,5.1-6.3l-0.1,0.1c3.4,0.6,6.9,0.9,10.2,1.3c6,0.7,11.8,5.8,18.2,1.5c1.5,0,3,0.1,4.5,0.1c2.1,3.8,6.8,0.6,8.3,2.2
		c4.8,5,5.9,9.1,3.8,14.6c-1.1,2.9-2.3,8.2,4.1,8.5c0.8,2.4,4.6,2.7,2.9,7.3c-1.5,4.1,1.7,8.1,7.4,4.9l0,0.7l0.7,0.1
		c0.2,5.3,2,9.4,7.9,10.4c1.3,0.1,1.8,0.9,2,2.1c0.2,2.1-0.4,4.7,3.3,3.9c-0.2,0.2-0.4,0.4-0.7,0.6c0.2-0.2,0.5-0.3,0.7-0.5
		c-1.1,6.4,5.7,4.4,8.4,7.9c0,3.5,0,7.5,0,11.6c-2.4,0.5-5.5-1-7,2.4c-5.1,0.5-7.6,2.8-6.2,8.6c9.3,1.5,18.5,4,27.9,3.3
		c2.8,2.8-0.4,10.2,6.8,8.6l-0.2-0.1c-0.1,1.8,0.7,2.6,2.5,2.4l-0.4,0.5l0.4-0.6c-0.9,2.8-1.7,5.7-2.3,7.4c1,4.9,4.2,7.6,4.1,11.7
		c-3,3.9-2,8.8-3,13.6c-8.5,5-10.4,14.3-14,22.5l-1,0.3c-1.2-0.9-2.4-0.9-3.7-0.1c0,0-0.3,0-0.3,0c0-0.7,0.3-2,0.1-2.1
		c-8.2-3.8-15.7-2-22.3,5.4c0.9,5.2-2,11.1,1.6,16.4c-2.1,3.8-5.2,6.7-8.7,9.2c-1.8,0.4-4.9-0.3-2.9,3.4c-0.5-0.1-0.9,0.1-1.2,0.4
		c-3.6-1.1-7.1-2.2-10.5-3.3c-2.7,3.5-0.2,8.6-6.4,11c-3.8-2.9-8.7-3.2-12.6,1.8c2.1,5.8,4,11.5,8.6,15.8c0,5.8,0,11.1,0,15.8
		c1.9,1.7,3.4,1.6,4.9,1.6c2,0.7,2,2.3,1.7,4c-0.3,3.8-1.1,7.9,4.8,8c4.4,2.8,6.1,9,11.9,9c1.5,4.2,1.4,7.4,0.6,10.5
		c-1.8,2.8-5.4,1.1-7.1,3.6c-3.1,0.1-3.4,2.3-3.5,4.6c-3.3,2.4-3.2,4.9,0.1,7.2c-0.9,3.1,3.1,3.9,3.4,6.4c-2.4,3.5-4.6,7.1-7.9,9.7
		c0.3,14.5-3,29.5,6.8,41.3c0.1,5-3.7,8.3-1.9,12.2c5.2,11.3-0.3,20.7-5,30.3c-7.8,3.6-3.1,11-5.1,16.5c-5.2,4.2-5.4,11.2-9.7,17.5
		c5.2,4.1,1.9,10.6,4.5,15.8l-0.3,0.4c-1.3-0.7-2.7-1.4-4.5-0.2c-1,2.8-2.6,5.7-2.6,9.1l-0.6,0l0.6-0.1c-1.9-0.3-2.8,0.2-1.7,2.2
		l-0.3,0c-5.2-0.1-2.9,3.9-3.5,6.4c-1.7,3.3-3.7,6.5-0.8,10.1l-0.6,0l0.2,0.6c-7.9-0.3-5.9,4.1-4.2,8.7c1.7,4.4,7,7.4,5.3,13.1
		c-6.9-2-13.8-4-20.6,0.5c-8.7-6.6-17.9-5.8-26.9-4.4c-1.6,3-1,5.1,0.4,7c-0.5,0-0.9,0.3-1,0.8c-2.3-1.4-2.7,0.1-2.9,1.9l-0.6,0.3
		c-2.5-2-4.3,0.5-6.4,1c-12.8-0.5-25.6-0.9-38.4-0.2c-10.3,0.6-18.9,4.4-28,11.4c4.4,3.9,0,8.6,2.4,12.8l-0.4,0.4
		c-2.7-2.1-5.4-0.7-7.4,0.9c-6.7,5.6-14.5,7.7-22.7,7.8c-1.7,4.1-0.8,7.6-1.1,11c-4.2,1.7-10.6-0.1-11.6,7
		c-4.9,3.2-10.9,3.7-15.9,7.7c-3.4-5.2-7.7-6.7-13.8-4.2c1.4,5.2-4.2,8.5-4.2,13.9l-0.3,0c-2.6-0.2-6.5-3.8-6.6,2.5l-0.3-0.2
		c-1.8-0.8-2.7-0.1-2.8,1.8l0.2-0.2c-2.3,0.7-6.8-3-6.2,3.2l-0.5-0.2l0.3,0.5c-4.4,0.2-9-0.4-12.6,3.1c-2.6,0.1-5.1,0.3-8.6,0.5
		c-0.4,4.1-0.5,9-6,9.9l-0.2,0c0.6-4.2-2.1-5.2-6.3-5.7c-2.8,2.5-8.4,3.7-5.5,10.1l-0.7,0.4c-7-3.7-14.1-5.7-21.5-1.1
		c-1.6,1-1.7,2.2-0.4,3.6l-0.7-0.1l-0.6,0.4c-2-1.4-2.4-0.4-2.2,1.5l-0.1,0c-2.3-0.6-4.7-1.4-4.7,2.4l0.2-0.1
		c-6.7-2.7-12.8,2-19.3,1.6c0-3.5,0.1-6.9-3.8-8.7c-6.5,0.5-12,4.9-18.2,5.9c-2-3.2-1-5.9-1.1-8.4c0.2-0.6,0.7-0.8,1.3-0.7
		c1.9,0.2,3.7,0.3,5.5-2.4c-0.2-2.8-0.4-6.5-0.6-10.2c0.8-0.3,1.5-0.1,2,0.6c0.7,0.6,1.5,1.2,2.2,1.8c0.1-1.3-0.8-1.6-1.7-1.9
		c0.6-0.4,1.3-0.9,1.9-1.3c3.9,2.4,2.8-1,3.2-2.7l0.1,0.2c5.7-2.3,6-3.6,2.3-9.4c-5-4.6-10.3-2.5-14.4,0.6
		c-6.7,5.1-14.3,6.7-22.2,8.4c-3.5,0.8-9.8,1-9.8,7.6l0.1-0.1c-2.7-0.1-5.3-0.3-8.1-0.4c0.3-2.5,0.6-4.7,0.9-6.9l-0.1,0.1
		c6.8-0.1,7.7-5.1,8.6-10.2l0.3,0.9l-0.3-0.9c5.5,0.6,11.1,2.8,16.4-2.1c-1.2-2.6-2.2-4.9-3.3-7.3l0.6,0.1l0-0.6
		c4,1.5,3.1-1.6,3.3-3.6c0.2-1.2,1-1.8,2.2-2.1c1.3,2.6,3.2,3,6,1.6c-0.8-5.9-4.9-8.5-10.2-8.2c-6.8,0.4-11.8,4.4-15.2,10.3
		l-0.5-0.2l0.3,0.5c-4.6-2.4-7.1-1.1-7.2,4.2l-0.1-0.2c-5.8-1.3-6.3-1-5.9,2.9l-0.8,0l-0.5,0.6c-8.1-0.5-8.5-9-12.7-12.7
		c-5.3-1.8-9.4-1-12.6,2.7c-2.4-1.4-4.1-2.8-4.5-4.9c0.8-2.5,1.5-4.7,2.4-7.4c4.1-0.5,7.8-1.8,8.6-7.2c0.2-1.8,2.9-3.3,4.4-4.9
		c1.6-0.6,2.1-1.7,1.3-3.3l0.3,0.8l-0.2-0.9c5.8,0.8,11.7,2.9,17.2-1.3c1.5-0.8,2.2-1.7,0.6-3.1l0.6-0.4l-0.2-0.6
		c6.1-1.3,4.9-6.4,5.9-10.1c-1.9-2.4-3.6-2-5.4-1l-0.5-0.4c2.2-3.6,0.4-5.7-2.9-7.5c-4.2,1.4-8.5,2.8-13.5,4.4
		c-5-4.9-11.7,1-17.8-1.8c-1.5-0.7-3.9,2-3.2,4.9l-0.9-0.7l0.8,0.8c-5.1-1.2-6.7-4.2-4.6-8.9c2.5-2.3,6.2-0.4,9.7-4.3
		c0.9-1.1,3-3.7,2.3-7.4l0.2-0.2c6.1,0.2,12.3-0.9,18.4,1.1c2.5,0.8,5.3-0.1,6.5-3.1c6.6,1.5,12,6.6,19,6.4c2.9-2.3,5.6-4.5,5-8.8
		c0.4-3-4.4-2.7-4.2-5.9c1.7-0.7,2.5-1.6,0.7-3.1c0.7-0.2,0.9-0.7,0.6-1.3c1.3,1.2,2.8,1.4,3.3-0.5c1.1-3.7-0.1-7.3-0.8-10.2
		c1.9-6.2,11.3-5.2,10.4-12.9l0,0.1c1.9,0,4.6-0.3,4.4-2.4c-0.5-5.3,5.7-10.3,1.3-15.6c-5.4-2-5.5,3-7.8,5c-0.8,0.5-1.5,0.9-2.3,1.4
		c-1.7-2.8-5.9-3.8-5.8-7.9c0.9,0.8-0.2-0.2,0,0c4.3,1.6,6.7,0,7.6-4.4l-0.3,0.2c3.9,0.7,5.5-0.9,5-4.8l-0.2,0.3
		c1.5-0.1,2.5-0.9,2.7-2.5l-0.2,0.2c3.4,0.5,5.1-1,5.1-4.5c3.9-3,7.9-5.5,11.8-5.2c4.7-3.6,3.6-9,7.7-12.2c2.8-2.2,1.7-6.2-0.3-9.3
		c0.6,0,0.9-0.3,0.9-0.9c1.3,1.7,2.3,1.2,3.2-0.5c3.5-0.1,6-1.3,6.4-4.5c-0.5-4.6-6.2-4.1-6.4-7.6c0.8-11.2,8.4-17.7,13.7-24.6
		c5.1-1.8,8.2,2.5,13,1.3c3.6-5.7,12.7-3.6,17.1-10.5c0.5-4.1,0.6-8.7-0.2-13.4c-5.2-2.9-10-6.3-15.7-1.3c-4.6,1-9.9-2.2-13.9,2.3
		c-9.5-1-18.5,3.8-28,2.3c-0.8-5.5-3.1-6.1-6.9-2.2c-1.6,0.9-2.1,1.8-0.3,3c-0.6,0.2-1,0.6-1.1,1.2c-2.1-1.9-4.3-1.9-6.5-0.4
		l-0.2-0.6l-0.6,0c1.2-1.5,2.5-2.9,3.8-4.5c-1-4.1-2.1-8.1-3.2-12.4c-3.1,1.2-7.5,0.1-7.1,5.4l-0.2,0.3c-3.2-1.9-7.3-2.4-9.6-5.4
		c-0.7-2.5,2.6-4.3,0.1-7.3c-9,0.2-18-2.4-26.3-7.1c5.9-0.2,7.3-4.5,8.3-8.2c-0.6-5.1-4.1-5.8-7-6.9c3.7-10.5,15.4-7.1,22.1-12.6
		c-0.4-8.3-0.8-16.5-1.1-24.6l0.3-0.2c9.3,2.5,18.2,1.7,26.4-3.5c3.4-2.3,3.3-4.6,0.1-7c0.2-1.3,1-2,2.2-2.3c5.5-0.8,6.3-3.1,2.4-7
		c-10.8-4.2-21.3-3.4-32.4,2.1c-2.2,0.4-4.8-3.2-7.9-1.2l0.7-0.6l-0.7,0.5c0.8-3.6,2.4-7.5-3.8-7.6c0.8-4.5-1.1-7.4-6.3-8.1
		c4.2-3,7.8-4.8,11.6-3.1c3.8,1.7,7.1,3,10-1.3c-0.4-2-1.7-3.2-3.7-3.9c0.5-4.4-4.5-6.2-4.8-10.2c2.9-7.8,2.3-14.6-4.5-19.9
		c-5.2,2.5-5.8,5.7-3.6,9.8l-0.5,0.9c-5.2-5.4-4-11-0.9-16.8c4-1.6,7.8-1,11.6-0.9l0.3,0.7c1.1,5.8,3.7,5.1,6.8,1.5
		c7.4-0.1,3-6,3.6-9.9c15.5,6.2,31.3,0,46.1,4.6c1.6-1.1,3.2-2.2,4.8-3.3c2.8,1.2,4.6,4.4,8.2,3.9c-0.4,5.8,2,10,7.6,11.4
		c7.4,1.8,9.4-5.3,13-8.7c4.6-1,9.1,0.8,12.9-2l0,0.6l0.6-0.2c-0.2,1-1.1,2.5,0.4,2.8c8.6,1.6,17.3,0.8,26,0.5
		c2.1-0.1,2.4-2.6,2.5-4.5c0.5-0.7,1-1.4,1.5-2.1l0.7,0.2c0.7,1,1.7,1.4,2.1,0.1c0.6-2.1,0.4-4.2-2.2-5.1c-1.9-1-3.8-2-6.5-3.5
		c4.6-1.8,9.6-2.4,8.8-8.3l0,0.1c8.4-0.4,8.9-0.9,8.2-7.7l0.3-0.8c2,1.7,3.8,3.9,8,3.7c2.9-2.3,8.2-2.6,11.4-6.9
		c-0.6-1.3-1.1-2.4-1.6-3.4l1-0.2c2.1,1,2.6,0.3,2-1.8l-0.1-0.2c5.4,0.2,2.8-3.8,3.4-6.2l-0.1,0.1c9.1-3.5,9.6-5.9,2.9-13.6
		c-3.6-1.2-6.1,2.7-9.6,1.9c-2.9-4.1-7.4-2.7-10.6-1.9c-10.4,2.5-20.1-0.6-30.1-2.6c-2.9-0.6-5-1.8-5.6-5.2c1.4-2.1,2.9-4.3,4.4-6.5
		c2.5-0.8,5.1-2.3,7.6-2.2c9.7,0.5,15-4.2,16.5-12.9c2.6-2,6-0.3,7.4-2.3c3.9-8.4-4.1-15.9,0.5-23c-2.4-2.1-4.1-3.6-5.9-5.1
		c0.5,0.2,0.8,0.1,1.1-0.3c0.6,0.1,1.2,0.2,1.8,0.3c-0.1-0.6-0.2-1.2-0.3-1.8l0.8-0.2c3.6,0.9,7.5,2.5,7.6-3.7
		c5.8-1.3,3.5-8.3,8.4-11.3c4.3-0.7,9.4-1,14.2-4.2c3.1-2.1,7.9-5.1,13-2.1c1.2,0.7,1.6-2,1.6-3.5c4.1,2.3,8.3,3.4,12.9,1.5
		c1.7-2.5,1-6.3,5.1-7.8c5.3-0.2,10.7-4,16.9-2.9c0,2.5,0,5.1,0.1,7.6c0.1,3.5,2.2,4.1,5.1,3.7l-0.1-0.1c1.5,5.6,0,13.1,8.5,14.5
		c3.2-1.8,4-4.7,4.7-7.4c-1-2.3-2.4-4-5-4.1c-1.4-0.4-2.7-1.7-4.2-0.2L342.9,100.8z"/>
	<path d="M484.6,468.5c4.7-9.6,10.2-19,5-30.3c-1.8-3.9,2-7.2,1.9-12.2c-9.8-11.8-6.5-26.7-6.8-41.3c3.4-2.6,5.5-6.2,7.9-9.7
		c-0.2-2.5-4.2-3.2-3.4-6.4c0.8-0.1,1.6-0.1,2.5-0.2c2.1,1.5,4.3,3,7,4.8c-3,4.2-4.8,8.7-4.4,12.4c-1,4-4.5,3.2-5.9,6.3
		c2.3,7.7-2,16.8,2.8,25c4,6.6,5.6,13.3,2.1,20.2c4.5,13.1,0.6,27.6-8.7,33.8C484.6,470.1,484.6,469.3,484.6,468.5z"/>
	<path d="M184.5,398.7c5.7-5,10.5-1.6,15.7,1.3c0.9,4.8,0.7,9.3,0.2,13.4c-4.4,7-13.5,4.8-17.1,10.5c-4.8,1.2-8-3.1-13-1.3
		c-5.3,6.9-12.8,13.4-13.7,24.6c0.2,3.5,5.9,3,6.4,7.6c-0.4,3.2-3,4.4-6.4,4.5c-1,0-1.9-0.1-2.9-0.1c0.6-1.8,3.2-2.1,3-4.4
		c-1.8-3.3-5.6-1.8-8.8-3.3c6.1-11.7,11.9-23.2,19.8-34c4.4-1.1,8.5,1.8,13.5,2.5c2.8-5.2,8.5-5.2,13.2-5.9
		c3.9-4.1-3.7-8.2,1.7-11.5c-4.2-2.2-7.9-0.9-11.6-1.1C184.6,400.5,184.6,399.6,184.5,398.7z"/>
	<path d="M75.1,601.4c-1.5,1.6-4.1,3.1-4.4,4.9c-0.7,5.4-4.5,6.7-8.6,7.2c-0.9,2.7-1.6,4.9-2.4,7.4c0.4,2.2,2.1,3.5,4.5,4.9
		c3.2-3.7,7.3-4.5,12.6-2.7c4.2,3.7,4.6,12.1,12.7,12.7c-3.5,3.6-7.5,3.2-11.7,1.5c-2.7-3.5,0.6-9.8-5.6-11.7c-5.2-0.4-3,6.5-7.7,8
		c-5.1-5.1-9.4-10.8-12.4-17.2c2.2-7,8.2-5.2,12.7-6.6c-0.1-1.6-0.2-3.1-0.4-4.8c2.6-3.6,6.7-4.8,10.7-6.1
		C75.1,599.8,75.1,600.6,75.1,601.4z"/>
	<path d="M106.6,320.9c0.4,8.1,0.7,16.3,1.1,24.6c-6.7,5.5-18.4,2.1-22.1,12.6c2.9,1.2,6.5,1.9,7,6.9c-1,3.7-2.3,8.1-8.3,8.2
		c-1.8,0.7-2.5,2.2-2.8,3.9c-0.8-0.1-1.4-0.5-2-1c0.1-1.8,0.2-3.6,0.3-5.3c1.3-2.7,4.9-2.1,6.8-5.2c-2.4-4.3-7.9-5.6-12.8-10.6
		c10.2-4.4,19.2-9,29.2-11.2C103.5,335.4,98.3,327,106.6,320.9z"/>
	<path d="M172.8,238.1c-3.6,0.5-5.4-2.7-8.2-3.9c-1.6,1.1-3.2,2.2-4.8,3.3c-14.9-4.7-30.6,1.5-46.1-4.6c-0.7,3.9,3.8,9.8-3.6,9.9
		c-1-0.1-2-0.2-3-0.3c4.9-3.1-1.7-9,4.6-13.3c17.1,3.8,35.9,2.3,55.9,2.3c2.8,0.9,5.6,3.4,7.8,6.6
		C174.5,238,173.6,238.1,172.8,238.1z"/>
	<path d="M339.4,599.8c-2.5-4.2,2-8.9-2.4-12.8c9-6.9,17.7-10.7,28-11.4c12.8-0.8,25.6-0.3,38.4,0.2c0,1-0.1,2-0.1,3.1
		c-7-0.3-14.1,0.5-21.1,0.3c-6.6-0.2-14.1,1.7-21.3,1.4c-6.2-0.2-10.9,3.2-16,5.3c-0.9,2.4,1.5,3.4,1.9,6
		C344.4,594.3,341.9,597.1,339.4,599.8z"/>
	<path d="M250.2,122.8c1.7,1.5,3.4,3,5.9,5.1c-4.6,7.1,3.4,14.6-0.5,23c-1.4,2-4.7,0.2-7.4,2.3c-1.5,8.7-6.8,13.5-16.5,12.9
		c-2.5-0.1-5.1,1.4-7.6,2.2c0-0.8,0-1.7,0-2.5c4.2-5.8,10.9-4.6,16.1-5.4c4.6-3.2-0.4-8.2,3.1-10.8c2.5-3.5,6.9-0.6,10.3-3.5
		c-1.5-4.9-4-9.6-4-14.8c-1.2-2.7-2.7-2.6-4.5-0.6c-1.9,0-3.8,0.4-5.5-1.8C239.7,121.4,246.4,124.4,250.2,122.8z"/>
	<path d="M133.5,666.9c0.1,2.6-0.9,5.2,1.1,8.4c6.2-1,11.7-5.4,18.2-5.9c3.9,1.7,3.9,5.2,3.8,8.7c0,0.8,0,1.6,0,2.4
		c-4.1,0.3-3.9-4.3-6.1-5.6c-5.8-0.5-9.4,3.7-13.3,5.1c-4,0.9-5.3-2.2-7.5-3.3c-5.2,3.3-7.4,11.5-16.5,9.2
		c-2.1-7.9,4.6-9.8,9.1-11.8c4-1.8,8.1-2.4,8.8-7.6l-0.3,0.2C131.7,666.7,132.6,666.8,133.5,666.9z"/>
	<path d="M480.4,321.7c-1.5,0-3.1,0.1-4.9-1.6c0.1-4.7,0.2-10,0.3-15.8c-4.5-4.4-6.3-10.1-8.3-16c4-4.9,8.9-4.6,12.6-1.6
		c6.2-2.3,3.8-7.5,6.6-10.9c3.4,1.1,6.9,2.3,10.5,3.5c-1.7,2.1-4.3,0.6-7.1,1.9c-1.3,8.2-8.8,9.4-17,11.5
		C482.3,301.2,477.5,312.2,480.4,321.7z"/>
	<path d="M224,165.8c0,0.8,0,1.7,0,2.5c-1.5,2.2-3,4.4-4.4,6.5c0.6,3.4,2.7,4.6,5.6,5.2c9.9,2,19.6,5.1,30.1,2.6
		c3.2-0.8,7.7-2.2,10.6,1.9c0,0.8,0,1.5,0,2.3c-11.8,2.4-23.5,1.7-35.2-0.7c-6.6-1.4-12.5-3.7-16.6-9.7
		C215.9,171.2,219.1,167.7,224,165.8z"/>
	<path d="M105.5,277.6c1.9,0.7,3.2,1.9,3.7,3.9c-2.9,4.3-6.2,3-10,1.3c-3.8-1.7-7.4,0.1-11.6,3.1c5.2,0.8,7,3.7,6.3,8.1
		c0,1.6,0,3.2-0.1,4.7c-5.1-0.5-4.2-5.7-5.4-7.8c-4.1-2.4-7,0-9.9-0.4c-2.8-0.3-6-1.1-8.5-4.6c2-3.6,5.7-3.7,9.4-4.3
		c8.2-1.2,16.3-2.6,24.4-4C104.4,277.7,105,277.7,105.5,277.6z"/>
	<path d="M444.8,88.6c1,4.3-2.5,6.1-5.1,6.3c-11.4,0.9-21.5,9.6-33.9,5.2c-3.7-1.9-8.3-3.7-6-10c-3-3.2-8.8-3-10.6-8
		c0-0.7,0-1.3,0-2c5.2,2.3,10.7,4,13.4,6.2c3.9,4,1.3,7,3,9.7c4.9,2.4,11.2,3.1,15.4,0.7C428.6,92.4,437.1,91.7,444.8,88.6z"/>
	<path d="M103,240.5c-3.8-0.1-7.7-0.7-11.6,0.9c-3,5.8-4.3,11.4,0.9,16.8c-2.5,3.4-0.3,8.7-4.6,11.4c-4.2,0.8-6.7-2-5.6-5
		c2.9-8.3,0.9-17.7,5.6-25.8c2.6-2.9,7.4-1,9.5-4.5C100.5,235.9,101.8,238.1,103,240.5z"/>
	<path d="M548.1,188.7c-7.3,1.5-4-5.8-6.8-8.6c-9.4,0.6-18.5-1.8-27.9-3.3c-1.4-5.8,1.2-8.1,6.2-8.6c0.1,0.7,0.1,1.4-0.1,2
		c-0.5,6.3,6.8,2.1,7.2,5.9c8.8,0.8,15.9-2,23.4-6.9C551.1,176.9,543,182.2,548.1,188.7z"/>
	<path d="M414.2,571.8c-1.4-2-2-4-0.4-7c9-1.4,18.3-2.2,26.9,4.4c6.8-4.6,13.7-2.6,20.6-0.5c0.6,0,1.3,0,1.9,0
		c-0.5,2.8-3.3,4.4-5,3.5c-6.3-3.3-12-0.5-17.9,1.1C431.8,569.6,423.3,562.5,414.2,571.8z"/>
	<path d="M103.2,657.4c0-6.6,6.3-6.8,9.8-7.6c7.9-1.7,15.5-3.3,22.2-8.4c4.1-3.1,9.4-5.2,14.4-0.6c-0.2,1.1-0.4,2.3-1.9,2.3
		c-4,0.7-7.5,2.2-11.2,3.8C125.9,651.5,115.4,657.5,103.2,657.4z"/>
	<path d="M81.5,377.2c0.3-1.8,1-3.3,2.8-3.9c8.3,4.8,17.3,7.3,26.3,7.1c2.5,3-0.8,4.8-0.1,7.3c2.4,3,6.4,3.5,9.6,5.4
		c-3.7,5.8-8.3,0.7-11.5,1.4c-4.3-2.7-3.5-6.6-3.9-9C96.5,382.5,89,379.9,81.5,377.2z"/>
	<path d="M109.6,550.1c-0.2,3.2,4.6,2.9,4.2,5.9c0.5,4.4-2.2,6.5-5,8.8c-7.1,0.2-12.5-4.9-19-6.4c-0.3-0.8-0.5-1.5-0.8-2.3
		c-0.2-1.9-0.2-3.9,1.3-5.4c0.7-0.7,2-0.8,2.6-1.1c4.9,1,2.3,5.5,5.1,8.5c3,1.2,6.4,5.2,11.9,1.1c-2.1-4.2-8.8-3.7-9.2-9.8
		c2-3.4,6.3-0.3,9-2.2C109.6,548.2,109.6,549.1,109.6,550.1z"/>
	<path d="M333.3,86.7c-6.2-1.1-11.6,2.7-16.9,2.9c-4.1,1.6-3.4,5.4-5.1,7.8c-4.6,1.9-8.8,0.8-12.9-1.5c-1.5-0.8-3.1-1.5-4.6-2.3
		c0.9-2.5,2.8-3.5,2.8-3.5c5.8-0.9,5.8,3.3,8.5,4.1c4.2-0.9,4.6-5.9,8.3-7.9c5.4-1.5,11-4,17.2-4.3c3.3-0.2,5,1.2,4.8,4.7
		C334.7,86.8,334,86.7,333.3,86.7z"/>
	<path d="M484.6,468.5c0,0.8,0,1.6,0,2.4c0.1,10.8-2.7,20.7-8.5,27.8c-1.4,7.7,5.8,14.3-1.9,19.7c-2.6-5.2,0.6-11.7-4.5-15.8
		c4.4-6.3,4.6-13.3,9.7-17.5C481.5,479.5,476.8,472.1,484.6,468.5z"/>
	<path d="M293.8,93.6c1.5,0.8,3.1,1.5,4.6,2.3c0,1.5-0.4,4.2-1.6,3.5c-5.1-3-9.9,0.1-13,2.1c-4.9,3.2-10,3.5-14.2,4.2
		c-4.9,3-2.6,10-8.4,11.3c-0.6,0-1.2,0-1.8-0.1c0.2-2-0.3-3.8-1.7-6.1c6-0.6,5.8-7.3,10.7-10C277,100.7,285.4,97.1,293.8,93.6z"/>
	<path d="M262.3,644.2c0-5.3,5.6-8.7,4.2-13.9c6.1-2.5,10.3-1,13.8,4.2c4.9-4,11-4.5,15.9-7.7c1.1-0.1,2.2-0.2,3.2-0.3
		c0.9,1.3,1.7,2.6,0.4,5.1c-3.9,0.7-8.5,0.7-12.4,4.5c-4.9,4.8-10.6,1.6-15.2-2.5C267.8,636.4,268.7,643.9,262.3,644.2z"/>
	<path d="M307.8,619.9c0.3-3.4-0.6-6.9,1.1-11c8.1,0,16-2.2,22.7-7.8c2-1.7,4.6-3,7.4-0.9c-7.9,5.4-14.4,13.5-25.5,12.2
		c0.5,5,1.2,9.8-5.6,9.7C307.8,621.5,307.8,620.7,307.8,619.9z"/>
	<path d="M172.8,238.1c0.9,0,1.7,0,2.6-0.1c3.8,1.1,3.2,5.8,5.8,7.5c5.5,0.1,5.7-4.4,6.9-8c6.5-0.1,12.4-1.8,18.2,1.2
		c-3.8,2.9-8.3,1.1-12.9,2c-3.6,3.5-5.6,10.6-13,8.7C174.7,248.1,172.4,243.9,172.8,238.1z"/>
	<path d="M139.7,653.6c0.2,3.7,0.4,7.3,0.6,10.2c-1.8,2.8-3.6,2.6-5.5,2.4c0.2-1.3,1.4-2.8-0.7-3.7c-2,0.6-4.7,0.8-3.2,4.2l0.3-0.2
		c-5.8-1.6-10.1,4.1-16.6,3.8c1-6.3,5.3-8.2,9.7-10.1C129.3,657.8,135.2,657.3,139.7,653.6z"/>
	<path d="M535.2,246.1c3.6-8.3,5.5-17.5,14-22.5c1-4.8,0-9.7,3-13.6c1.1-0.1,2.3-0.1,3.4-0.2C554,224.8,546.6,236.6,535.2,246.1z"/>
	<path d="M493,117c-8.3-0.3-6.8-5.6-5.4-8.5c2.6-5.5,1.2-9.6-5-14.6c-1.9-1.6-7.9,1.6-10.7-2.2c4.3-2.8,9.1-2.2,14.1-1.3
		c4.5,2.7,5.8,7,9.3,10.6c1.1,5-6.5,10.9,1.7,15.6C495.6,116.7,494.3,116.8,493,117z"/>
	<path d="M96,650.1c-0.3,2.2-0.5,4.3-0.9,6.9c2.8,0.1,5.5,0.3,8.1,0.4c-2.4,3.9-7.1,4.2-10.4,6.9c-3.9,0.3-7.5-0.1-11-3
		C83.4,653.3,90.1,652.2,96,650.1z"/>
	<path d="M97.6,301.7c3.2-2,5.7,1.6,7.9,1.2c11.1-5.5,21.6-6.3,32.4-2.1c-0.1,1.1-0.3,2-1.6,2.2c-9.1,0-18.4-3.2-27.3,2.4
		C104.6,308.3,100.3,306.5,97.6,301.7z"/>
	<path d="M57.3,581.2c-0.7-2.9,1.7-5.5,3.2-4.9c6.1,2.7,12.8-3.2,17.8,1.8c5-1.6,9.4-3,13.5-4.4c3.3,1.8,5.1,3.9,2.9,7.5
		c-1-0.7-2.2-2.1-2.8-1.9C80.6,583.8,68.8,579.3,57.3,581.2z"/>
	<path d="M152.6,460.6c2,3.1,3.1,7.1,0.3,9.3c-4.1,3.1-3,8.5-7.7,12.2c-3.9-0.3-8,2.2-11.8,5.2c-0.7,0-1.4,0-2.1,0
		c-0.1-3.6,3.2-5,4.1-7.7c3.5-0.6,6.5-1.1,9.9-1.6C145.7,471.1,149.5,466.1,152.6,460.6z"/>
	<path d="M123.9,522c0.8,7.7-8.5,6.7-10.4,12.9c0.7,2.9,1.9,6.5,0.8,10.2c-0.6,2-2,1.7-3.3,0.5c0-1.9,0-3.8,0-5.6
		c-2.5-3.4-7.7-1.5-10.3-6.4C109.2,531.2,116.7,526.9,123.9,522z"/>
	<path d="M64.7,560.7c0.8,3.7-1.4,6.3-2.3,7.4c-3.5,3.9-7.2,2-9.7,4.3c-2.1,4.7-0.6,7.7,4.6,8.9c-1.6,3.6-4.5,3.7-8.3,2.7
		c-2.7-5-1.6-9.9,1.6-15.6C57.9,571.4,58.1,560.6,64.7,560.7z"/>
	<path d="M105.5,277.6c-0.6,0.1-1.2,0.1-1.7,0.2c-3.2-2.4-5.8-5.1-7.1-10.4c0.4-4.1,4-9.6,0.3-14.8c-3.8-0.3-1.9,4-4.3,4.7
		c-2.2-4.1-1.6-7.4,3.6-9.8c6.8,5.3,7.4,12.1,4.5,19.9C101,271.4,106,273.2,105.5,277.6z"/>
	<path d="M509.6,266c-3.6-5.3-0.7-11.1-1.6-16.4c6.6-7.4,14.1-9.2,22.3-5.4c0.3,0.1,0,1.4-0.1,2.1c-5.6,0.4-11.4-1-17.1,2.2
		C511.6,254.2,513.4,260.7,509.6,266z"/>
	<path d="M142.6,403.2c9.5,1.5,18.5-3.3,28-2.3c0.1,0.6,0.2,1.2,0.1,1.9c-7.1,2-14,5-21.7,4.3c-3.4-0.3-6.9,0.1-8.7-3.7
		C141,403.2,141.8,403.2,142.6,403.2z"/>
	<path d="M104.4,628.1c3.4-5.9,8.4-9.9,15.2-10.3c5.2-0.3,9.3,2.3,10.2,8.2c-2.8,1.4-4.7,0.9-6-1.6c-2.6-3.8-7.3-3-8.5-0.8
		C112.4,628.5,107.9,626.5,104.4,628.1z"/>
	<path d="M473.1,91.5c-6.4,4.3-12.2-0.9-18.2-1.5c-3.3-0.4-6.8-0.7-10.2-1.3c1.2-3.4,4.1-5.5,7-4C458.6,88.1,466.9,86.4,473.1,91.5z
		"/>
	<path d="M133.3,317.2c-8.3,5.3-17.1,6.1-26.4,3.5c7.7-3.6,16.3-3.6,24.3-5.8C132.5,315.1,133,316,133.3,317.2z"/>
	<path d="M526.6,165.7c0-4,0-8.1,0-11.6c-2.7-3.5-9.5-1.5-8.4-7.9c2.6,0.4,5.3,0.8,7.7,1.1c7.2,9.6,7.2,11.4,0.9,21.2
		C526.7,167.6,526.6,166.7,526.6,165.7z"/>
	<path d="M121.8,509.2c2.3-2,2.4-7,7.8-5c4.4,5.3-1.8,10.2-1.3,15.6c0.2,2.1-2.5,2.3-4.4,2.4C124.7,517.5,129,512.4,121.8,509.2z"/>
	<path d="M89,556.1c0.3,0.8,0.5,1.5,0.8,2.3c-1.2,3.1-3.9,4-6.5,3.1c-6.1-2-12.3-0.9-18.4-1.1c4.3-4.9,9.3-7.4,15.6-4
		C83.6,558.1,86.2,557.9,89,556.1z"/>
	<path d="M463.3,568.7c-0.6,0-1.3,0-1.9,0c1.6-5.7-3.6-8.7-5.3-13.1c-1.7-4.6-3.7-8.9,4.2-8.7c-2.9,6.5,1.3,10.4,5.8,14.1
		C465,563.8,464.2,566.2,463.3,568.7z"/>
	<path class="st2" d="M238,236l-0.7-0.2c-4.7-2.2-10.4-3.7-8-10.7c2.8-4.2,8.3-2.3,11-5.8c0.7,5.9-4.2,6.5-8.8,8.3
		c2.7,1.5,4.6,2.5,6.5,3.5C237.9,232.7,238,234.4,238,236z"/>
	<path d="M120.4,392.9c-0.3-5.4,4-4.3,7.1-5.4c1.1,4.3,2.1,8.3,3.2,12.4c-1.3,1.6-2.5,3-3.8,4.5c-5.5-2.3-5.7-5.9-2.5-10
		C123.3,392.1,121.7,392.9,120.4,392.9z"/>
	<path d="M265.9,186.7c0-0.8,0-1.5,0-2.3c3.5,0.7,6-3.2,9.6-1.9c6.7,7.7,6.2,10-2.9,13.6c1-2,2-4,3-6
		C273.9,184.7,268.9,188.5,265.9,186.7z"/>
	<path d="M266.6,204.3c0.5,1,1,2,1.6,3.4c-3.1,4.3-8.4,4.6-11.4,6.9c-4.2,0.2-6-2-8-3.7c2.4-5.7,6.4-0.4,9.1-1.1
		C261,207.8,263.8,206.1,266.6,204.3z"/>
	<path d="M346.7,100.8c2.6,0.1,4,1.8,5,4.1c-0.8,2.7-1.5,5.6-4.7,7.4c-8.5-1.4-7-8.9-8.5-14.5c1.5,1,3,2,4.5,3l-0.4-0.2
		c0.5,2.6,0.9,5.2,3.6,6.5C348.3,105.1,346.9,102.9,346.7,100.8z"/>
	<path d="M555.7,209.8c-1.1,0.1-2.3,0.1-3.4,0.2c0.1-4.1-3.2-6.8-4.1-11.7c0.5-1.7,1.4-4.6,2.3-7.4c3.4,1.8,1.3,7.6,6.1,8.3
		c0.6,0.8,1.1,1.5,1.7,2.3C557.3,204.3,556.5,207,555.7,209.8z"/>
	<path d="M117.7,630.6c1.1,2.3,2.1,4.7,3.3,7.3c-5.3,4.9-11,2.7-16.4,2.1c1-1,2-2.9,3-2.9C112.4,637,114.8,633.4,117.7,630.6z"/>
	<path d="M218.7,665.2c5.6-0.9,5.6-5.8,6-9.9c3.5-0.2,6.1-0.3,8.6-0.5c0,0.8-0.1,1.5-0.1,2.3c-4.7,1.8-5,7.4-8.5,10.2
		C222.4,667.5,220.2,667.4,218.7,665.2z"/>
	<path d="M355.9,78.7c0.1,5.7-5.6,1.8-8,5.3c-0.9,3.5-0.9,8.6-4.8,12c-4-5.3,2-9.8,0.5-14.2C347.5,77.5,352.2,80.3,355.9,78.7z"/>
	<path class="st3" d="M113.8,502.6c-0.1,4.1,4.1,5.1,5.8,7.9c-4.8,6.1-9.5-0.6-15.2,1.5C105.9,505.4,111,505.3,113.8,502.6z"/>
	<path d="M233.3,657c0-0.8,0.1-1.5,0.1-2.3c3.6-3.5,8.2-2.9,12.6-3.1c-0.9,2.8-1.8,5.6-2.7,8.7C239.7,660.1,237.4,655.5,233.3,657z"
		/>
	<path d="M383.2,76c-7.8,1.1-13.2-4.8-20-6.7c3.7-3.3,7.8,0.6,11-1C378.2,70.6,380.8,73.1,383.2,76z"/>
	<path d="M235.7,237.9c-0.1,1.9-0.3,4.4-2.5,4.5c-8.7,0.3-17.4,1.2-26-0.5c-1.5-0.3-0.6-1.8-0.4-2.8
		C216.5,239.8,226.2,239.9,235.7,237.9z"/>
	<path d="M493.9,117c1-0.1,2-0.2,3-0.3c1.9,0,3.9-0.3,5.7,1.1c2.4,3-2.6,4.3-1.7,7.4c0.9,1.1,2.1,2.6,3.3,4
		c-5.8,3.2-8.9-0.8-7.4-4.9C498.5,119.6,494.7,119.3,493.9,117z"/>
	<path class="st3" d="M93.7,596.7c-5.4,4.3-11.4,2.1-17.2,1.3c1-3.2,3.6-3.2,6.2-3.3c3.7-0.1,7.3-0.2,11-0.3
		C93.6,595.2,93.6,596,93.7,596.7z"/>
	<path d="M184.1,672.5c-1.2-1.4-1.2-2.6,0.4-3.6c7.4-4.5,14.5-2.6,21.5,1.1c-4.5,5.9-8.1-2.1-12.4-1.1
		C190.5,670.1,187.3,671.3,184.1,672.5z"/>
	<path d="M156.6,680.4c0-0.8,0-1.6,0-2.4c6.5,0.4,12.6-4.2,19.3-1.6C170.4,682.3,163.5,681.6,156.6,680.4z"/>
	<path class="st2" d="M87.6,315.8c4.9-3.3,8.1-4.2,12.7-1.8C96.7,317.5,93.7,319.1,87.6,315.8z"/>
	<path class="st3" d="M170.6,402.8c0.1-0.6,0.1-1.2-0.1-1.9c4.1-4.4,9.3-1.3,13.9-2.3c0,0.9,0.1,1.9,0.1,2.8
		C180.2,404.2,175.3,402.3,170.6,402.8z"/>
	<path d="M104.5,640c-0.9,5-1.8,10.1-8.6,10.2c0.4-2.5,0.8-5,1.1-7.1C99.5,641,102,640.4,104.5,640z"/>
	<path d="M206.8,669.7c-2.9-6.4,2.7-7.6,5.5-10.1c4.2,0.4,6.8,1.4,6.3,5.7C213.1,662.7,209.8,665.7,206.8,669.7z"/>
	<path d="M333.3,86.7c0.7,0,1.4,0,2.1,0.1c1,3.7,2.1,7.5,3.1,11.2c-2.9,0.5-5.1-0.2-5.1-3.7C333.4,91.8,333.4,89.2,333.3,86.7z"/>
	<path d="M307.8,619.9c0,0.8,0,1.5,0,2.3c-2.3,2.4-4.2,5.7-8.4,4.3c-1.1,0.1-2.2,0.2-3.2,0.3C297.2,619.8,303.6,621.7,307.8,619.9z"
		/>
	<path d="M95.3,581.6c1.8-1,3.5-1.4,5.4,1c-1,3.7,0.1,8.8-5.9,10.1C93,588.9,99.5,585.5,95.3,581.6z"/>
	<path d="M466.8,527.7c0-3.4,1.6-6.4,2.6-9.1c1.9-1.2,3.2-0.5,4.5,0.2C471.7,521.9,473,527.7,466.8,527.7z"/>
	<path d="M512.9,140.2c-6-0.9-7.7-5-7.9-10.4C510.2,131.3,510.7,136.4,512.9,140.2z"/>
	<path class="st4" d="M77.8,344.1c-2.8,3.3-5,3.2-7.1,0.7c0-0.8-0.2-1.8,0.2-2.2C73.6,339.9,76,339.7,77.8,344.1z"/>
	<path d="M248.4,211.7c0.7,6.8,0.2,7.3-8.2,7.7C241.8,215.6,246.5,215.1,248.4,211.7z"/>
	<path class="st3" d="M147.7,643.1c1.5,0,1.7-1.2,1.9-2.3c3.7,5.9,3.5,7.1-2.3,9.4C147.4,647.9,147.5,645.5,147.7,643.1z"/>
	<path d="M460.6,546.3c-2.9-3.6-0.9-6.8,0.8-10.1c0.9,0,1.9,0,2.8,0C463.5,539.8,463.2,543.4,460.6,546.3z"/>
	<path class="st4" d="M81.1,330.3c1.5-1.6,3.1-2.2,4.8-0.3C83.6,333.1,83.6,333.1,81.1,330.3z"/>
	<path class="st3" d="M142.6,403.2c-0.8,0-1.5,0-2.3,0.1c-1.6,0.2-3.2,0.4-4.8,0.6c0-1,0.1-2,0.1-3
		C139.4,397.1,141.8,397.7,142.6,403.2z"/>
	<path d="M491.8,368.4c-0.8,0.1-1.6,0.1-2.5,0.2c-3.2-2.4-3.4-4.8-0.1-7.2l1.1,0.1l1.1,0C491.6,363.8,491.7,366.1,491.8,368.4z"/>
	<path d="M526.6,165.7c0.1,1,0.1,1.9,0.2,2.9c-2,2.6-4.8,1-7.3,1.5c0.2-0.7,0.2-1.4,0.1-2C521,164.7,524.1,166.2,526.6,165.7z"/>
	<path class="st3" d="M133.3,317.2c-0.2-1.2-0.7-2.1-2.1-2.3c0.1-1.6,0.1-3.1,0.2-4.7l1,0l1-0.1
		C136.5,312.6,136.6,314.9,133.3,317.2z"/>
	<path d="M487.1,334c-11.3-0.1-9.8-8.5-9.3-16.3C483,321.8,485,328,487.1,334z"/>
	<path class="st3" d="M121.4,498.2c-0.9,4.4-3.3,6-7.6,4.4C115.1,499,118.7,499.4,121.4,498.2z"/>
	<path class="st3" d="M136.4,303.1c1.3-0.2,1.5-1.1,1.6-2.2c4,3.9,3.2,6.3-2.4,7c0-0.8,0-1.6,0-2.4
		C135.9,304.7,136.1,303.9,136.4,303.1z"/>
	<path d="M93.8,298.8c0-1.6,0-3.2,0.1-4.7c6.1,0.1,4.6,4,3.8,7.6C95.8,301.3,94.7,300.2,93.8,298.8z"/>
	<path d="M402,576.6c1.8-2.1,3.5-4.2,5.3-6.2c2.5,0,7.9-4.1,6.2,1.5C409.1,574.6,401.6,583.2,402,576.6z"/>
	<path d="M96.8,632.6c0.2-5.3,2.7-6.5,7.2-4.2C102.8,631.8,100.3,633,96.8,632.6z"/>
	<path class="st3" d="M126,493.7c0.5,3.9-1.1,5.5-5,4.8C121.8,495.9,123.5,494.3,126,493.7z"/>
	<path d="M127.7,404.9c2.3-1.6,4.4-1.5,6.5,0.4C131.9,408,129.8,407.3,127.7,404.9z"/>
	<path d="M360.5,74.2c1.3,4.5-0.2,6-4.6,4.5C357.4,77.2,358.9,75.7,360.5,74.2z"/>
	<path class="st3" d="M259.4,117c0.6,0.1,1.2,0.1,1.8,0.1c-0.2,6.2-4.1,4.6-7.6,3.7C254.3,117.6,257.9,119,259.4,117z"/>
	<path class="st3" d="M131.2,487.2c0.7,0,1.4,0,2.1,0c0.1,3.5-1.6,4.9-5.1,4.5C129.3,490.2,130.3,488.7,131.2,487.2z"/>
	<path d="M255.3,646.8c0.1-6.3,4-2.7,6.6-2.5C260.5,647,258,647,255.3,646.8z"/>
	<path d="M135.6,305.5c0,0.8,0,1.6,0,2.4c-1.3,0.3-2,1-2.2,2.3l-1,0.1l-1,0C129.5,305.7,132.6,305.7,135.6,305.5z"/>
	<path class="st3" d="M464.2,536.2c-0.9,0-1.9,0-2.8,0c0.6-2.4-1.8-6.5,3.5-6.4C465.1,532,465.4,534.2,464.2,536.2z"/>
	<path d="M107.1,242.4c1,0.1,2,0.2,3,0.3c-3.2,3.6-5.7,4.3-6.8-1.5C104.6,241.6,105.8,242,107.1,242.4z"/>
	<path d="M272.8,195.9c-0.5,2.4,2.1,6.5-3.4,6.2C270,199.8,269.8,197,272.8,195.9z"/>
	<path d="M90.8,635.2c-0.5-3.9,0.1-4.1,5.9-2.9C95.3,634.5,93.2,635.2,90.8,635.2z"/>
	<path d="M246.2,651.4c-0.6-6.2,3.9-2.5,6.2-3.2C251.2,650.9,248.8,651.3,246.2,651.4z"/>
	<path class="st4" d="M244.9,130.6c1.8-2,3.4-2.1,4.5,0.6C247.9,131,246.4,130.8,244.9,130.6z"/>
	<path class="st2" d="M121.6,626.5c-0.2,2,0.7,5.1-3.3,3.6C118.9,628.5,119.8,627.1,121.6,626.5z"/>
	<path d="M389.2,80.1c0,0.7,0,1.3,0,2c-1.9-0.4-5.1,0.3-3-3.5C387.2,79.1,388.2,79.6,389.2,80.1z"/>
	<path class="st2" d="M147.2,650.1c-0.4,1.7,0.7,5.1-3.2,2.7C144.7,651.5,145.7,650.5,147.2,650.1z"/>
	<path d="M362.5,69.7c1.1,2.4,2.1,4.7-2.1,4.6C360.6,72.6,360.8,70.8,362.5,69.7z"/>
	<path d="M494.9,280.8c8.8-23,11.7-16,16.1-16.7C505.1,272.5,499.7,278.2,494.9,280.8z"/>
	<path d="M491.5,361.5l-1.1,0l-1.1-0.1c0.1-2.4,0.5-4.5,3.5-4.6C492.7,358.4,492.9,360.1,491.5,361.5z"/>
	<path class="st2" d="M79.8,370.9c-0.1,1.8-0.2,3.6-0.3,5.3C75.6,374.3,77.1,372.6,79.8,370.9z"/>
	<path d="M175.8,676.7c0-3.8,2.4-3.1,4.7-2.4C179.4,676,177.5,676.3,175.8,676.7z"/>
	<path d="M523.1,147.9c-13.4,1.7-11.5-4-12.1-8.4C517.6,141,521.3,144,523.1,147.9z"/>
	<path class="st3" d="M128.6,491.5c-0.3,1.5-1.2,2.3-2.7,2.5C126.1,492.5,127.1,491.8,128.6,491.5z"/>
	<path d="M93.7,596.7c-0.1-0.8-0.1-1.5,0-2.3l0.6-0.7C95.9,595,95.2,596,93.7,596.7z"/>
	<path d="M252.7,121c0.1,0.6,0.2,1.2,0.3,1.8c-0.6-0.1-1.2-0.2-1.8-0.3C251.7,121.9,252.2,121.4,252.7,121z"/>
	<path d="M550.6,192.1c-3.6,0.3-5.2-1.2-5-4.4C548.4,188.2,550.2,189.5,550.6,192.1z"/>
	<path d="M558.2,201.5c-0.6-0.8-1.1-1.5-1.7-2.3c0.6-0.1,1.4-0.6,1.7-0.3C559.2,199.6,558.9,200.6,558.2,201.5z"/>
	<path d="M385.2,78.2c-2.1,1.2-2.4,0.3-1.8-1.6C384,77.1,384.6,77.7,385.2,78.2z"/>
	<path d="M269.5,202.3c0.6,2,0.1,2.7-2,1.8C268.2,203.5,268.9,202.9,269.5,202.3z"/>
	<path d="M406.5,576.5c0.2-1.8,0.6-3.3,2.9-1.9C408.4,575.2,407.5,575.8,406.5,576.5z"/>
	<path d="M252.3,648.4c0.1-1.9,1-2.6,2.8-1.8C254.6,647.9,253.5,648.3,252.3,648.4z"/>
	<path d="M527.1,244.3c3.5-1.8,7-1.9,10.5-0.4C534.2,247.9,530.6,247.8,527.1,244.3z"/>
	<path class="st2" d="M109.6,550.1c0-0.9,0-1.9,0-2.8l0.7-0.3C112.1,548.5,111.3,549.4,109.6,550.1z"/>
	<path class="st2" d="M142.1,654.1c1,0.2,1.9,0.5,1.7,1.9c-0.7-0.6-1.5-1.2-2.2-1.8L142.1,654.1z"/>
	<path d="M153.7,459.2c1,0,1.9,0.1,2.9,0.1c-0.8,1.6-1.8,2.1-3.2,0.5L153.7,459.2z"/>
	<path d="M75.1,601.4c0-0.8,0-1.6,0-2.4c0.3-0.5,0.7-0.8,1.3-0.9C77.3,599.7,76.7,600.7,75.1,601.4z"/>
	<path d="M465.2,529.8c-1.2-2-0.3-2.5,1.7-2.2C466.3,528.3,465.7,529.1,465.2,529.8z"/>
	<path d="M135.6,401c0,1-0.1,2-0.1,3l-0.1,0C133.5,402.8,134,401.9,135.6,401z"/>
	<path d="M180.6,674.3c-0.3-1.9,0.2-2.9,2.2-1.5C182,673.2,181.3,673.8,180.6,674.3z"/>
	<path class="st0" d="M346.7,100.8c0.2,2.1,1.6,4.3-0.5,6.3c-2.8-1.3-3.1-3.9-3.6-6.5C344,99.1,345.3,100.4,346.7,100.8z"/>
	<path class="st0" d="M127.6,644.1c-1.5-3.4,1.2-3.5,3.2-4.2c2.1,0.9,0.9,2.4,0.7,3.7c-0.6-0.1-1.1,0.1-1.3,0.7
		C129.3,644.2,128.5,644.2,127.6,644.1z"/>
	<path d="M238,236c0-1.7,0-3.3,0-5c2.6,0.9,2.8,3,2.2,5.1C239.7,237.5,238.6,237,238,236z"/>
	<path d="M497.4,343.1c-6.7,3-8.8-3.9-11.2-10C490.7,334.9,494,339.1,497.4,343.1z"/>
	<path d="M492.6,358.3l-0.9-0.6l-0.8-0.7c1.5-1.9,3-3.4,5.5-1.8C495.3,356.4,494.4,357.9,492.6,358.3z"/>
	<path d="M496,342.3c0.1,0,0.3,0,0.4,0c3,0.4,3.4,0.8,3.4,0.8l0.6,3.1v4.3l-0.6,3.5l-2.6,0.8l-0.8,0.1l-0.7,0.9l-2.5,0.7l5.6-4.3
		v-2.9c0,0-0.5-2.2-0.6-3.1c-0.1-0.9-0.7-1.9-0.7-1.9l-1.4-1.5L496,342.3z"/>
</g>
</svg>
