<?xml version="1.0" encoding="utf-8"?>
<!-- Generator: Adobe Illustrator 25.3.1, SVG Export Plug-In . SVG Version: 6.00 Build 0)  -->
<svg version="1.1" id="Layer_1" xmlns="http://www.w3.org/2000/svg" xmlns:xlink="http://www.w3.org/1999/xlink" x="0px" y="0px"
	 viewBox="0 0 612 792" style="enable-background:new 0 0 612 792;" xml:space="preserve">
<style type="text/css">
	.st0{fill:#284F2C;}
	.st1{fill:#161615;}
	.st2{fill:#444441;}
	.st3{fill:#807D7D;}
	.st4{fill:#FCFCFC;}
	.st5{fill:#006838;}
</style>
<g>
	<path id="Backg" class="st0" d="M356.8,105.9c1.6-1.5,0.4-3.2,0.2-4.8c3.9-3.4,3.9-8.5,4.8-12c2.4-3.5,8,0.4,8-5.3l0.1,0.8
		l-0.2-0.8c4.4,1.4,6,0,4.6-4.5l0.6,0.6l-0.7-0.4c4.3,0.1,3.2-2.3,2.1-4.6l0.7-0.4c6.8,1.9,12.2,7.8,20,6.7l0.2,0.6
		c-0.6,1.9-0.3,2.8,1.8,1.6l0.4,0.5l0.6-0.1c-2.1,3.8,1.1,3.1,3,3.5c1.8,5,7.7,4.8,10.6,8c-2.3,6.2,2.4,8.1,6,10
		c12.4,4.4,22.5-4.3,33.9-5.2c2.7-0.2,6.1-2,5.1-6.3l-0.1,0.1c3.4,0.6,6.9,0.9,10.2,1.3c6,0.7,11.8,5.8,18.2,1.5
		c1.5,0,3,0.1,4.5,0.1c2.1,3.8,6.8,0.6,8.3,2.2c4.8,5,5.9,9.1,3.8,14.6c-1.1,2.9-2.3,8.2,4.1,8.5c0.8,2.4,4.6,2.7,2.9,7.3
		c-1.5,4.1,1.7,8.1,7.4,4.9v0.7l0.7,0.1c0.2,5.3,2,9.4,7.9,10.4c1.3,0.1,1.8,0.9,2,2.1c0.2,2.1-0.4,4.7,3.3,3.9
		c-0.2,0.2-0.4,0.4-0.7,0.6c0.2-0.2,0.5-0.3,0.7-0.5c-1.1,6.4,5.7,4.4,8.4,7.9c0,3.5,0,7.5,0,11.6c-2.4,0.5-5.5-1-7,2.4
		c-5.1,0.5-7.6,2.8-6.2,8.6c9.3,1.5,18.5,4,27.9,3.3c2.8,2.8-0.4,10.2,6.8,8.6l-0.2-0.1c-0.1,1.8,0.7,2.6,2.5,2.4l-0.4,0.5l0.4-0.6
		c-0.9,2.8-1.7,5.7-2.3,7.4c1,4.9,4.2,7.6,4.1,11.7c-3,3.9-2,8.8-3,13.6c-8.5,5-10.4,14.3-14,22.5l-1,0.3c-1.2-0.9-2.4-0.9-3.7-0.1
		h-0.3c0-0.7,0.3-2,0.1-2.1c-8.2-3.8-15.7-2-22.3,5.4c0.9,5.2-2,11.1,1.6,16.4c-2.1,3.8-5.2,6.7-8.7,9.2c-1.8,0.4-4.9-0.3-2.9,3.4
		c-0.5-0.1-0.9,0.1-1.2,0.4c-3.6-1.1-7.1-2.2-10.5-3.3c-2.7,3.5-0.2,8.6-6.4,11c-3.8-2.9-8.7-3.2-12.6,1.8c2.1,5.8,4,11.5,8.6,15.8
		c0,5.8,0,11.1,0,15.8c1.9,1.7,3.4,1.6,4.9,1.6c2,0.7,2,2.3,1.7,4c-0.3,3.8-1.1,7.9,4.8,8c4.4,2.8,6.1,9,11.9,9
		c1.5,4.2,1.4,7.4,0.6,10.5c-1.8,2.8-5.4,1.1-7.1,3.6c-3.1,0.1-3.4,2.3-3.5,4.6c-3.3,2.4-3.2,4.9,0.1,7.2c-0.9,3.1,3.1,3.9,3.4,6.4
		c-2.4,3.5-4.6,7.1-7.9,9.7c0.3,14.5-3,29.5,6.8,41.3c0.1,5-3.7,8.3-1.9,12.2c5.2,11.3-0.3,20.7-5,30.3c-7.8,3.6-3.1,11-5.1,16.5
		c-5.2,4.2-5.4,11.2-9.7,17.5c5.2,4.1,1.9,10.6,4.5,15.8l-0.3,0.4c-1.3-0.7-2.7-1.4-4.5-0.2c-1,2.8-2.6,5.7-2.6,9.1H480l0.6-0.1
		c-1.9-0.3-2.8,0.2-1.7,2.2h-0.3c-5.2-0.1-2.9,3.9-3.5,6.4c-1.7,3.3-3.7,6.5-0.8,10.1h-0.6l0.2,0.6c-7.9-0.3-5.9,4.1-4.2,8.7
		c1.7,4.4,7,7.4,5.3,13.1c-6.9-2-13.8-4-20.6,0.5c-8.7-6.6-17.9-5.8-26.9-4.4c-1.6,3-1,5.1,0.4,7c-0.5,0-0.9,0.3-1,0.8
		c-2.3-1.4-2.7,0.1-2.9,1.9l-0.6,0.3c-2.5-2-4.3,0.5-6.4,1c-12.8-0.5-25.6-0.9-38.4-0.2c-10.3,0.6-18.9,4.4-28,11.4
		c4.4,3.9,0,8.6,2.4,12.8l-0.4,0.4c-2.7-2.1-5.4-0.7-7.4,0.9c-6.7,5.6-14.5,7.7-22.7,7.8c-1.7,4.1-0.8,7.6-1.1,11
		c-4.2,1.7-10.6-0.1-11.6,7c-4.9,3.2-10.9,3.7-15.9,7.7c-3.4-5.2-7.7-6.7-13.8-4.2c1.4,5.2-4.2,8.5-4.2,13.9h-0.3
		c-2.6-0.2-6.5-3.8-6.6,2.5l-0.3-0.2c-1.8-0.8-2.7-0.1-2.8,1.8l0.2-0.2c-2.3,0.7-6.8-3-6.2,3.2l-0.5-0.2l0.3,0.5
		c-4.4,0.2-9-0.4-12.6,3.1c-2.6,0.1-5.1,0.3-8.6,0.5c-0.4,4.1-0.5,9-6,9.9h-0.2c0.6-4.2-2.1-5.2-6.3-5.7c-2.8,2.5-8.4,3.7-5.5,10.1
		l-0.7,0.4c-7-3.7-14.1-5.7-21.5-1.1c-1.6,1-1.7,2.2-0.4,3.6l-0.7-0.1l-0.6,0.4c-2-1.4-2.4-0.4-2.2,1.5h-0.1
		c-2.3-0.6-4.7-1.4-4.7,2.4l0.2-0.1c-6.7-2.7-12.8,2-19.3,1.6c0-3.5,0.1-6.9-3.8-8.7c-6.5,0.5-12,4.9-18.2,5.9c-2-3.2-1-5.9-1.1-8.4
		c0.2-0.6,0.7-0.8,1.3-0.7c1.9,0.2,3.7,0.3,5.5-2.4c-0.2-2.8-0.4-6.5-0.6-10.2c0.8-0.3,1.5-0.1,2,0.6c0.7,0.6,1.5,1.2,2.2,1.8
		c0.1-1.3-0.8-1.6-1.7-1.9c0.6-0.4,1.3-0.9,1.9-1.3c3.9,2.4,2.8-1,3.2-2.7l0.1,0.2c5.7-2.3,6-3.6,2.3-9.4c-5-4.6-10.3-2.5-14.4,0.6
		c-6.7,5.1-14.3,6.7-22.2,8.4c-3.5,0.8-9.8,1-9.8,7.6l0.1-0.1c-2.7-0.1-5.3-0.3-8.1-0.4c0.3-2.5,0.6-4.7,0.9-6.9l-0.1,0.1
		c6.8-0.1,7.7-5.1,8.6-10.2l0.3,0.9l-0.3-0.9c5.5,0.6,11.1,2.8,16.4-2.1c-1.2-2.6-2.2-4.9-3.3-7.3l0.6,0.1v-0.6
		c4,1.5,3.1-1.6,3.3-3.6c0.2-1.2,1-1.8,2.2-2.1c1.3,2.6,3.2,3,6,1.6c-0.8-5.9-4.9-8.5-10.2-8.2c-6.8,0.4-11.8,4.4-15.2,10.3
		l-0.5-0.2l0.3,0.5c-4.6-2.4-7.1-1.1-7.2,4.2l-0.1-0.2c-5.8-1.3-6.3-1-5.9,2.9h-0.8l-0.5,0.6c-8.1-0.5-8.5-9-12.7-12.7
		c-5.3-1.8-9.4-1-12.6,2.7c-2.4-1.4-4.1-2.8-4.5-4.9c0.8-2.5,1.5-4.7,2.4-7.4c4.1-0.5,7.8-1.8,8.6-7.2c0.2-1.8,2.9-3.3,4.4-4.9
		c1.6-0.6,2.1-1.7,1.3-3.3l0.3,0.8l-0.2-0.9c5.8,0.8,11.7,2.9,17.2-1.3c1.5-0.8,2.2-1.7,0.6-3.1l0.6-0.4l-0.2-0.6
		c6.1-1.3,4.9-6.4,5.9-10.1c-1.9-2.4-3.6-2-5.4-1l-0.5-0.4c2.2-3.6,0.4-5.7-2.9-7.5c-4.2,1.4-8.5,2.8-13.5,4.4
		c-5-4.9-11.7,1-17.8-1.8c-1.5-0.7-3.9,2-3.2,4.9l-0.9-0.7l0.8,0.8c-5.1-1.2-6.7-4.2-4.6-8.9c2.5-2.3,6.2-0.4,9.7-4.3
		c0.9-1.1,3-3.7,2.3-7.4l0.2-0.2c6.1,0.2,12.3-0.9,18.4,1.1c2.5,0.8,5.3-0.1,6.5-3.1c6.6,1.5,12,6.6,19,6.4c2.9-2.3,5.6-4.5,5-8.8
		c0.4-3-4.4-2.7-4.2-5.9c1.7-0.7,2.5-1.6,0.7-3.1c0.7-0.2,0.9-0.7,0.6-1.3c1.3,1.2,2.8,1.4,3.3-0.5c1.1-3.7-0.1-7.3-0.8-10.2
		c1.9-6.2,11.3-5.2,10.4-12.9v0.1c1.9,0,4.6-0.3,4.4-2.4c-0.5-5.3,5.7-10.3,1.3-15.6c-5.4-2-5.5,3-7.8,5c-0.8,0.5-1.5,0.9-2.3,1.4
		c-1.7-2.8-5.9-3.8-5.8-7.9c0.9,0.8-0.2-0.2,0,0c4.3,1.6,6.7,0,7.6-4.4l-0.3,0.2c3.9,0.7,5.5-0.9,5-4.8l-0.2,0.3
		c1.5-0.1,2.5-0.9,2.7-2.5l-0.2,0.2c3.4,0.5,5.1-1,5.1-4.5c3.9-3,7.9-5.5,11.8-5.2c4.7-3.6,3.6-9,7.7-12.2c2.8-2.2,1.7-6.2-0.3-9.3
		c0.6,0,0.9-0.3,0.9-0.9c1.3,1.7,2.3,1.2,3.2-0.5c3.5-0.1,6-1.3,6.4-4.5c-0.5-4.6-6.2-4.1-6.4-7.6c0.8-11.2,8.4-17.7,13.7-24.6
		c5.1-1.8,8.2,2.5,13,1.3c3.6-5.7,12.7-3.6,17.1-10.5c0.5-4.1,0.6-8.7-0.2-13.4c-5.2-2.9-10-6.3-15.7-1.3c-4.6,1-9.9-2.2-13.9,2.3
		c-9.5-1-18.5,3.8-28,2.3c-0.8-5.5-3.1-6.1-6.9-2.2c-1.6,0.9-2.1,1.8-0.3,3c-0.6,0.2-1,0.6-1.1,1.2c-2.1-1.9-4.3-1.9-6.5-0.4
		l-0.2-0.6h-0.6c1.2-1.5,2.5-2.9,3.8-4.5c-1-4.1-2.1-8.1-3.2-12.4c-3.1,1.2-7.5,0.1-7.1,5.4l-0.2,0.3c-3.2-1.9-7.3-2.4-9.6-5.4
		c-0.7-2.5,2.6-4.3,0.1-7.3c-9,0.2-18-2.4-26.3-7.1c5.9-0.2,7.3-4.5,8.3-8.2c-0.6-5.1-4.1-5.8-7-6.9c3.7-10.5,15.4-7.1,22.1-12.6
		c-0.4-8.3-0.8-16.5-1.1-24.6l0.3-0.2c9.3,2.5,18.2,1.7,26.4-3.5c3.4-2.3,3.3-4.6,0.1-7c0.2-1.3,1-2,2.2-2.3c5.5-0.8,6.3-3.1,2.4-7
		c-10.8-4.2-21.3-3.4-32.4,2.1c-2.2,0.4-4.8-3.2-7.9-1.2l0.7-0.6L112,307c0.8-3.6,2.4-7.5-3.8-7.6c0.8-4.5-1.1-7.4-6.3-8.1
		c4.2-3,7.8-4.8,11.6-3.1c3.8,1.7,7.1,3,10-1.3c-0.4-2-1.7-3.2-3.7-3.9c0.5-4.4-4.5-6.2-4.8-10.2c2.9-7.8,2.3-14.6-4.5-19.9
		c-5.2,2.5-5.8,5.7-3.6,9.8l-0.5,0.9c-5.2-5.4-4-11-0.9-16.8c4-1.6,7.8-1,11.6-0.9l0.3,0.7c1.1,5.8,3.7,5.1,6.8,1.5
		c7.4-0.1,3-6,3.6-9.9c15.5,6.2,31.3,0,46.1,4.6c1.6-1.1,3.2-2.2,4.8-3.3c2.8,1.2,4.6,4.4,8.2,3.9c-0.4,5.8,2,10,7.6,11.4
		c7.4,1.8,9.4-5.3,13-8.7c4.6-1,9.1,0.8,12.9-2v0.6l0.6-0.2c-0.2,1-1.1,2.5,0.4,2.8c8.6,1.6,17.3,0.8,26,0.5
		c2.1-0.1,2.4-2.6,2.5-4.5c0.5-0.7,1-1.4,1.5-2.1l0.7,0.2c0.7,1,1.7,1.4,2.1,0.1c0.6-2.1,0.4-4.2-2.2-5.1c-1.9-1-3.8-2-6.5-3.5
		c4.6-1.8,9.6-2.4,8.8-8.3v0.1c8.4-0.4,8.9-0.9,8.2-7.7l0.3-0.8c2,1.7,3.8,3.9,8,3.7c2.9-2.3,8.2-2.6,11.4-6.9
		c-0.6-1.3-1.1-2.4-1.6-3.4l1-0.2c2.1,1,2.6,0.3,2-1.8l-0.1-0.2c5.4,0.2,2.8-3.8,3.4-6.2l-0.1,0.1c9.1-3.5,9.6-5.9,2.9-13.6
		c-3.6-1.2-6.1,2.7-9.6,1.9c-2.9-4.1-7.4-2.7-10.6-1.9c-10.4,2.5-20.1-0.6-30.1-2.6c-2.9-0.6-5-1.8-5.6-5.2c1.4-2.1,2.9-4.3,4.4-6.5
		c2.5-0.8,5.1-2.3,7.6-2.2c9.7,0.5,15-4.2,16.5-12.9c2.6-2,6-0.3,7.4-2.3c3.9-8.4-4.1-15.9,0.5-23c-2.4-2.1-4.1-3.6-5.9-5.1
		c0.5,0.2,0.8,0.1,1.1-0.3c0.6,0.1,1.2,0.2,1.8,0.3c-0.1-0.6-0.2-1.2-0.3-1.8l0.8-0.2c3.6,0.9,7.5,2.5,7.6-3.7
		c5.8-1.3,3.5-8.3,8.4-11.3c4.3-0.7,9.4-1,14.2-4.2c3.1-2.1,7.9-5.1,13-2.1c1.2,0.7,1.6-2,1.6-3.5c4.1,2.3,8.3,3.4,12.9,1.5
		c1.7-2.5,1-6.3,5.1-7.8c5.3-0.2,10.7-4,16.9-2.9c0,2.5,0,5.1,0.1,7.6c0.1,3.5,2.2,4.1,5.1,3.7l-0.1-0.1c1.5,5.6,0,13.1,8.5,14.5
		c3.2-1.8,4-4.7,4.7-7.4c-1-2.3-2.4-4-5-4.1c-1.4-0.4-2.7-1.7-4.2-0.2L356.8,105.9z"/>
	<path d="M498.6,473.5c4.7-9.6,10.2-19,5-30.3c-1.8-3.9,2-7.2,1.9-12.2c-9.8-11.8-6.5-26.7-6.8-41.3c3.4-2.6,5.5-6.2,7.9-9.7
		c-0.2-2.5-4.2-3.2-3.4-6.4c0.8-0.1,1.6-0.1,2.5-0.2c2.1,1.5,4.3,3,7,4.8c-3,4.2-4.8,8.7-4.4,12.4c-1,4-4.5,3.2-5.9,6.3
		c2.3,7.7-2,16.8,2.8,25c4,6.6,5.6,13.3,2.1,20.2c4.5,13.1,0.6,27.6-8.7,33.8C498.6,475.1,498.6,474.3,498.6,473.5z"/>
	<path d="M198.5,403.7c5.7-5,10.5-1.6,15.7,1.3c0.9,4.8,0.7,9.3,0.2,13.4c-4.4,7-13.5,4.8-17.1,10.5c-4.8,1.2-8-3.1-13-1.3
		c-5.3,6.9-12.8,13.4-13.7,24.6c0.2,3.5,5.9,3,6.4,7.6c-0.4,3.2-3,4.4-6.4,4.5c-1,0-1.9-0.1-2.9-0.1c0.6-1.8,3.2-2.1,3-4.4
		c-1.8-3.3-5.6-1.8-8.8-3.3c6.1-11.7,11.9-23.2,19.8-34c4.4-1.1,8.5,1.8,13.5,2.5c2.8-5.2,8.5-5.2,13.2-5.9
		c3.9-4.1-3.7-8.2,1.7-11.5c-4.2-2.2-7.9-0.9-11.6-1.1C198.6,405.5,198.5,404.6,198.5,403.7z"/>
	<path d="M89.1,606.4c-1.5,1.6-4.1,3.1-4.4,4.9c-0.7,5.4-4.5,6.7-8.6,7.2c-0.9,2.7-1.6,4.9-2.4,7.4c0.4,2.2,2.1,3.5,4.5,4.9
		c3.2-3.7,7.3-4.5,12.6-2.7c4.2,3.7,4.6,12.1,12.7,12.7c-3.5,3.6-7.5,3.2-11.7,1.5c-2.7-3.5,0.6-9.8-5.6-11.7c-5.2-0.4-3,6.5-7.7,8
		c-5.1-5.1-9.4-10.8-12.4-17.2c2.2-7,8.2-5.2,12.7-6.6c-0.1-1.6-0.2-3.1-0.4-4.8c2.6-3.6,6.7-4.8,10.7-6.1
		C89.1,604.8,89.1,605.6,89.1,606.4z"/>
	<path d="M120.5,325.9c0.4,8.1,0.7,16.3,1.1,24.6c-6.7,5.5-18.4,2.1-22.1,12.6c2.9,1.2,6.5,1.9,7,6.9c-1,3.7-2.3,8.1-8.3,8.2
		c-1.8,0.7-2.5,2.2-2.8,3.9c-0.8-0.1-1.4-0.5-2-1c0.1-1.8,0.2-3.6,0.3-5.3c1.3-2.7,4.9-2.1,6.8-5.2c-2.4-4.3-7.9-5.6-12.8-10.6
		c10.2-4.4,19.2-9,29.2-11.2C117.4,340.4,112.3,332,120.5,325.9z"/>
	<path d="M186.7,243.1c-3.6,0.5-5.4-2.7-8.2-3.9c-1.6,1.1-3.2,2.2-4.8,3.3c-14.9-4.7-30.6,1.5-46.1-4.6c-0.7,3.9,3.8,9.8-3.6,9.9
		c-1-0.1-2-0.2-3-0.3c4.9-3.1-1.7-9,4.6-13.3c17.1,3.8,35.9,2.3,55.9,2.3c2.8,0.9,5.6,3.4,7.8,6.6
		C188.4,243.1,187.6,243.1,186.7,243.1z"/>
	<path d="M353.3,604.9c-2.5-4.2,2-8.9-2.4-12.8c9-6.9,17.7-10.7,28-11.4c12.8-0.8,25.6-0.3,38.4,0.2c0,1-0.1,2-0.1,3.1
		c-7-0.3-14.1,0.5-21.1,0.3c-6.6-0.2-14.1,1.7-21.3,1.4c-6.2-0.2-10.9,3.2-16,5.3c-0.9,2.4,1.5,3.4,1.9,6
		C358.3,599.3,355.8,602.1,353.3,604.9z"/>
	<path d="M264.1,127.8c1.7,1.5,3.4,3,5.9,5.1c-4.6,7.1,3.4,14.6-0.5,23c-1.4,2-4.7,0.2-7.4,2.3c-1.5,8.7-6.8,13.5-16.5,12.9
		c-2.5-0.1-5.1,1.4-7.6,2.2c0-0.8,0-1.7,0-2.5c4.2-5.8,10.9-4.6,16.1-5.4c4.6-3.2-0.4-8.2,3.1-10.8c2.5-3.5,6.9-0.6,10.3-3.5
		c-1.5-4.9-4-9.6-4-14.8c-1.2-2.7-2.7-2.6-4.5-0.6c-1.9,0-3.8,0.4-5.5-1.8C253.6,126.4,260.3,129.5,264.1,127.8z"/>
	<path d="M147.4,671.9c0.1,2.6-0.9,5.2,1.1,8.4c6.2-1,11.7-5.4,18.2-5.9c3.9,1.7,3.9,5.2,3.8,8.7c0,0.8,0,1.6,0,2.4
		c-4.1,0.3-3.9-4.3-6.1-5.6c-5.8-0.5-9.4,3.7-13.3,5.1c-4,0.9-5.3-2.2-7.5-3.3c-5.2,3.3-7.4,11.5-16.5,9.2
		c-2.1-7.9,4.6-9.8,9.1-11.8c4-1.8,8.1-2.4,8.8-7.6l-0.3,0.2C145.7,671.7,146.5,671.8,147.4,671.9z"/>
	<path d="M494.4,326.7c-1.5,0-3.1,0.1-4.9-1.6c0.1-4.7,0.2-10,0.3-15.8c-4.5-4.4-6.3-10.1-8.3-16c4-4.9,8.9-4.6,12.6-1.6
		c6.2-2.3,3.8-7.5,6.6-10.9c3.4,1.1,6.9,2.3,10.5,3.5c-1.7,2.1-4.3,0.6-7.1,1.9c-1.3,8.2-8.8,9.4-17,11.5
		C496.3,306.2,491.5,317.2,494.4,326.7z"/>
	<path d="M237.9,170.8c0,0.8,0,1.7,0,2.5c-1.5,2.2-3,4.4-4.4,6.5c0.6,3.4,2.7,4.6,5.6,5.2c9.9,2,19.6,5.1,30.1,2.6
		c3.2-0.8,7.7-2.2,10.6,1.9c0,0.8,0,1.5,0,2.3c-11.8,2.4-23.5,1.7-35.2-0.7c-6.6-1.4-12.5-3.7-16.6-9.7
		C229.8,176.2,233,172.7,237.9,170.8z"/>
	<path d="M119.5,282.6c1.9,0.7,3.2,1.9,3.7,3.9c-2.9,4.3-6.2,3-10,1.3s-7.4,0.1-11.6,3.1c5.2,0.8,7,3.7,6.3,8.1c0,1.6,0,3.2-0.1,4.7
		c-5.1-0.5-4.2-5.7-5.4-7.8c-4.1-2.4-7,0-9.9-0.4c-2.8-0.3-6-1.1-8.5-4.6c2-3.6,5.7-3.7,9.4-4.3c8.2-1.2,16.3-2.6,24.4-4
		C118.3,282.8,118.9,282.7,119.5,282.6z"/>
	<path d="M458.8,93.6c1,4.3-2.5,6.1-5.1,6.3c-11.4,0.9-21.5,9.6-33.9,5.2c-3.7-1.9-8.3-3.7-6-10c-3-3.2-8.8-3-10.6-8
		c0-0.7,0-1.3,0-2c5.2,2.3,10.7,4,13.4,6.2c3.9,4,1.3,7,3,9.7c4.9,2.4,11.2,3.1,15.4,0.7C442.5,97.4,451,96.8,458.8,93.6z"/>
	<path d="M116.9,245.6c-3.8-0.1-7.7-0.7-11.6,0.9c-3,5.8-4.3,11.4,0.9,16.8c-2.5,3.4-0.3,8.7-4.6,11.4c-4.2,0.8-6.7-2-5.6-5
		c2.9-8.3,0.9-17.7,5.6-25.8c2.6-2.9,7.4-1,9.5-4.5C114.4,240.9,115.7,243.2,116.9,245.6z"/>
	<path d="M562,193.7c-7.3,1.5-4-5.8-6.8-8.6c-9.4,0.6-18.5-1.8-27.9-3.3c-1.4-5.8,1.2-8.1,6.2-8.6c0.1,0.7,0.1,1.4-0.1,2
		c-0.5,6.3,6.8,2.1,7.2,5.9c8.8,0.8,15.9-2,23.4-6.9C565.1,181.9,556.9,187.2,562,193.7z"/>
	<path d="M428.1,576.8c-1.4-2-2-4-0.4-7c9-1.4,18.3-2.2,26.9,4.4c6.8-4.6,13.7-2.6,20.6-0.5c0.6,0,1.3,0,1.9,0
		c-0.5,2.8-3.3,4.4-5,3.5c-6.3-3.3-12-0.5-17.9,1.1C445.7,574.7,437.3,567.5,428.1,576.8z"/>
	<path d="M117.1,662.4c0-6.6,6.3-6.8,9.8-7.6c7.9-1.7,15.5-3.3,22.2-8.4c4.1-3.1,9.4-5.2,14.4-0.6c-0.2,1.1-0.4,2.3-1.9,2.3
		c-4,0.7-7.5,2.2-11.2,3.8C139.8,656.6,129.3,662.5,117.1,662.4z"/>
	<path d="M95.5,382.3c0.3-1.8,1-3.3,2.8-3.9c8.3,4.8,17.3,7.3,26.3,7.1c2.5,3-0.8,4.8-0.1,7.3c2.4,3,6.4,3.5,9.6,5.4
		c-3.7,5.8-8.3,0.7-11.5,1.4c-4.3-2.7-3.5-6.6-3.9-9C110.4,387.6,103,384.9,95.5,382.3z"/>
	<path d="M123.6,555.1c-0.2,3.2,4.6,2.9,4.2,5.9c0.5,4.4-2.2,6.5-5,8.8c-7.1,0.2-12.5-4.9-19-6.4c-0.3-0.8-0.5-1.5-0.8-2.3
		c-0.2-1.9-0.2-3.9,1.3-5.4c0.7-0.7,2-0.8,2.6-1.1c4.9,1,2.3,5.5,5.1,8.5c3,1.2,6.4,5.2,11.9,1.1c-2.1-4.2-8.8-3.7-9.2-9.8
		c2-3.4,6.3-0.3,9-2.2C123.6,553.2,123.6,554.2,123.6,555.1z"/>
	<path d="M347.3,91.7c-6.2-1.1-11.6,2.7-16.9,2.9c-4.1,1.6-3.4,5.4-5.1,7.8c-4.6,1.9-8.8,0.8-12.9-1.5c-1.5-0.8-3.1-1.5-4.6-2.3
		c0.9-2.5,2.8-3.5,2.8-3.5c5.8-0.9,5.8,3.3,8.5,4.1c4.2-0.9,4.6-5.9,8.3-7.9c5.4-1.5,11-4,17.2-4.3c3.3-0.2,5,1.2,4.8,4.7
		C348.7,91.8,348,91.8,347.3,91.7z"/>
	<path d="M498.6,473.5c0,0.8,0,1.6,0,2.4c0.1,10.8-2.7,20.7-8.5,27.8c-1.4,7.7,5.8,14.3-1.9,19.7c-2.6-5.2,0.6-11.7-4.5-15.8
		c4.4-6.3,4.6-13.3,9.7-17.5C495.4,484.5,490.8,477.1,498.6,473.5z"/>
	<path d="M307.7,98.7c1.5,0.8,3.1,1.5,4.6,2.3c0,1.5-0.4,4.2-1.6,3.5c-5.1-3-9.9,0.1-13,2.1c-4.9,3.2-10,3.5-14.2,4.2
		c-4.9,3-2.6,10-8.4,11.3c-0.6,0-1.2,0-1.8-0.1c0.2-2-0.3-3.8-1.7-6.1c6-0.6,5.8-7.3,10.7-10C290.9,105.7,299.3,102.1,307.7,98.7z"
		/>
	<path d="M276.3,649.3c0-5.3,5.6-8.7,4.2-13.9c6.1-2.5,10.3-1,13.8,4.2c4.9-4,11-4.5,15.9-7.7c1.1-0.1,2.2-0.2,3.2-0.3
		c0.9,1.3,1.7,2.6,0.4,5.1c-3.9,0.7-8.5,0.7-12.4,4.5c-4.9,4.8-10.6,1.6-15.2-2.5C281.7,641.5,282.7,648.9,276.3,649.3z"/>
	<path d="M321.8,624.9c0.3-3.4-0.6-6.9,1.1-11c8.1,0,16-2.2,22.7-7.8c2-1.7,4.6-3,7.4-0.9c-7.9,5.4-14.4,13.5-25.5,12.2
		c0.5,5,1.2,9.8-5.6,9.7C321.7,626.5,321.7,625.7,321.8,624.9z"/>
	<path d="M186.7,243.1c0.9,0,1.7,0,2.6-0.1c3.8,1.1,3.2,5.8,5.8,7.5c5.5,0.1,5.7-4.4,6.9-8c6.5-0.1,12.4-1.8,18.2,1.2
		c-3.8,2.9-8.3,1.1-12.9,2c-3.6,3.5-5.6,10.6-13,8.7C188.7,253.1,186.3,248.9,186.7,243.1z"/>
	<path d="M146.7,680.6c-1.8-2.1-3.6-4.2-5-5.8c-0.2-2.5,1.1-3.3,2.3-4.1c0.5,0.9,0.4,2.4,2.2,1.9c1-1.4,2.6-2.7,0.1-4l-0.1,0.3
		c4.4-1.8,4.4-7.3,8.7-10.2c2.3,4.2,0.4,7.5-1.4,10.7C151.2,673.1,147.8,676.3,146.7,680.6z"/>
	<path d="M549.1,251.1c3.6-8.3,5.5-17.5,14-22.5c1-4.8,0-9.7,3-13.6c1.1-0.1,2.3-0.1,3.4-0.2C568,229.9,560.6,241.6,549.1,251.1z"/>
	<path d="M506.9,122c-8.3-0.3-6.8-5.6-5.4-8.5c2.6-5.5,1.2-9.6-5-14.6c-1.9-1.6-7.9,1.6-10.7-2.2c4.3-2.8,9.1-2.2,14.1-1.3
		c4.5,2.7,5.8,7,9.3,10.6c1.1,5-6.5,10.9,1.7,15.6C509.5,121.8,508.2,121.9,506.9,122z"/>
	<path d="M109.9,655.1c-0.3,2.2-0.5,4.3-0.9,6.9c2.8,0.1,5.5,0.3,8.1,0.4c-2.4,3.9-7.1,4.2-10.4,6.9c-3.9,0.3-7.5-0.1-11-3
		C97.4,658.4,104.1,657.2,109.9,655.1z"/>
	<path d="M111.6,306.8c3.2-2,5.7,1.6,7.9,1.2c11.1-5.5,21.6-6.3,32.4-2.1c-0.1,1.1-0.3,2-1.6,2.2c-9.1,0-18.4-3.2-27.3,2.4
		C118.5,313.3,114.2,311.6,111.6,306.8z"/>
	<path d="M71.3,586.3c-0.7-2.9,1.7-5.5,3.2-4.9c6.1,2.7,12.8-3.2,17.8,1.8c5-1.6,9.4-3,13.5-4.4c3.3,1.8,5.1,3.9,2.9,7.5
		c-1-0.7-2.2-2.1-2.8-1.9C94.5,588.8,82.7,584.3,71.3,586.3z"/>
	<path d="M166.5,465.6c2,3.1,3.1,7.1,0.3,9.3c-4.1,3.1-3,8.5-7.7,12.2c-3.9-0.3-8,2.2-11.8,5.2c-0.7,0-1.4,0-2.1,0
		c-0.1-3.6,3.2-5,4.1-7.7c3.5-0.6,6.5-1.1,9.9-1.6C159.6,476.2,163.5,471.1,166.5,465.6z"/>
	<path d="M137.9,527c0.8,7.7-8.5,6.7-10.4,12.9c0.7,2.9,1.9,6.5,0.8,10.2c-0.6,2-2,1.7-3.3,0.5c0-1.9,0-3.8,0-5.6
		c-2.5-3.4-7.7-1.5-10.3-6.4C123.1,536.2,130.6,531.9,137.9,527z"/>
	<path d="M78.6,565.7c0.8,3.7-1.4,6.3-2.3,7.4c-3.5,3.9-7.2,2-9.7,4.3c-2.1,4.7-0.6,7.7,4.6,8.9c-1.6,3.6-4.5,3.7-8.3,2.7
		c-2.7-5-1.6-9.9,1.6-15.6C71.9,576.4,72,565.6,78.6,565.7z"/>
	<path d="M119.5,282.6c-0.6,0.1-1.2,0.1-1.7,0.2c-3.2-2.4-5.8-5.1-7.1-10.4c0.4-4.1,4-9.6,0.3-14.8c-3.8-0.3-1.9,4-4.3,4.7
		c-2.2-4.1-1.6-7.4,3.6-9.8c6.8,5.3,7.4,12.1,4.5,19.9C114.9,276.4,119.9,278.3,119.5,282.6z"/>
	<path d="M523.5,271c-3.6-5.3-0.7-11.1-1.6-16.4c6.6-7.4,14.1-9.2,22.3-5.4c0.3,0.1,0,1.4-0.1,2.1c-5.6,0.4-11.4-1-17.1,2.2
		C525.5,259.2,527.4,265.8,523.5,271z"/>
	<path d="M156.5,408.3c9.5,1.5,18.5-3.3,28-2.3c0.1,0.6,0.2,1.2,0.1,1.9c-7.1,2-14,5-21.7,4.3c-3.4-0.3-6.9,0.1-8.7-3.7
		C154.9,408.3,155.7,408.2,156.5,408.3z"/>
	<path d="M118.3,633.1c3.4-5.9,8.4-9.9,15.2-10.3c5.2-0.3,9.3,2.3,10.2,8.2c-2.8,1.4-4.7,0.9-6-1.6c-2.6-3.8-7.3-3-8.5-0.8
		C126.4,633.5,121.8,631.5,118.3,633.1z"/>
	<path d="M487,96.6c-6.4,4.3-12.2-0.9-18.2-1.5c-3.3-0.4-6.8-0.7-10.2-1.3c1.2-3.4,4.1-5.5,7-4C472.5,93.1,480.9,91.4,487,96.6z"/>
	<path d="M147.2,322.2c-8.3,5.3-17.1,6.1-26.4,3.5c7.7-3.6,16.3-3.6,24.3-5.8C146.5,320.1,147,321,147.2,322.2z"/>
	<path d="M540.5,170.8c0-4,0-8.1,0-11.6c-2.7-3.5-9.5-1.5-8.4-7.9c2.6,0.4,5.3,0.8,7.7,1.1c7.2,9.6,7.2,11.4,0.9,21.2
		C540.6,172.7,540.6,171.7,540.5,170.8z"/>
	<path d="M135.7,514.2c2.3-2,2.4-7,7.8-5c4.4,5.3-1.8,10.2-1.3,15.6c0.2,2.1-2.5,2.3-4.4,2.4C138.6,522.6,142.9,517.4,135.7,514.2z"
		/>
	<path d="M102.9,561.2c0.3,0.8,0.5,1.5,0.8,2.3c-1.2,3.1-3.9,4-6.5,3.1c-6.1-2-12.3-0.9-18.4-1.1c4.3-4.9,9.3-7.4,15.6-4
		C97.5,563.1,100.1,562.9,102.9,561.2z"/>
	<path d="M477.2,573.7c-0.6,0-1.3,0-1.9,0c1.6-5.7-3.6-8.7-5.3-13.1c-1.7-4.6-3.7-8.9,4.2-8.7c-2.9,6.5,1.3,10.4,5.8,14.1
		C478.9,568.8,478.1,571.3,477.2,573.7z"/>
	<path d="M255.3,245.4l-0.7-0.3c-4.8-3.1-10.6-5.3-8.1-15.2c2.8-6,8.4-3.3,11.2-8.2c0.7,8.4-4.3,9.2-8.9,11.8c2.7,2.1,4.7,3.6,6.6,5
		C255.3,240.7,255.3,243.1,255.3,245.4z"/>
	<path d="M134.3,397.9c-0.3-5.4,4-4.3,7.1-5.4c1.1,4.3,2.1,8.3,3.2,12.4c-1.3,1.6-2.5,3-3.8,4.5c-5.5-2.3-5.7-5.9-2.5-10
		C137.3,397.1,135.7,397.9,134.3,397.9z"/>
	<path d="M279.9,191.7c0-0.8,0-1.5,0-2.3c3.5,0.7,6-3.2,9.6-1.9c6.7,7.7,6.2,10-2.9,13.6c1-2,2-4,3-6
		C287.8,189.7,282.9,193.5,279.9,191.7z"/>
	<path d="M280.5,209.4c0.5,1,1,2,1.6,3.4c-3.1,4.3-8.4,4.6-11.4,6.9c-4.2,0.2-6-2-8-3.7c2.4-5.7,6.4-0.4,9.1-1.1
		C275,212.9,277.7,211.1,280.5,209.4z"/>
	<path d="M360.6,105.8c2.6,0.1,4,1.8,5,4.1c-0.8,2.7-1.5,5.6-4.7,7.4c-8.5-1.4-7-8.9-8.5-14.5c1.5,1,3,2,4.5,3l-0.4-0.2
		c0.5,2.6,0.9,5.2,3.6,6.5C362.2,110.1,360.9,107.9,360.6,105.8z"/>
	<path d="M569.6,214.8c-1.1,0.1-2.3,0.1-3.4,0.2c0.1-4.1-3.2-6.8-4.1-11.7c0.5-1.7,1.4-4.6,2.3-7.4c3.4,1.8,1.3,7.6,6.1,8.3
		c0.6,0.8,1.1,1.5,1.7,2.3C571.3,209.3,570.4,212.1,569.6,214.8z"/>
	<path d="M131.6,635.6c1.1,2.3,2.1,4.7,3.3,7.3c-5.3,4.9-11,2.7-16.4,2.1c1-1,2-2.9,3-2.9C126.4,642,128.7,638.5,131.6,635.6z"/>
	<path d="M232.6,670.2c5.6-0.9,5.6-5.8,6-9.9c3.5-0.2,6.1-0.3,8.6-0.5c0,0.8-0.1,1.5-0.1,2.3c-4.7,1.8-5,7.4-8.5,10.2
		C236.3,672.5,234.1,672.4,232.6,670.2z"/>
	<path d="M369.9,83.7c0.1,5.7-5.6,1.8-8,5.3c-0.9,3.5-0.9,8.6-4.8,12c-4-5.3,2-9.8,0.5-14.2C361.5,82.5,366.1,85.3,369.9,83.7z"/>
	<path class="st1" d="M127.7,507.7c-0.1,4.1,4.1,5.1,5.8,7.9c-4.8,6.1-9.5-0.6-15.2,1.5C119.8,510.4,124.9,510.3,127.7,507.7z"/>
	<path d="M247.2,662c0-0.8,0.1-1.5,0.1-2.3c3.6-3.5,8.2-2.9,12.6-3.1c-0.9,2.8-1.8,5.6-2.7,8.7C253.6,665.2,251.4,660.5,247.2,662z"
		/>
	<path d="M397.1,81.1c-7.8,1.1-13.2-4.8-20-6.7c3.7-3.3,7.8,0.6,11-1C392.1,75.6,394.8,78.2,397.1,81.1z"/>
	<path d="M253.5,241.9c-0.1,2.3-0.3,5.3-2.8,5.4c-9.8,0.4-19.7,1.4-29.4-0.6c-1.7-0.4-0.7-2.1-0.5-3.3
		C231.7,244.2,242.7,244.3,253.5,241.9z"/>
	<path d="M507.8,122c1-0.1,2-0.2,3-0.3c1.9,0,3.9-0.3,5.7,1.1c2.4,3-2.6,4.3-1.7,7.4c0.9,1.1,2.1,2.6,3.3,4
		c-5.8,3.2-8.9-0.8-7.4-4.9C512.4,124.6,508.6,124.4,507.8,122z"/>
	<path class="st1" d="M107.7,601.8c-5.4,4.3-11.4,2.1-17.2,1.3c1-3.2,3.6-3.2,6.2-3.3c3.7-0.1,7.3-0.2,11-0.3
		C107.5,600.2,107.5,601,107.7,601.8z"/>
	<path d="M198,677.5c-1.2-1.4-1.2-2.6,0.4-3.6c7.4-4.5,14.5-2.6,21.5,1.1c-4.5,5.9-8.1-2.1-12.4-1.1
		C204.4,675.1,201.2,676.3,198,677.5z"/>
	<path d="M170.5,685.5c0-0.8,0-1.6,0-2.4c6.5,0.4,12.6-4.2,19.3-1.6C184.3,687.4,177.5,686.7,170.5,685.5z"/>
	<path class="st2" d="M101.6,320.8c4.9-3.3,8.1-4.2,12.7-1.8C110.6,322.5,107.6,324.1,101.6,320.8z"/>
	<path d="M184.6,406.7c0.1-0.4,0.1-0.9-0.1-1.4c4.1-3.3,9.3-1,13.9-1.7c0,0.7,0.1,1.4,0.1,2.1C194.1,407.7,189.2,406.4,184.6,406.7z
		"/>
	<path d="M118.5,645c-0.9,5-1.8,10.1-8.6,10.2c0.4-2.5,0.8-5,1.1-7.1C113.4,646,115.9,645.4,118.5,645z"/>
	<path d="M220.7,674.7c-2.9-6.4,2.7-7.6,5.5-10.1c4.2,0.4,6.8,1.4,6.3,5.7C227,667.7,223.7,670.8,220.7,674.7z"/>
	<path d="M347.3,91.7c0.7,0,1.4,0,2.1,0.1c1,3.7,2.1,7.5,3.1,11.2c-2.9,0.5-5.1-0.2-5.1-3.7C347.3,96.8,347.3,94.3,347.3,91.7z"/>
	<path d="M321.8,624.9c0,0.8,0,1.5,0,2.3c-2.3,2.4-4.2,5.7-8.4,4.3c-1.1,0.1-2.2,0.2-3.2,0.3C311.1,624.8,317.5,626.7,321.8,624.9z"
		/>
	<path d="M109.2,586.6c1.8-1,3.5-1.4,5.4,1c-1,3.7,0.1,8.8-5.9,10.1C106.9,593.9,113.4,590.5,109.2,586.6z"/>
	<path d="M480.8,532.7c0-3.4,1.6-6.4,2.6-9.1c1.9-1.2,3.2-0.5,4.5,0.2C485.7,526.9,486.9,532.8,480.8,532.7z"/>
	<path d="M526.8,145.3c-6-0.9-7.7-5-7.9-10.4C524.1,136.3,524.7,141.4,526.8,145.3z"/>
	<path class="st3" d="M91.8,349.2c-2.8,3.3-5,3.2-7.1,0.7c0-0.8-0.2-1.8,0.2-2.2C87.5,344.9,89.9,344.7,91.8,349.2z"/>
	<path d="M262.4,216.7c0.7,6.8,0.2,7.3-8.2,7.7C255.7,220.6,260.4,220.1,262.4,216.7z"/>
	<path class="st1" d="M161.6,648.1c1.5,0,1.7-1.2,1.9-2.3c3.7,5.9,3.5,7.1-2.3,9.4C161.4,652.9,161.5,650.5,161.6,648.1z"/>
	<path d="M474.5,551.3c-2.9-3.6-0.9-6.8,0.8-10.1c0.9,0,1.9,0,2.8,0C477.4,544.8,477.1,548.5,474.5,551.3z"/>
	<path class="st3" d="M95,335.4c1.5-1.6,3.1-2.2,4.8-0.3C97.5,338.1,97.5,338.1,95,335.4z"/>
	<path class="st1" d="M156.5,408.3c-0.8,0-1.5,0-2.3,0.1c-1.6,0.2-3.2,0.4-4.8,0.6c0-1,0.1-2,0.1-3
		C153.4,402.1,155.7,402.8,156.5,408.3z"/>
	<path d="M505.7,373.4c-0.8,0.1-1.6,0.1-2.5,0.2c-3.2-2.4-3.4-4.8-0.1-7.2l1.1,0.1h1.1C505.6,368.8,505.6,371.1,505.7,373.4z"/>
	<path d="M540.5,170.8c0.1,1,0.1,1.9,0.2,2.9c-2,2.6-4.8,1-7.3,1.5c0.2-0.7,0.2-1.4,0.1-2C534.9,169.8,538.1,171.2,540.5,170.8z"/>
	<path class="st1" d="M147.2,322.2c-0.2-1.2-0.7-2.1-2.1-2.3c0.1-1.6,0.1-3.1,0.2-4.7h1l1-0.1C150.5,317.6,150.6,320,147.2,322.2z"
		/>
	<path d="M501.1,339c-11.3-0.1-9.8-8.5-9.3-16.3C497,326.8,498.9,333,501.1,339z"/>
	<path class="st1" d="M135.3,503.3c-0.9,4.4-3.3,6-7.6,4.4C129,504,132.6,504.4,135.3,503.3z"/>
	<path class="st1" d="M150.3,308.1c1.3-0.2,1.5-1.1,1.6-2.2c4,3.9,3.2,6.3-2.4,7c0-0.8,0-1.6,0-2.4
		C149.8,309.7,150,308.9,150.3,308.1z"/>
	<path d="M107.7,303.8c0-1.6,0-3.2,0.1-4.7c6.1,0.1,4.6,4,3.8,7.6C109.8,306.4,108.6,305.2,107.7,303.8z"/>
	<path d="M416,581.7c1.8-2.1,3.5-4.2,5.3-6.2c2.5,0,7.9-4.1,6.2,1.5C423.1,579.6,415.5,588.2,416,581.7z"/>
	<path d="M110.8,637.6c0.2-5.3,2.7-6.5,7.2-4.2C116.7,636.8,114.2,638.1,110.8,637.6z"/>
	<path class="st1" d="M140,498.7c0.5,3.9-1.1,5.5-5,4.8C135.7,500.9,137.4,499.4,140,498.7z"/>
	<path d="M141.6,409.9c2.3-1.6,4.4-1.5,6.5,0.4C145.8,413,143.7,412.3,141.6,409.9z"/>
	<path d="M374.4,79.3c1.3,4.5-0.2,6-4.6,4.5C371.3,82.3,372.8,80.8,374.4,79.3z"/>
	<path class="st1" d="M273.3,122.1c0.6,0.1,1.2,0.1,1.8,0.1c-0.2,6.2-4.1,4.6-7.6,3.7C268.2,122.7,271.8,124,273.3,122.1z"/>
	<path class="st1" d="M145.2,492.3c0.7,0,1.4,0,2.1,0c0.1,3.5-1.6,4.9-5.1,4.5C143.2,495.2,144.2,493.7,145.2,492.3z"/>
	<path d="M269.3,651.8c0.1-6.3,4-2.7,6.6-2.5C274.4,652,271.9,652,269.3,651.8z"/>
	<path d="M149.5,310.6c0,0.8,0,1.6,0,2.4c-1.3,0.3-2,1-2.2,2.3l-1,0.1h-1C143.4,310.8,146.5,310.7,149.5,310.6z"/>
	<path class="st1" d="M478.2,541.3c-0.9,0-1.9,0-2.8,0c0.6-2.4-1.8-6.5,3.5-6.4C479,537,479.3,539.2,478.2,541.3z"/>
	<path d="M121.1,247.4c1,0.1,2,0.2,3,0.3c-3.2,3.6-5.7,4.3-6.8-1.5C118.5,246.6,119.8,247,121.1,247.4z"/>
	<path d="M286.7,201c-0.5,2.4,2.1,6.5-3.4,6.2C284,204.8,283.7,202,286.7,201z"/>
	<path d="M104.8,640.2c-0.5-3.9,0.1-4.1,5.9-2.9C109.2,639.5,107.2,640.2,104.8,640.2z"/>
	<path d="M260.2,656.5c-0.6-6.2,3.9-2.5,6.2-3.2C265.1,655.9,262.7,656.3,260.2,656.5z"/>
	<path class="st3" d="M258.8,135.7c1.8-2,3.4-2.1,4.5,0.6C261.8,136.1,260.3,135.9,258.8,135.7z"/>
	<path d="M140,628c-3.1,6.6-6.1,17.4-9.7,10.1C133.6,633.1,136.7,628.9,140,628z"/>
	<path d="M403.2,85.1c0,0.7,0,1.3,0,2c-1.9-0.4-5.1,0.3-3-3.5C401.1,84.1,402.2,84.6,403.2,85.1z"/>
	<path d="M161.2,655.1c-0.9,2.8,1.7,8.6-7.6,4.6C155.2,657.5,157.5,655.8,161.2,655.1z"/>
	<path d="M376.4,74.7c1.1,2.4,2.1,4.7-2.1,4.6C374.5,77.6,374.8,75.8,376.4,74.7z"/>
	<path d="M508.9,285.8c8.8-23,11.7-16,16.1-16.7C519,277.6,513.7,283.2,508.9,285.8z"/>
	<path d="M505.5,366.5h-1.1l-1.1-0.1c0.1-2.4,0.5-4.5,3.5-4.6C506.6,363.4,506.8,365.2,505.5,366.5z"/>
	<path class="st2" d="M93.8,376c-0.1,1.8-0.2,3.6-0.3,5.3C89.6,379.3,91,377.6,93.8,376z"/>
	<path d="M189.7,681.7c0-3.8,2.4-3.1,4.7-2.4C193.3,681,191.5,681.3,189.7,681.7z"/>
	<path d="M537.1,152.9c-13.4,1.7-11.5-4-12.1-8.4C531.6,146.1,535.3,149,537.1,152.9z"/>
	<path class="st1" d="M142.5,496.6c-0.3,1.5-1.2,2.3-2.7,2.5C140.1,497.5,141.1,496.8,142.5,496.6z"/>
	<path d="M107.7,601.8c-0.1-0.8-0.1-1.5,0-2.3l0.6-0.7C109.9,600.1,109.1,601,107.7,601.8z"/>
	<path d="M266.7,126c0.1,0.6,0.2,1.2,0.3,1.8c-0.6-0.1-1.2-0.2-1.8-0.3C265.6,126.9,266.1,126.4,266.7,126z"/>
	<path d="M564.5,197.2c-3.6,0.3-5.2-1.2-5-4.4C562.3,193.2,564.1,194.5,564.5,197.2z"/>
	<path d="M572.1,206.5c-0.6-0.8-1.1-1.5-1.7-2.3c0.6-0.1,1.4-0.6,1.7-0.3C573.1,204.7,572.8,205.6,572.1,206.5z"/>
	<path d="M399.2,83.2c-2.1,1.2-2.4,0.3-1.8-1.6C397.9,82.1,398.6,82.7,399.2,83.2z"/>
	<path d="M283.4,207.3c0.6,2,0.1,2.7-2,1.8C282.1,208.5,282.8,207.9,283.4,207.3z"/>
	<path d="M420.4,581.5c0.2-1.8,0.6-3.3,2.9-1.9C422.4,580.2,421.4,580.9,420.4,581.5z"/>
	<path d="M266.2,653.4c0.1-1.9,1-2.6,2.8-1.8C268.5,652.9,267.5,653.3,266.2,653.4z"/>
	<path d="M541,249.3c3.5-1.8,7-1.9,10.5-0.4C548.1,252.9,544.6,252.8,541,249.3z"/>
	<path class="st2" d="M123.6,555.1c0-0.9,0-1.9,0-2.8l0.7-0.3C126,553.5,125.3,554.4,123.6,555.1z"/>
	<path d="M154.4,668.4c-0.1,1.3-0.4,2.5-2.6,2.7c0.8-1.1,1.6-2.2,2.4-3.3L154.4,668.4z"/>
	<path d="M167.7,464.2c1,0,1.9,0.1,2.9,0.1c-0.8,1.6-1.8,2.1-3.2,0.5L167.7,464.2z"/>
	<path d="M89.1,606.4c0-0.8,0-1.6,0-2.4c0.3-0.5,0.7-0.8,1.3-0.9C91.2,604.7,90.7,605.8,89.1,606.4z"/>
	<path d="M479.1,534.8c-1.2-2-0.3-2.5,1.7-2.2C480.2,533.4,479.7,534.1,479.1,534.8z"/>
	<path d="M149.5,406c0,1-0.1,2-0.1,3h-0.1C147.4,407.9,148,406.9,149.5,406z"/>
	<path d="M194.5,679.3c-0.3-1.9,0.2-2.9,2.2-1.5C195.9,678.3,195.2,678.8,194.5,679.3z"/>
	<path class="st4" d="M360.6,105.8c0.2,2.1,1.6,4.3-0.5,6.3c-2.8-1.3-3.1-3.9-3.6-6.5C358,104.2,359.3,105.4,360.6,105.8z"/>
	<path d="M251.9,241c0-1.7,0-3.3,0-5c2.6,0.9,2.8,3,2.2,5.1C253.6,242.5,252.6,242.1,251.9,241z"/>
	<path d="M511.3,348.2c-6.7,3-8.8-3.9-11.2-10C504.6,339.9,507.9,344.1,511.3,348.2z"/>
	<path d="M506.5,363.3l-0.9-0.6l-0.8-0.7c1.5-1.9,3-3.4,5.5-1.8C509.2,361.4,508.3,363,506.5,363.3z"/>
	<path d="M509.9,347.4c0.1,0,0.3,0,0.4,0c3,0.4,3.4,0.8,3.4,0.8l0.6,3.1v4.3l-0.6,3.5l-2.6,0.8l-0.8,0.1l-0.7,0.9l-2.5,0.7l5.6-4.3
		v-2.9c0,0-0.5-2.2-0.6-3.1c-0.1-0.9-0.7-1.9-0.7-1.9l-1.4-1.5L509.9,347.4z"/>
</g>
<g>
	<g>
		<path class="st5" d="M153.8,625.5c-0.4,0.7-0.5,1.6-0.3,2.4c0.1,0.5,0.3,0.7,0.5,1c0.3,0.3,0.5,0.6,0.9,0.8s0.8,0.3,1.3,0.3
			s0.9-0.1,1.3-0.3c1.2-0.9,2.5-1.9,3.7-2.8c0.3-0.2,0.5-0.4,0.7-0.6c0.2-0.2,0.4-0.5,0.4-0.9c0.2-0.6,0.1-1.4-0.3-1.9
			c-0.3-0.5-0.9-1-1.5-1.1c-0.2,0-0.4-0.1-0.7-0.1c-0.5,0-0.9,0.1-1.3,0.3c-1.2,0.9-2.5,1.9-3.7,2.8c0.8,0,1.7,0,2.5,0h-0.1
			c0.2,0.1,0.3,0.3,0.5,0.4l-0.1-0.1c0.1,0.2,0.3,0.3,0.4,0.5l-0.1-0.1c0.1,0.2,0.2,0.4,0.3,0.6v-0.1c0,0.2,0.1,0.4,0.1,0.7
			c0-0.1,0-0.1,0-0.2c0,0.2-0.1,0.4-0.1,0.7v-0.1c-0.1,0.2-0.2,0.4-0.3,0.6v-0.1c0.3-0.6,0.4-1.3,0.3-1.9c-0.2-0.6-0.6-1.2-1.1-1.5
			c-0.6-0.3-1.3-0.5-1.9-0.3C154.6,624.6,154.1,625,153.8,625.5L153.8,625.5z"/>
	</g>
</g>
<g>
	<g>
		<path class="st5" d="M152.8,633.1c2.1-0.7,4-1.9,5.8-3.2c2-1.5,3.9-3.1,5.8-4.6c-1.3-1-2.6-2-3.9-3c-0.1,0.1-0.1,0.2-0.2,0.3
			c0.2-0.3,0.2-0.3,0.1-0.1c-0.1,0.1-0.2,0.3-0.3,0.4c-0.3,0.3-0.5,0.6-0.8,0.9c-0.2,0.2-0.5,0.5-0.7,0.7c-0.2,0.1-0.3,0.3-0.5,0.4
			c-0.4,0.3,0.4-0.3,0,0c-0.6,0.4-1.2,0.8-1.8,1.2c-0.3,0.2-0.7,0.4-1,0.5c-0.1,0-0.2,0.1-0.2,0.1c-0.2,0.1-0.1,0,0.2-0.1
			c-0.1,0.1-0.5,0.2-0.6,0.2c-1.2,0.4-2,1.4-1.8,2.7c0.2,1.2,1.2,2.3,2.5,2.2c2.7-0.2,5.4-1.1,7.5-2.7c0.5-0.4,1-0.8,1.1-1.5
			c0.2-0.6,0.1-1.4-0.3-1.9c-0.7-1-2.3-1.7-3.4-0.9c-0.4,0.3-0.9,0.6-1.3,0.9c-0.2,0.1-0.5,0.3-0.7,0.4c-0.1,0.1-0.2,0.1-0.3,0.2
			c-0.3,0.1,0.6-0.2,0,0c-0.5,0.2-1,0.3-1.5,0.4c-0.3,0.1-0.5,0.1-0.8,0.2c-0.5,0.1,0.4,0,0,0c-0.1,0-0.3,0-0.4,0
			c0.2,1.6,0.4,3.3,0.7,4.9c3.7-1.4,6.7-3.7,9-6.8c0.3-0.5,0.4-1.4,0.3-1.9c-0.2-0.5-0.5-1-0.9-1.3c-1.1-0.8-2.3-0.6-3.3,0.2
			c-0.9,0.7-1.8,1.4-2.6,2.1c-0.4,0.3-0.9,0.7-1.3,1c-0.2,0.1-0.4,0.3-0.6,0.4c-0.1,0.1-0.2,0.1-0.3,0.2c0.1-0.1,0.1-0.1,0.2-0.2
			c-0.1,0.1-0.1,0.1-0.2,0.2c-0.8,0.6-1.6,1.1-2.4,1.6c-0.4,0.2-0.8,0.5-1.3,0.7c-0.1,0.1-0.2,0.1-0.3,0.2c-0.3,0.2,0.4-0.2,0.1,0
			c-0.3,0.1-0.5,0.2-0.8,0.3c-1.2,0.4-2.2,1.7-1.7,3.1C150.1,632.6,151.5,633.5,152.8,633.1L152.8,633.1z"/>
	</g>
</g>
</svg>
