<?xml version="1.0" encoding="utf-8"?>
<!-- Generator: Adobe Illustrator 25.3.1, SVG Export Plug-In . SVG Version: 6.00 Build 0)  -->
<svg version="1.1" id="Layer_1" xmlns="http://www.w3.org/2000/svg" xmlns:xlink="http://www.w3.org/1999/xlink" x="0px" y="0px"
	 viewBox="0 0 612 792" style="enable-background:new 0 0 612 792;" xml:space="preserve">
<style type="text/css">
	.st0{fill:#006838;}
	.st1{fill:#444441;}
	.st2{fill:#161615;}
	.st3{fill:#807D7D;}
	.st4{fill:#FCFCFC;}
</style>
<g>
	<path class="st0" d="M363.2,100c1.6-1.5,0.4-3.2,0.2-4.8c3.9-3.4,3.9-8.5,4.8-12c2.4-3.5,8,0.4,8-5.3l0.1,0.8l-0.2-0.8
		c4.4,1.4,6,0,4.6-4.5l0.6,0.6l-0.7-0.4c4.3,0.1,3.2-2.3,2.1-4.6l0.7-0.4c6.8,1.9,12.2,7.8,20,6.7l0.2,0.6c-0.6,1.9-0.3,2.8,1.8,1.6
		l0.4,0.5l0.6-0.1c-2.1,3.8,1.1,3.1,3,3.5c1.8,5,7.7,4.8,10.6,8c-2.3,6.2,2.4,8.1,6,10c12.4,4.4,22.5-4.3,33.9-5.2
		c2.7-0.2,6.1-2,5.1-6.3l-0.1,0.1c3.4,0.6,6.9,0.9,10.2,1.3c6,0.7,11.8,5.8,18.2,1.5c1.5,0,3,0.1,4.5,0.1c2.1,3.8,6.8,0.6,8.3,2.2
		c4.8,5,5.9,9.1,3.8,14.6c-1.1,2.9-2.3,8.2,4.1,8.5c0.8,2.4,4.6,2.7,2.9,7.3c-1.5,4.1,1.7,8.1,7.4,4.9l0,0.7l0.7,0.1
		c0.2,5.3,2,9.4,7.9,10.4c1.3,0.1,1.8,0.9,2,2.1c0.2,2.1-0.4,4.7,3.3,3.9c-0.2,0.2-0.4,0.4-0.7,0.6c0.2-0.2,0.5-0.3,0.7-0.5
		c-1.1,6.4,5.7,4.4,8.4,7.9c0,3.5,0,7.5,0,11.6c-2.4,0.5-5.5-1-7,2.4c-5.1,0.5-7.6,2.8-6.2,8.6c9.3,1.5,18.5,4,27.9,3.3
		c2.8,2.8-0.4,10.2,6.8,8.6l-0.2-0.1c-0.1,1.8,0.7,2.6,2.5,2.4l-0.4,0.5l0.4-0.6c-0.9,2.8-1.7,5.7-2.3,7.4c1,4.9,4.2,7.6,4.1,11.7
		c-3,3.9-2,8.8-3,13.6c-8.5,5-10.4,14.3-14,22.5l-1,0.3c-1.2-0.9-2.4-0.9-3.7-0.1c0,0-0.3,0-0.3,0c0-0.7,0.3-2,0.1-2.1
		c-8.2-3.8-15.7-2-22.3,5.4c0.9,5.2-2,11.1,1.6,16.4c-2.1,3.8-5.2,6.7-8.7,9.2c-1.8,0.4-4.9-0.3-2.9,3.4c-0.5-0.1-0.9,0.1-1.2,0.4
		c-3.6-1.1-7.1-2.2-10.5-3.3c-2.7,3.5-0.2,8.6-6.4,11c-3.8-2.9-8.7-3.2-12.6,1.8c2.1,5.8,4,11.5,8.6,15.8c0,5.8,0,11.1,0,15.8
		c1.9,1.7,3.4,1.6,4.9,1.6c2,0.7,2,2.3,1.7,4c-0.3,3.8-1.1,7.9,4.8,8c4.4,2.8,6.1,9,11.9,9c1.5,4.2,1.4,7.4,0.6,10.5
		c-1.8,2.8-5.4,1.1-7.1,3.6c-3.1,0.1-3.4,2.3-3.5,4.6c-3.3,2.4-3.2,4.9,0.1,7.2c-0.9,3.1,3.1,3.9,3.4,6.4c-2.4,3.5-4.6,7.1-7.9,9.7
		c0.3,14.5-3,29.5,6.8,41.3c0.1,5-3.7,8.3-1.9,12.2c5.2,11.3-0.3,20.7-5,30.3c-7.8,3.6-3.1,11-5.1,16.5c-5.2,4.2-5.4,11.2-9.7,17.5
		c5.2,4.1,1.9,10.6,4.5,15.8l-0.3,0.4c-1.3-0.7-2.7-1.4-4.5-0.2c-1,2.8-2.6,5.7-2.6,9.1l-0.6,0l0.6-0.1c-1.9-0.3-2.8,0.2-1.7,2.2
		l-0.3,0c-5.2-0.1-2.9,3.9-3.5,6.4c-1.7,3.3-3.7,6.5-0.8,10.1l-0.6,0l0.2,0.6c-7.9-0.3-5.9,4.1-4.2,8.7c1.7,4.4,7,7.4,5.3,13.1
		c-6.9-2-13.8-4-20.6,0.5c-8.7-6.6-17.9-5.8-26.9-4.4c-1.6,3-1,5.1,0.4,7c-0.5,0-0.9,0.3-1,0.8c-2.3-1.4-2.7,0.1-2.9,1.9l-0.6,0.3
		c-2.5-2-4.3,0.5-6.4,1c-12.8-0.5-25.6-0.9-38.4-0.2c-10.3,0.6-18.9,4.4-28,11.4c4.4,3.9,0,8.6,2.4,12.8l-0.4,0.4
		c-2.7-2.1-5.4-0.7-7.4,0.9c-6.7,5.6-14.5,7.7-22.7,7.8c-1.7,4.1-0.8,7.6-1.1,11c-4.2,1.7-10.6-0.1-11.6,7
		c-4.9,3.2-10.9,3.7-15.9,7.7c-3.4-5.2-7.7-6.7-13.8-4.2c1.4,5.2-4.2,8.5-4.2,13.9l-0.3,0c-2.6-0.2-6.5-3.8-6.6,2.5l-0.3-0.2
		c-1.8-0.8-2.7-0.1-2.8,1.8l0.2-0.2c-2.3,0.7-6.8-3-6.2,3.2l-0.5-0.2l0.3,0.5c-4.4,0.2-9-0.4-12.6,3.1c-2.6,0.1-5.1,0.3-8.6,0.5
		c-0.4,4.1-0.5,9-6,9.9l-0.2,0c0.6-4.2-2.1-5.2-6.3-5.7c-2.8,2.5-8.4,3.7-5.5,10.1l-0.7,0.4c-7-3.7-14.1-5.7-21.5-1.1
		c-1.6,1-1.7,2.2-0.4,3.6l-0.7-0.1l-0.6,0.4c-2-1.4-2.4-0.4-2.2,1.5l-0.1,0c-2.3-0.6-4.7-1.4-4.7,2.4l0.2-0.1
		c-6.7-2.7-12.8,2-19.3,1.6c0-3.5,0.1-6.9-3.8-8.7c-6.5,0.5-12,4.9-18.2,5.9c-2-3.2-1-5.9-1.1-8.4c0.2-0.6,0.7-0.8,1.3-0.7
		c1.9,0.2,3.7,0.3,5.5-2.4c-0.2-2.8-0.4-6.5-0.6-10.2c0.8-0.3,1.5-0.1,2,0.6c0.7,0.6,1.5,1.2,2.2,1.8c0.1-1.3-0.8-1.6-1.7-1.9
		c0.6-0.4,1.3-0.9,1.9-1.3c3.9,2.4,2.8-1,3.2-2.7l0.1,0.2c5.7-2.3,6-3.6,2.3-9.4c-5-4.6-10.3-2.5-14.4,0.6
		c-6.7,5.1-14.3,6.7-22.2,8.4c-3.5,0.8-9.8,1-9.8,7.6l0.1-0.1c-2.7-0.1-5.3-0.3-8.1-0.4c0.3-2.5,0.6-4.7,0.9-6.9l-0.1,0.1
		c6.8-0.1,7.7-5.1,8.6-10.2l0.3,0.9l-0.3-0.9c5.5,0.6,11.1,2.8,16.4-2.1c-1.2-2.6-2.2-4.9-3.3-7.3l0.6,0.1l0-0.6
		c4,1.5,3.1-1.6,3.3-3.6c0.2-1.2,1-1.8,2.2-2.1c1.3,2.6,3.2,3,6,1.6c-0.8-5.9-4.9-8.5-10.2-8.2c-6.8,0.4-11.8,4.4-15.2,10.3
		l-0.5-0.2l0.3,0.5c-4.6-2.4-7.1-1.1-7.2,4.2l-0.1-0.2c-5.8-1.3-6.3-1-5.9,2.9l-0.8,0l-0.5,0.6c-8.1-0.5-8.5-9-12.7-12.7
		c-5.3-1.8-9.4-1-12.6,2.7c-2.4-1.4-4.1-2.8-4.5-4.9c0.8-2.5,1.5-4.7,2.4-7.4c4.1-0.5,7.8-1.8,8.6-7.2c0.2-1.8,2.9-3.3,4.4-4.9
		c1.6-0.6,2.1-1.7,1.3-3.3l0.3,0.8l-0.2-0.9c5.8,0.8,11.7,2.9,17.2-1.3c1.5-0.8,2.2-1.7,0.6-3.1l0.6-0.4l-0.2-0.6
		c6.1-1.3,4.9-6.4,5.9-10.1c-1.9-2.4-3.6-2-5.4-1l-0.5-0.4c2.2-3.6,0.4-5.7-2.9-7.5c-4.2,1.4-8.5,2.8-13.5,4.4
		c-5-4.9-11.7,1-17.8-1.8c-1.5-0.7-3.9,2-3.2,4.9l-0.9-0.7l0.8,0.8c-5.1-1.2-6.7-4.2-4.6-8.9c2.5-2.3,6.2-0.4,9.7-4.3
		c0.9-1.1,3-3.7,2.3-7.4l0.2-0.2c6.1,0.2,12.3-0.9,18.4,1.1c2.5,0.8,5.3-0.1,6.5-3.1c6.6,1.5,12,6.6,19,6.4c2.9-2.3,5.6-4.5,5-8.8
		c0.4-3-4.4-2.7-4.2-5.9c1.7-0.7,2.5-1.6,0.7-3.1c0.7-0.2,0.9-0.7,0.6-1.3c1.3,1.2,2.8,1.4,3.3-0.5c1.1-3.7-0.1-7.3-0.8-10.2
		c1.9-6.2,11.3-5.2,10.4-12.9l0,0.1c1.9,0,4.6-0.3,4.4-2.4c-0.5-5.3,5.7-10.3,1.3-15.6c-5.4-2-5.5,3-7.8,5c-0.8,0.5-1.5,0.9-2.3,1.4
		c-1.7-2.8-5.9-3.8-5.8-7.9c0.9,0.8-0.2-0.2,0,0c4.3,1.6,6.7,0,7.6-4.4l-0.3,0.2c3.9,0.7,5.5-0.9,5-4.8l-0.2,0.3
		c1.5-0.1,2.5-0.9,2.7-2.5l-0.2,0.2c3.4,0.5,5.1-1,5.1-4.5c3.9-3,7.9-5.5,11.8-5.2c4.7-3.6,3.6-9,7.7-12.2c2.8-2.2,1.7-6.2-0.3-9.3
		c0.6,0,0.9-0.3,0.9-0.9c1.3,1.7,2.3,1.2,3.2-0.5c3.5-0.1,6-1.3,6.4-4.5c-0.5-4.6-6.2-4.1-6.4-7.6c0.8-11.2,8.4-17.7,13.7-24.6
		c5.1-1.8,8.2,2.5,13,1.3c3.6-5.7,12.7-3.6,17.1-10.5c0.5-4.1,0.6-8.7-0.2-13.4c-5.2-2.9-10-6.3-15.7-1.3c-4.6,1-9.9-2.2-13.9,2.3
		c-9.5-1-18.5,3.8-28,2.3c-0.8-5.5-3.1-6.1-6.9-2.2c-1.6,0.9-2.1,1.8-0.3,3c-0.6,0.2-1,0.6-1.1,1.2c-2.1-1.9-4.3-1.9-6.5-0.4
		l-0.2-0.6l-0.6,0c1.2-1.5,2.5-2.9,3.8-4.5c-1-4.1-2.1-8.1-3.2-12.4c-3.1,1.2-7.5,0.1-7.1,5.4l-0.2,0.3c-3.2-1.9-7.3-2.4-9.6-5.4
		c-0.7-2.5,2.6-4.3,0.1-7.3c-9,0.2-18-2.4-26.3-7.1c5.9-0.2,7.3-4.5,8.3-8.2c-0.6-5.1-4.1-5.8-7-6.9c3.7-10.5,15.4-7.1,22.1-12.6
		c-0.4-8.3-0.8-16.5-1.1-24.6l0.3-0.2c9.3,2.5,18.2,1.7,26.4-3.5c3.4-2.3,3.3-4.6,0.1-7c0.2-1.3,1-2,2.2-2.3c5.5-0.8,6.3-3.1,2.4-7
		c-10.8-4.2-21.3-3.4-32.4,2.1c-2.2,0.4-4.8-3.2-7.9-1.2l0.7-0.6l-0.7,0.5c0.8-3.6,2.4-7.5-3.8-7.6c0.8-4.5-1.1-7.4-6.3-8.1
		c4.2-3,7.8-4.8,11.6-3.1c3.8,1.7,7.1,3,10-1.3c-0.4-2-1.7-3.2-3.7-3.9c0.5-4.4-4.5-6.2-4.8-10.2c2.9-7.8,2.3-14.6-4.5-19.9
		c-5.2,2.5-5.8,5.7-3.6,9.8l-0.5,0.9c-5.2-5.4-4-11-0.9-16.8c4-1.6,7.8-1,11.6-0.9l0.3,0.7c1.1,5.8,3.7,5.1,6.8,1.5
		c7.4-0.1,3-6,3.6-9.9c15.5,6.2,31.3,0,46.1,4.6c1.6-1.1,3.2-2.2,4.8-3.3c2.8,1.2,4.6,4.4,8.2,3.9c-0.4,5.8,2,10,7.6,11.4
		c7.4,1.8,9.4-5.3,13-8.7c4.6-1,9.1,0.8,12.9-2l0,0.6l0.6-0.2c-0.2,1-1.1,2.5,0.4,2.8c8.6,1.6,17.3,0.8,26,0.5
		c2.1-0.1,2.4-2.6,2.5-4.5c0.5-0.7,1-1.4,1.5-2.1l0.7,0.2c0.7,1,1.7,1.4,2.1,0.1c0.6-2.1,0.4-4.2-2.2-5.1c-1.9-1-3.8-2-6.5-3.5
		c4.6-1.8,9.6-2.4,8.8-8.3l0,0.1c8.4-0.4,8.9-0.9,8.2-7.7l0.3-0.8c2,1.7,3.8,3.9,8,3.7c2.9-2.3,8.2-2.6,11.4-6.9
		c-0.6-1.3-1.1-2.4-1.6-3.4l1-0.2c2.1,1,2.6,0.3,2-1.8l-0.1-0.2c5.4,0.2,2.8-3.8,3.4-6.2l-0.1,0.1c9.1-3.5,9.6-5.9,2.9-13.6
		c-3.6-1.2-6.1,2.7-9.6,1.9c-2.9-4.1-7.4-2.7-10.6-1.9c-10.4,2.5-20.1-0.6-30.1-2.6c-2.9-0.6-5-1.8-5.6-5.2c1.4-2.1,2.9-4.3,4.4-6.5
		c2.5-0.8,5.1-2.3,7.6-2.2c9.7,0.5,15-4.2,16.5-12.9c2.6-2,6-0.3,7.4-2.3c3.9-8.4-4.1-15.9,0.5-23c-2.4-2.1-4.1-3.6-5.9-5.1
		c0.5,0.2,0.8,0.1,1.1-0.3c0.6,0.1,1.2,0.2,1.8,0.3c-0.1-0.6-0.2-1.2-0.3-1.8l0.8-0.2c3.6,0.9,7.5,2.5,7.6-3.7
		c5.8-1.3,3.5-8.3,8.4-11.3c4.3-0.7,9.4-1,14.2-4.2c3.1-2.1,7.9-5.1,13-2.1c1.2,0.7,1.6-2,1.6-3.5c4.1,2.3,8.3,3.4,12.9,1.5
		c1.7-2.5,1-6.3,5.1-7.8c5.3-0.2,10.7-4,16.9-2.9c0,2.5,0,5.1,0.1,7.6c0.1,3.5,2.2,4.1,5.1,3.7l-0.1-0.1c1.5,5.6,0,13.1,8.5,14.5
		c3.2-1.8,4-4.7,4.7-7.4c-1-2.3-2.4-4-5-4.1c-1.4-0.4-2.7-1.7-4.2-0.2L363.2,100z"/>
	<path d="M504.9,467.7c4.7-9.6,10.2-19,5-30.3c-1.8-3.9,2-7.2,1.9-12.2c-9.8-11.8-6.5-26.7-6.8-41.3c3.4-2.6,5.5-6.2,7.9-9.7
		c-0.2-2.5-4.2-3.2-3.4-6.4c0.8-0.1,1.6-0.1,2.5-0.2c2.1,1.5,4.3,3,7,4.8c-3,4.2-4.8,8.7-4.4,12.4c-1,4-4.5,3.2-5.9,6.3
		c2.3,7.7-2,16.8,2.8,25c4,6.6,5.6,13.3,2.1,20.2c4.5,13.1,0.6,27.6-8.7,33.8C504.9,469.2,504.9,468.5,504.9,467.7z"/>
	<path d="M204.8,397.8c5.7-5,10.5-1.6,15.7,1.3c0.9,4.8,0.7,9.3,0.2,13.4c-4.4,7-13.5,4.8-17.1,10.5c-4.8,1.2-8-3.1-13-1.3
		c-5.3,6.9-12.8,13.4-13.7,24.6c0.2,3.5,5.9,3,6.4,7.6c-0.4,3.2-3,4.4-6.4,4.5c-1,0-1.9-0.1-2.9-0.1c0.6-1.8,3.2-2.1,3-4.4
		c-1.8-3.3-5.6-1.8-8.8-3.3c6.1-11.7,11.9-23.2,19.8-34c4.4-1.1,8.5,1.8,13.5,2.5c2.8-5.2,8.5-5.2,13.2-5.9
		c3.9-4.1-3.7-8.2,1.7-11.5c-4.2-2.2-7.9-0.9-11.6-1.1C204.9,399.7,204.8,398.8,204.8,397.8z"/>
	<path d="M95.4,600.5c-1.5,1.6-4.1,3.1-4.4,4.9c-0.7,5.4-4.5,6.7-8.6,7.2c-0.9,2.7-1.6,4.9-2.4,7.4c0.4,2.2,2.1,3.5,4.5,4.9
		c3.2-3.7,7.3-4.5,12.6-2.7c4.2,3.7,4.6,12.1,12.7,12.7c-3.5,3.6-7.5,3.2-11.7,1.5c-2.7-3.5,0.6-9.8-5.6-11.7c-5.2-0.4-3,6.5-7.7,8
		c-5.1-5.1-9.4-10.8-12.4-17.2c2.2-7,8.2-5.2,12.7-6.6c-0.1-1.6-0.2-3.1-0.4-4.8c2.6-3.6,6.7-4.8,10.7-6.1
		C95.4,598.9,95.4,599.7,95.4,600.5z"/>
	<path d="M126.8,320.1c0.4,8.1,0.7,16.3,1.1,24.6c-6.7,5.5-18.4,2.1-22.1,12.6c2.9,1.2,6.5,1.9,7,6.9c-1,3.7-2.3,8.1-8.3,8.2
		c-1.8,0.7-2.5,2.2-2.8,3.9c-0.8-0.1-1.4-0.5-2-1c0.1-1.8,0.2-3.6,0.3-5.3c1.3-2.7,4.9-2.1,6.8-5.2c-2.4-4.3-7.9-5.6-12.8-10.6
		c10.2-4.4,19.2-9,29.2-11.2C123.7,334.6,118.6,326.2,126.8,320.1z"/>
	<path d="M193,237.3c-3.6,0.5-5.4-2.7-8.2-3.9c-1.6,1.1-3.2,2.2-4.8,3.3c-14.9-4.7-30.6,1.5-46.1-4.6c-0.7,3.9,3.8,9.8-3.6,9.9
		c-1-0.1-2-0.2-3-0.3c4.9-3.1-1.7-9,4.6-13.3c17.1,3.8,35.9,2.3,55.9,2.3c2.8,0.9,5.6,3.4,7.8,6.6
		C194.7,237.2,193.9,237.2,193,237.3z"/>
	<path d="M359.6,599c-2.5-4.2,2-8.9-2.4-12.8c9-6.9,17.7-10.7,28-11.4c12.8-0.8,25.6-0.3,38.4,0.2c0,1-0.1,2-0.1,3.1
		c-7-0.3-14.1,0.5-21.1,0.3c-6.6-0.2-14.1,1.7-21.3,1.4c-6.2-0.2-10.9,3.2-16,5.3c-0.9,2.4,1.5,3.4,1.9,6
		C364.6,593.5,362.1,596.2,359.6,599z"/>
	<path d="M270.4,122c1.7,1.5,3.4,3,5.9,5.1c-4.6,7.1,3.4,14.6-0.5,23c-1.4,2-4.7,0.2-7.4,2.3c-1.5,8.7-6.8,13.5-16.5,12.9
		c-2.5-0.1-5.1,1.4-7.6,2.2c0-0.8,0-1.7,0-2.5c4.2-5.8,10.9-4.6,16.1-5.4c4.6-3.2-0.4-8.2,3.1-10.8c2.5-3.5,6.9-0.6,10.3-3.5
		c-1.5-4.9-4-9.6-4-14.8c-1.2-2.7-2.7-2.6-4.5-0.6c-1.9,0-3.8,0.4-5.5-1.8C259.9,120.6,266.6,123.6,270.4,122z"/>
	<path d="M153.7,666c0.1,2.6-0.9,5.2,1.1,8.4c6.2-1,11.7-5.4,18.2-5.9c3.9,1.7,3.9,5.2,3.8,8.7c0,0.8,0,1.6,0,2.4
		c-4.1,0.3-3.9-4.3-6.1-5.6c-5.8-0.5-9.4,3.7-13.3,5.1c-4,0.9-5.3-2.2-7.5-3.3c-5.2,3.3-7.4,11.5-16.5,9.2
		c-2.1-7.9,4.6-9.8,9.1-11.8c4-1.8,8.1-2.4,8.8-7.6l-0.3,0.2C152,665.9,152.8,666,153.7,666z"/>
	<path d="M500.7,320.8c-1.5,0-3.1,0.1-4.9-1.6c0.1-4.7,0.2-10,0.3-15.8c-4.5-4.4-6.3-10.1-8.3-16c4-4.9,8.9-4.6,12.6-1.6
		c6.2-2.3,3.8-7.5,6.6-10.9c3.4,1.1,6.9,2.3,10.5,3.5c-1.7,2.1-4.3,0.6-7.1,1.9c-1.3,8.2-8.8,9.4-17,11.5
		C502.6,300.4,497.8,311.4,500.7,320.8z"/>
	<path d="M244.3,164.9c0,0.8,0,1.7,0,2.5c-1.5,2.2-3,4.4-4.4,6.5c0.6,3.4,2.7,4.6,5.6,5.2c9.9,2,19.6,5.1,30.1,2.6
		c3.2-0.8,7.7-2.2,10.6,1.9c0,0.8,0,1.5,0,2.3c-11.8,2.4-23.5,1.7-35.2-0.7c-6.6-1.4-12.5-3.7-16.6-9.7
		C236.1,170.3,239.3,166.8,244.3,164.9z"/>
	<path d="M125.8,276.8c1.9,0.7,3.2,1.9,3.7,3.9c-2.9,4.3-6.2,3-10,1.3c-3.8-1.7-7.4,0.1-11.6,3.1c5.2,0.8,7,3.7,6.3,8.1
		c0,1.6,0,3.2-0.1,4.7c-5.1-0.5-4.2-5.7-5.4-7.8c-4.1-2.4-7,0-9.9-0.4c-2.8-0.3-6-1.1-8.5-4.6c2-3.6,5.7-3.7,9.4-4.3
		c8.2-1.2,16.3-2.6,24.4-4C124.6,276.9,125.2,276.8,125.8,276.8z"/>
	<path d="M465.1,87.8c1,4.3-2.5,6.1-5.1,6.3c-11.4,0.9-21.5,9.6-33.9,5.2c-3.7-1.9-8.3-3.7-6-10c-3-3.2-8.8-3-10.6-8
		c0-0.7,0-1.3,0-2c5.2,2.3,10.7,4,13.4,6.2c3.9,4,1.3,7,3,9.7c4.9,2.4,11.2,3.1,15.4,0.7C448.9,91.6,457.3,90.9,465.1,87.8z"/>
	<path d="M123.2,239.7c-3.8-0.1-7.7-0.7-11.6,0.9c-3,5.8-4.3,11.4,0.9,16.8c-2.5,3.4-0.3,8.7-4.6,11.4c-4.2,0.8-6.7-2-5.6-5
		c2.9-8.3,0.9-17.7,5.6-25.8c2.6-2.9,7.4-1,9.5-4.5C120.7,235,122,237.3,123.2,239.7z"/>
	<path d="M568.3,187.8c-7.3,1.5-4-5.8-6.8-8.6c-9.4,0.6-18.5-1.8-27.9-3.3c-1.4-5.8,1.2-8.1,6.2-8.6c0.1,0.7,0.1,1.4-0.1,2
		c-0.5,6.3,6.8,2.1,7.2,5.9c8.8,0.8,15.9-2,23.4-6.9C571.4,176,563.2,181.4,568.3,187.8z"/>
	<path d="M434.4,571c-1.4-2-2-4-0.4-7c9-1.4,18.3-2.2,26.9,4.4c6.8-4.6,13.7-2.6,20.6-0.5c0.6,0,1.3,0,1.9,0c-0.5,2.8-3.3,4.4-5,3.5
		c-6.3-3.3-12-0.5-17.9,1.1C452,568.8,443.6,561.7,434.4,571z"/>
	<path d="M123.4,656.6c0-6.6,6.3-6.8,9.8-7.6c7.9-1.7,15.5-3.3,22.2-8.4c4.1-3.1,9.4-5.2,14.4-0.6c-0.2,1.1-0.4,2.3-1.9,2.3
		c-4,0.7-7.5,2.2-11.2,3.8C146.1,650.7,135.6,656.7,123.4,656.6z"/>
	<path d="M101.8,376.4c0.3-1.8,1-3.3,2.8-3.9c8.3,4.8,17.3,7.3,26.3,7.1c2.5,3-0.8,4.8-0.1,7.3c2.4,3,6.4,3.5,9.6,5.4
		c-3.7,5.8-8.3,0.7-11.5,1.4c-4.3-2.7-3.5-6.6-3.9-9C116.7,381.7,109.3,379.1,101.8,376.4z"/>
	<path d="M129.9,549.2c-0.2,3.2,4.6,2.9,4.2,5.9c0.5,4.4-2.2,6.5-5,8.8c-7.1,0.2-12.5-4.9-19-6.4c-0.3-0.8-0.5-1.5-0.8-2.3
		c-0.2-1.9-0.2-3.9,1.3-5.4c0.7-0.7,2-0.8,2.6-1.1c4.9,1,2.3,5.5,5.1,8.5c3,1.2,6.4,5.2,11.9,1.1c-2.1-4.2-8.8-3.7-9.2-9.8
		c2-3.4,6.3-0.3,9-2.2C129.9,547.4,129.9,548.3,129.9,549.2z"/>
	<path d="M353.6,85.9c-6.2-1.1-11.6,2.7-16.9,2.9c-4.1,1.6-3.4,5.4-5.1,7.8c-4.6,1.9-8.8,0.8-12.9-1.5c-1.5-0.8-3.1-1.5-4.6-2.3
		c0.9-2.5,2.8-3.5,2.8-3.5c5.8-0.9,5.8,3.3,8.5,4.1c4.2-0.9,4.6-5.9,8.3-7.9c5.4-1.5,11-4,17.2-4.3c3.3-0.2,5,1.2,4.8,4.7
		C355,85.9,354.3,85.9,353.6,85.9z"/>
	<path d="M504.9,467.7c0,0.8,0,1.6,0,2.4c0.1,10.8-2.7,20.7-8.5,27.8c-1.4,7.7,5.8,14.3-1.9,19.7c-2.6-5.2,0.6-11.7-4.5-15.8
		c4.4-6.3,4.6-13.3,9.7-17.5C501.7,478.6,497.1,471.3,504.9,467.7z"/>
	<path d="M314,92.8c1.5,0.8,3.1,1.5,4.6,2.3c0,1.5-0.4,4.2-1.6,3.5c-5.1-3-9.9,0.1-13,2.1c-4.9,3.2-10,3.5-14.2,4.2
		c-4.9,3-2.6,10-8.4,11.3c-0.6,0-1.2,0-1.8-0.1c0.2-2-0.3-3.8-1.7-6.1c6-0.6,5.8-7.3,10.7-10C297.2,99.9,305.6,96.3,314,92.8z"/>
	<path d="M282.6,643.4c0-5.3,5.6-8.7,4.2-13.9c6.1-2.5,10.3-1,13.8,4.2c4.9-4,11-4.5,15.9-7.7c1.1-0.1,2.2-0.2,3.2-0.3
		c0.9,1.3,1.7,2.6,0.4,5.1c-3.9,0.7-8.5,0.7-12.4,4.5c-4.9,4.8-10.6,1.6-15.2-2.5C288.1,635.6,289,643,282.6,643.4z"/>
	<path d="M328.1,619.1c0.3-3.4-0.6-6.9,1.1-11c8.1,0,16-2.2,22.7-7.8c2-1.7,4.6-3,7.4-0.9c-7.9,5.4-14.4,13.5-25.5,12.2
		c0.5,5,1.2,9.8-5.6,9.7C328,620.6,328,619.9,328.1,619.1z"/>
	<path d="M193,237.3c0.9,0,1.7,0,2.6-0.1c3.8,1.1,3.2,5.8,5.8,7.5c5.5,0.1,5.7-4.4,6.9-8c6.5-0.1,12.4-1.8,18.2,1.2
		c-3.8,2.9-8.3,1.1-12.9,2c-3.6,3.5-5.6,10.6-13,8.7C195,247.3,192.6,243,193,237.3z"/>
	<path d="M159.9,652.8c0.2,3.7,0.4,7.3,0.6,10.2c-1.8,2.8-3.6,2.6-5.5,2.4c0.2-1.3,1.4-2.8-0.7-3.7c-2,0.6-4.7,0.8-3.2,4.2l0.3-0.2
		c-5.8-1.6-10.1,4.1-16.6,3.8c1-6.3,5.3-8.2,9.7-10.1C149.6,657,155.4,656.5,159.9,652.8z"/>
	<path d="M555.4,245.3c3.6-8.3,5.5-17.5,14-22.5c1-4.8,0-9.7,3-13.6c1.1-0.1,2.3-0.1,3.4-0.2C574.3,224,566.9,235.8,555.4,245.3z"/>
	<path d="M513.2,116.1c-8.3-0.3-6.8-5.6-5.4-8.5c2.6-5.5,1.2-9.6-5-14.6c-1.9-1.6-7.9,1.6-10.7-2.2c4.3-2.8,9.1-2.2,14.1-1.3
		c4.5,2.7,5.8,7,9.3,10.6c1.1,5-6.5,10.9,1.7,15.6C515.9,115.9,514.5,116,513.2,116.1z"/>
	<path d="M116.2,649.2c-0.3,2.2-0.5,4.3-0.9,6.9c2.8,0.1,5.5,0.3,8.1,0.4c-2.4,3.9-7.1,4.2-10.4,6.9c-3.9,0.3-7.5-0.1-11-3
		C103.7,652.5,110.4,651.4,116.2,649.2z"/>
	<path d="M117.9,300.9c3.2-2,5.7,1.6,7.9,1.2c11.1-5.5,21.6-6.3,32.4-2.1c-0.1,1.1-0.3,2-1.6,2.2c-9.1,0-18.4-3.2-27.3,2.4
		C124.8,307.5,120.6,305.7,117.9,300.9z"/>
	<path d="M77.6,580.4c-0.7-2.9,1.7-5.5,3.2-4.9c6.1,2.7,12.8-3.2,17.8,1.8c5-1.6,9.4-3,13.5-4.4c3.3,1.8,5.1,3.9,2.9,7.5
		c-1-0.7-2.2-2.1-2.8-1.9C100.9,583,89,578.4,77.6,580.4z"/>
	<path d="M172.8,459.8c2,3.1,3.1,7.1,0.3,9.3c-4.1,3.1-3,8.5-7.7,12.2c-3.9-0.3-8,2.2-11.8,5.2c-0.7,0-1.4,0-2.1,0
		c-0.1-3.6,3.2-5,4.1-7.7c3.5-0.6,6.5-1.1,9.9-1.6C166,470.3,169.8,465.2,172.8,459.8z"/>
	<path d="M144.2,521.2c0.8,7.7-8.5,6.7-10.4,12.9c0.7,2.9,1.9,6.5,0.8,10.2c-0.6,2-2,1.7-3.3,0.5c0-1.9,0-3.8,0-5.6
		c-2.5-3.4-7.7-1.5-10.3-6.4C129.4,530.3,137,526,144.2,521.2z"/>
	<path d="M84.9,559.8c0.8,3.7-1.4,6.3-2.3,7.4c-3.5,3.9-7.2,2-9.7,4.3c-2.1,4.7-0.6,7.7,4.6,8.9c-1.6,3.6-4.5,3.7-8.3,2.7
		c-2.7-5-1.6-9.9,1.6-15.6C78.2,570.5,78.4,559.8,84.9,559.8z"/>
	<path d="M125.8,276.8c-0.6,0.1-1.2,0.1-1.7,0.2c-3.2-2.4-5.8-5.1-7.1-10.4c0.4-4.1,4-9.6,0.3-14.8c-3.8-0.3-1.9,4-4.3,4.7
		c-2.2-4.1-1.6-7.4,3.6-9.8c6.8,5.3,7.4,12.1,4.5,19.9C121.2,270.6,126.2,272.4,125.8,276.8z"/>
	<path d="M529.8,265.2c-3.6-5.3-0.7-11.1-1.6-16.4c6.6-7.4,14.1-9.2,22.3-5.4c0.3,0.1,0,1.4-0.1,2.1c-5.6,0.4-11.4-1-17.1,2.2
		C531.9,253.4,533.7,259.9,529.8,265.2z"/>
	<path d="M162.8,402.4c9.5,1.5,18.5-3.3,28-2.3c0.1,0.6,0.2,1.2,0.1,1.9c-7.1,2-14,5-21.7,4.3c-3.4-0.3-6.9,0.1-8.7-3.7
		C161.3,402.4,162,402.4,162.8,402.4z"/>
	<path d="M124.6,627.3c3.4-5.9,8.4-9.9,15.2-10.3c5.2-0.3,9.3,2.3,10.2,8.2c-2.8,1.4-4.7,0.9-6-1.6c-2.6-3.8-7.3-3-8.5-0.8
		C132.7,627.7,128.1,625.7,124.6,627.3z"/>
	<path d="M493.3,90.7c-6.4,4.3-12.2-0.9-18.2-1.5c-3.3-0.4-6.8-0.7-10.2-1.3c1.2-3.4,4.1-5.5,7-4C478.8,87.3,487.2,85.6,493.3,90.7z
		"/>
	<path d="M153.5,316.4c-8.3,5.3-17.1,6.1-26.4,3.5c7.7-3.6,16.3-3.6,24.3-5.8C152.8,314.2,153.3,315.2,153.5,316.4z"/>
	<path d="M546.8,164.9c0-4,0-8.1,0-11.6c-2.7-3.5-9.5-1.5-8.4-7.9c2.6,0.4,5.3,0.8,7.7,1.1c7.2,9.6,7.2,11.4,0.9,21.2
		C546.9,166.8,546.9,165.9,546.8,164.9z"/>
	<path d="M142,508.3c2.3-2,2.4-7,7.8-5c4.4,5.3-1.8,10.2-1.3,15.6c0.2,2.1-2.5,2.3-4.4,2.4C144.9,516.7,149.2,511.6,142,508.3z"/>
	<path d="M109.2,555.3c0.3,0.8,0.5,1.5,0.8,2.3c-1.2,3.1-3.9,4-6.5,3.1c-6.1-2-12.3-0.9-18.4-1.1c4.3-4.9,9.3-7.4,15.6-4
		C103.8,557.3,106.5,557,109.2,555.3z"/>
	<path d="M483.5,567.8c-0.6,0-1.3,0-1.9,0c1.6-5.7-3.6-8.7-5.3-13.1c-1.7-4.6-3.7-8.9,4.2-8.7c-2.9,6.5,1.3,10.4,5.8,14.1
		C485.3,563,484.4,565.4,483.5,567.8z"/>
	<path class="st1" d="M258.2,235.2l-0.7-0.2c-4.7-2.2-10.4-3.7-8-10.7c2.8-4.2,8.3-2.3,11-5.8c0.7,5.9-4.2,6.5-8.8,8.3
		c2.7,1.5,4.6,2.5,6.5,3.5C258.2,231.9,258.2,233.5,258.2,235.2z"/>
	<path d="M140.6,392c-0.3-5.4,4-4.3,7.1-5.4c1.1,4.3,2.1,8.3,3.2,12.4c-1.3,1.6-2.5,3-3.8,4.5c-5.5-2.3-5.7-5.9-2.5-10
		C143.6,391.3,142,392.1,140.6,392z"/>
	<path d="M286.2,185.8c0-0.8,0-1.5,0-2.3c3.5,0.7,6-3.2,9.6-1.9c6.7,7.7,6.2,10-2.9,13.6c1-2,2-4,3-6
		C294.1,183.8,289.2,187.7,286.2,185.8z"/>
	<path d="M286.8,203.5c0.5,1,1,2,1.6,3.4c-3.1,4.3-8.4,4.6-11.4,6.9c-4.2,0.2-6-2-8-3.7c2.4-5.7,6.4-0.4,9.1-1.1
		C281.3,207,284.1,205.3,286.8,203.5z"/>
	<path d="M366.9,100c2.6,0.1,4,1.8,5,4.1c-0.8,2.7-1.5,5.6-4.7,7.4c-8.5-1.4-7-8.9-8.5-14.5c1.5,1,3,2,4.5,3l-0.4-0.2
		c0.5,2.6,0.9,5.2,3.6,6.5C368.6,104.3,367.2,102.1,366.9,100z"/>
	<path d="M575.9,209c-1.1,0.1-2.3,0.1-3.4,0.2c0.1-4.1-3.2-6.8-4.1-11.7c0.5-1.7,1.4-4.6,2.3-7.4c3.4,1.8,1.3,7.6,6.1,8.3
		c0.6,0.8,1.1,1.5,1.7,2.3C577.6,203.4,576.7,206.2,575.9,209z"/>
	<path d="M138,629.8c1.1,2.3,2.1,4.7,3.3,7.3c-5.3,4.9-11,2.7-16.4,2.1c1-1,2-2.9,3-2.9C132.7,636.2,135,632.6,138,629.8z"/>
	<path d="M238.9,664.3c5.6-0.9,5.6-5.8,6-9.9c3.5-0.2,6.1-0.3,8.6-0.5c0,0.8-0.1,1.5-0.1,2.3c-4.7,1.8-5,7.4-8.5,10.2
		C242.6,666.7,240.4,666.6,238.9,664.3z"/>
	<path d="M376.2,77.9c0.1,5.7-5.6,1.8-8,5.3c-0.9,3.5-0.9,8.6-4.8,12c-4-5.3,2-9.8,0.5-14.2C367.8,76.7,372.5,79.5,376.2,77.9z"/>
	<path class="st2" d="M134,501.8c-0.1,4.1,4.1,5.1,5.8,7.9c-4.8,6.1-9.5-0.6-15.2,1.5C126.1,504.5,131.3,504.5,134,501.8z"/>
	<path d="M253.5,656.2c0-0.8,0.1-1.5,0.1-2.3c3.6-3.5,8.2-2.9,12.6-3.1c-0.9,2.8-1.8,5.6-2.7,8.7C260,659.3,257.7,654.7,253.5,656.2
		z"/>
	<path d="M403.4,75.2c-7.8,1.1-13.2-4.8-20-6.7c3.7-3.3,7.8,0.6,11-1C398.4,69.7,401.1,72.3,403.4,75.2z"/>
	<path d="M256,237.1c-0.1,1.9-0.3,4.4-2.5,4.5c-8.7,0.3-17.4,1.2-26-0.5c-1.5-0.3-0.6-1.8-0.4-2.8
		C236.7,238.9,246.4,239.1,256,237.1z"/>
	<path d="M514.1,116.1c1-0.1,2-0.2,3-0.3c1.9,0,3.9-0.3,5.7,1.1c2.4,3-2.6,4.3-1.7,7.4c0.9,1.1,2.1,2.6,3.3,4
		c-5.8,3.2-8.9-0.8-7.4-4.9C518.7,118.8,515,118.5,514.1,116.1z"/>
	<path class="st2" d="M114,595.9c-5.4,4.3-11.4,2.1-17.2,1.3c1-3.2,3.6-3.2,6.2-3.3c3.7-0.1,7.3-0.2,11-0.3
		C113.8,594.4,113.8,595.1,114,595.9z"/>
	<path d="M204.4,671.6c-1.2-1.4-1.2-2.6,0.4-3.6c7.4-4.5,14.5-2.6,21.5,1.1c-4.5,5.9-8.1-2.1-12.4-1.1
		C210.7,669.3,207.5,670.5,204.4,671.6z"/>
	<path d="M176.8,679.6c0-0.8,0-1.6,0-2.4c6.5,0.4,12.6-4.2,19.3-1.6C190.6,681.5,183.8,680.8,176.8,679.6z"/>
	<path class="st1" d="M107.9,315c4.9-3.3,8.1-4.2,12.7-1.8C116.9,316.6,113.9,318.3,107.9,315z"/>
	<path class="st2" d="M190.9,402c0.1-0.6,0.1-1.2-0.1-1.9c4.1-4.4,9.3-1.3,13.9-2.3c0,0.9,0.1,1.9,0.1,2.8
		C200.5,403.3,195.6,401.5,190.9,402z"/>
	<path d="M124.8,639.1c-0.9,5-1.8,10.1-8.6,10.2c0.4-2.5,0.8-5,1.1-7.1C119.7,640.1,122.2,639.6,124.8,639.1z"/>
	<path d="M227,668.8c-2.9-6.4,2.7-7.6,5.5-10.1c4.2,0.4,6.8,1.4,6.3,5.7C233.3,661.9,230,664.9,227,668.8z"/>
	<path d="M353.6,85.9c0.7,0,1.4,0,2.1,0.1c1,3.7,2.1,7.5,3.1,11.2c-2.9,0.5-5.1-0.2-5.1-3.7C353.6,91,353.6,88.4,353.6,85.9z"/>
	<path d="M328.1,619.1c0,0.8,0,1.5,0,2.3c-2.3,2.4-4.2,5.7-8.4,4.3c-1.1,0.1-2.2,0.2-3.2,0.3C317.4,619,323.8,620.8,328.1,619.1z"/>
	<path d="M115.5,580.8c1.8-1,3.5-1.4,5.4,1c-1,3.7,0.1,8.8-5.9,10.1C113.2,588.1,119.7,584.7,115.5,580.8z"/>
	<path d="M487.1,526.9c0-3.4,1.6-6.4,2.6-9.1c1.9-1.2,3.2-0.5,4.5,0.2C492,521,493.2,526.9,487.1,526.9z"/>
	<path d="M533.1,139.4c-6-0.9-7.7-5-7.9-10.4C530.5,130.5,531,135.6,533.1,139.4z"/>
	<path class="st3" d="M98.1,343.3c-2.8,3.3-5,3.2-7.1,0.7c0-0.8-0.2-1.8,0.2-2.2C93.8,339.1,96.2,338.9,98.1,343.3z"/>
	<path d="M268.7,210.9c0.7,6.8,0.2,7.3-8.2,7.7C262,214.7,266.7,214.3,268.7,210.9z"/>
	<path class="st2" d="M167.9,642.3c1.5,0,1.7-1.2,1.9-2.3c3.7,5.9,3.5,7.1-2.3,9.4C167.7,647,167.8,644.7,167.9,642.3z"/>
	<path d="M480.9,545.5c-2.9-3.6-0.9-6.8,0.8-10.1c0.9,0,1.9,0,2.8,0C483.7,538.9,483.4,542.6,480.9,545.5z"/>
	<path class="st3" d="M101.3,329.5c1.5-1.6,3.1-2.2,4.8-0.3C103.8,332.3,103.8,332.3,101.3,329.5z"/>
	<path class="st2" d="M162.8,402.4c-0.8,0-1.5,0-2.3,0.1c-1.6,0.2-3.2,0.4-4.8,0.6c0-1,0.1-2,0.1-3
		C159.7,396.3,162,396.9,162.8,402.4z"/>
	<path d="M512,367.6c-0.8,0.1-1.6,0.1-2.5,0.2c-3.2-2.4-3.4-4.8-0.1-7.2l1.1,0.1l1.1,0C511.9,363,512,365.3,512,367.6z"/>
	<path d="M546.8,164.9c0.1,1,0.1,1.9,0.2,2.9c-2,2.6-4.8,1-7.3,1.5c0.2-0.7,0.2-1.4,0.1-2C541.3,163.9,544.4,165.4,546.8,164.9z"/>
	<path class="st2" d="M153.5,316.4c-0.2-1.2-0.7-2.1-2.1-2.3c0.1-1.6,0.1-3.1,0.2-4.7l1,0l1-0.1
		C156.8,311.8,156.9,314.1,153.5,316.4z"/>
	<path d="M507.4,333.2c-11.3-0.1-9.8-8.5-9.3-16.3C503.3,321,505.2,327.1,507.4,333.2z"/>
	<path class="st2" d="M141.6,497.4c-0.9,4.4-3.3,6-7.6,4.4C135.3,498.2,138.9,498.5,141.6,497.4z"/>
	<path class="st2" d="M156.6,302.2c1.3-0.2,1.5-1.1,1.6-2.2c4,3.9,3.2,6.3-2.4,7c0-0.8,0-1.6,0-2.4
		C156.1,303.9,156.3,303.1,156.6,302.2z"/>
	<path d="M114,298c0-1.6,0-3.2,0.1-4.7c6.1,0.1,4.6,4,3.8,7.6C116.1,300.5,114.9,299.4,114,298z"/>
	<path d="M422.3,575.8c1.8-2.1,3.5-4.2,5.3-6.2c2.5,0,7.9-4.1,6.2,1.5C429.4,573.7,421.8,582.4,422.3,575.8z"/>
	<path d="M117.1,631.7c0.2-5.3,2.7-6.5,7.2-4.2C123,631,120.6,632.2,117.1,631.7z"/>
	<path class="st2" d="M146.3,492.9c0.5,3.9-1.1,5.5-5,4.8C142,495.1,143.7,493.5,146.3,492.9z"/>
	<path d="M148,404c2.3-1.6,4.4-1.5,6.5,0.4C152.1,407.1,150,406.4,148,404z"/>
	<path d="M380.7,73.4c1.3,4.5-0.2,6-4.6,4.5C377.6,76.4,379.2,74.9,380.7,73.4z"/>
	<path class="st2" d="M279.6,116.2c0.6,0.1,1.2,0.1,1.8,0.1c-0.2,6.2-4.1,4.6-7.6,3.7C274.5,116.8,278.1,118.2,279.6,116.2z"/>
	<path class="st2" d="M151.5,486.4c0.7,0,1.4,0,2.1,0c0.1,3.5-1.6,4.9-5.1,4.5C149.5,489.4,150.5,487.9,151.5,486.4z"/>
	<path d="M275.6,645.9c0.1-6.3,4-2.7,6.6-2.5C280.7,646.2,278.2,646.2,275.6,645.9z"/>
	<path d="M155.9,304.7c0,0.8,0,1.6,0,2.4c-1.3,0.3-2,1-2.2,2.3l-1,0.1l-1,0C149.7,304.9,152.8,304.8,155.9,304.7z"/>
	<path class="st2" d="M484.5,535.4c-0.9,0-1.9,0-2.8,0c0.6-2.4-1.8-6.5,3.5-6.4C485.3,531.2,485.6,533.4,484.5,535.4z"/>
	<path d="M127.4,241.6c1,0.1,2,0.2,3,0.3c-3.2,3.6-5.7,4.3-6.8-1.5C124.8,240.8,126.1,241.2,127.4,241.6z"/>
	<path d="M293.1,195.1c-0.5,2.4,2.1,6.5-3.4,6.2C290.3,199,290,196.2,293.1,195.1z"/>
	<path d="M111.1,634.4c-0.5-3.9,0.1-4.1,5.9-2.9C115.5,633.6,113.5,634.3,111.1,634.4z"/>
	<path d="M266.5,650.6c-0.6-6.2,3.9-2.5,6.2-3.2C271.4,650,269,650.5,266.5,650.6z"/>
	<path class="st3" d="M265.1,129.8c1.8-2,3.4-2.1,4.5,0.6C268.1,130.2,266.6,130,265.1,129.8z"/>
	<path class="st1" d="M141.8,625.7c-0.2,2,0.7,5.1-3.3,3.6C139.2,627.7,140.1,626.3,141.8,625.7z"/>
	<path d="M409.5,79.3c0,0.7,0,1.3,0,2c-1.9-0.4-5.1,0.3-3-3.5C407.5,78.3,408.5,78.8,409.5,79.3z"/>
	<path class="st1" d="M167.5,649.3c-0.4,1.7,0.7,5.1-3.2,2.7C165,650.7,165.9,649.6,167.5,649.3z"/>
	<path d="M382.7,68.9c1.1,2.4,2.1,4.7-2.1,4.6C380.8,71.7,381.1,70,382.7,68.9z"/>
	<path d="M515.2,280c8.8-23,11.7-16,16.1-16.7C525.3,271.7,520,277.3,515.2,280z"/>
	<path d="M511.8,360.6l-1.1,0l-1.1-0.1c0.1-2.4,0.5-4.5,3.5-4.6C512.9,357.6,513.1,359.3,511.8,360.6z"/>
	<path class="st1" d="M100.1,370.1c-0.1,1.8-0.2,3.6-0.3,5.3C95.9,373.4,97.3,371.7,100.1,370.1z"/>
	<path d="M196,675.8c0-3.8,2.4-3.1,4.7-2.4C199.6,675.1,197.8,675.4,196,675.8z"/>
	<path d="M543.4,147.1c-13.4,1.7-11.5-4-12.1-8.4C537.9,140.2,541.6,143.2,543.4,147.1z"/>
	<path class="st2" d="M148.8,490.7c-0.3,1.5-1.2,2.3-2.7,2.5C146.4,491.6,147.4,491,148.8,490.7z"/>
	<path d="M114,595.9c-0.1-0.8-0.1-1.5,0-2.3l0.6-0.7C116.2,594.2,115.4,595.1,114,595.9z"/>
	<path d="M273,120.2c0.1,0.6,0.2,1.2,0.3,1.8c-0.6-0.1-1.2-0.2-1.8-0.3C271.9,121.1,272.4,120.6,273,120.2z"/>
	<path d="M570.8,191.3c-3.6,0.3-5.2-1.2-5-4.4C568.6,187.4,570.4,188.7,570.8,191.3z"/>
	<path d="M578.4,200.7c-0.6-0.8-1.1-1.5-1.7-2.3c0.6-0.1,1.4-0.6,1.7-0.3C579.4,198.8,579.1,199.8,578.4,200.7z"/>
	<path d="M405.5,77.4c-2.1,1.2-2.4,0.3-1.8-1.6C404.3,76.3,404.9,76.8,405.5,77.4z"/>
	<path d="M289.8,201.5c0.6,2,0.1,2.7-2,1.8C288.5,202.7,289.1,202.1,289.8,201.5z"/>
	<path d="M426.7,575.6c0.2-1.8,0.6-3.3,2.9-1.9C428.7,574.4,427.7,575,426.7,575.6z"/>
	<path d="M272.5,647.6c0.1-1.9,1-2.6,2.8-1.8C274.8,647.1,273.8,647.5,272.5,647.6z"/>
	<path d="M547.3,243.5c3.5-1.8,7-1.9,10.5-0.4C554.4,247.1,550.9,247,547.3,243.5z"/>
	<path class="st1" d="M129.9,549.2c0-0.9,0-1.9,0-2.8l0.7-0.3C132.3,547.6,131.6,548.5,129.9,549.2z"/>
	<path class="st1" d="M162.4,653.3c1,0.2,1.9,0.5,1.7,1.9c-0.7-0.6-1.5-1.2-2.2-1.8L162.4,653.3z"/>
	<path d="M174,458.4c1,0,1.9,0.1,2.9,0.1c-0.8,1.6-1.8,2.1-3.2,0.5L174,458.4z"/>
	<path d="M95.4,600.5c0-0.8,0-1.6,0-2.4c0.3-0.5,0.7-0.8,1.3-0.9C97.5,598.8,97,599.9,95.4,600.5z"/>
	<path d="M485.4,529c-1.2-2-0.3-2.5,1.7-2.2C486.5,527.5,486,528.2,485.4,529z"/>
	<path d="M155.9,400.2c0,1-0.1,2-0.1,3l-0.1,0C153.7,402,154.3,401,155.9,400.2z"/>
	<path d="M200.8,673.4c-0.3-1.9,0.2-2.9,2.2-1.5C202.2,672.4,201.5,672.9,200.8,673.4z"/>
	<path class="st4" d="M366.9,100c0.2,2.1,1.6,4.3-0.5,6.3c-2.8-1.3-3.1-3.9-3.6-6.5C364.3,98.3,365.6,99.5,366.9,100z"/>
	<path class="st4" d="M147.9,643.2c-1.5-3.4,1.2-3.5,3.2-4.2c2.1,0.9,0.9,2.4,0.7,3.7c-0.6-0.1-1.1,0.1-1.3,0.7
		C149.6,643.4,148.7,643.3,147.9,643.2z"/>
	<path d="M258.2,235.2c0-1.7,0-3.3,0-5c2.6,0.9,2.8,3,2.2,5.1C259.9,236.6,258.9,236.2,258.2,235.2z"/>
	<path d="M517.6,342.3c-6.7,3-8.8-3.9-11.2-10C510.9,334,514.2,338.2,517.6,342.3z"/>
	<path d="M512.8,357.4l-0.9-0.6l-0.8-0.7c1.5-1.9,3-3.4,5.5-1.8C515.5,355.6,514.7,357.1,512.8,357.4z"/>
	<path d="M516.2,341.5c0.1,0,0.3,0,0.4,0c3,0.4,3.4,0.8,3.4,0.8l0.6,3.1v4.3l-0.6,3.5l-2.6,0.8l-0.8,0.1l-0.7,0.9l-2.5,0.7l5.6-4.3
		v-2.9c0,0-0.5-2.2-0.6-3.1c-0.1-0.9-0.7-1.9-0.7-1.9l-1.4-1.5L516.2,341.5z"/>
</g>
</svg>
