<?xml version="1.0" encoding="utf-8"?>
<!-- Generator: Adobe Illustrator 25.3.1, SVG Export Plug-In . SVG Version: 6.00 Build 0)  -->
<svg version="1.1" id="Layer_1" xmlns="http://www.w3.org/2000/svg" xmlns:xlink="http://www.w3.org/1999/xlink" x="0px" y="0px"
	 viewBox="0 0 612 792" style="enable-background:new 0 0 612 792;" xml:space="preserve">
<style type="text/css">
	.st0{fill:#006838;}
	.st1{fill:#444441;}
	.st2{fill:#161615;}
	.st3{fill:#807D7D;}
	.st4{fill:#FCFCFC;}
</style>
<g>
	<path class="st0" d="M371.8,87c1.6-1.5,0.4-3.2,0.2-4.8c3.9-3.4,3.9-8.5,4.8-12c2.4-3.5,8,0.4,8-5.3l0.1,0.8l-0.2-0.8
		c4.4,1.4,6,0,4.6-4.5l0.6,0.6l-0.7-0.4c4.3,0.1,3.2-2.3,2.1-4.6l0.7-0.4c6.8,1.9,12.2,7.8,20,6.7l0.2,0.6c-0.6,1.9-0.3,2.8,1.8,1.6
		l0.4,0.5l0.6-0.1c-2.1,3.8,1.1,3.1,3,3.5c1.8,5,7.7,4.8,10.6,8c-2.3,6.2,2.4,8.1,6,10c12.4,4.4,22.5-4.3,33.9-5.2
		c2.7-0.2,6.1-2,5.1-6.3l-0.1,0.1c3.4,0.6,6.9,0.9,10.2,1.3c6,0.7,11.8,5.8,18.2,1.5c1.5,0,3,0.1,4.5,0.1c2.1,3.8,6.8,0.6,8.3,2.2
		c4.8,5,5.9,9.1,3.8,14.6c-1.1,2.9-2.3,8.2,4.1,8.5c0.8,2.4,4.6,2.7,2.9,7.3c-1.5,4.1,1.7,8.1,7.4,4.9l0,0.7l0.7,0.1
		c0.2,5.3,2,9.4,7.9,10.4c1.3,0.1,1.8,0.9,2,2.1c0.2,2.1-0.4,4.7,3.3,3.9c-0.2,0.2-0.4,0.4-0.7,0.6c0.2-0.2,0.5-0.3,0.7-0.5
		c-1.1,6.4,5.7,4.4,8.4,7.9c0,3.5,0,7.5,0,11.6c-2.4,0.5-5.5-1-7,2.4c-5.1,0.5-7.6,2.8-6.2,8.6c9.3,1.5,18.5,4,27.9,3.3
		c2.8,2.8-0.4,10.2,6.8,8.6l-0.2-0.1c-0.1,1.8,0.7,2.6,2.5,2.4l-0.4,0.5l0.4-0.6c-0.9,2.8-1.7,5.7-2.3,7.4c1,4.9,4.2,7.6,4.1,11.7
		c-3,3.9-2,8.8-3,13.6c-8.5,5-10.4,14.3-14,22.5l-1,0.3c-1.2-0.9-2.4-0.9-3.7-0.1c0,0-0.3,0-0.3,0c0-0.7,0.3-2,0.1-2.1
		c-8.2-3.8-15.7-2-22.3,5.4c0.9,5.2-2,11.1,1.6,16.4c-2.1,3.8-5.2,6.7-8.7,9.2c-1.8,0.4-4.9-0.3-2.9,3.4c-0.5-0.1-0.9,0.1-1.2,0.4
		c-3.6-1.1-7.1-2.2-10.5-3.3c-2.7,3.5-0.2,8.6-6.4,11c-3.8-2.9-8.7-3.2-12.6,1.8c2.1,5.8,4,11.5,8.6,15.8c0,5.8,0,11.1,0,15.8
		c1.9,1.7,3.4,1.6,4.9,1.6c2,0.7,2,2.3,1.7,4c-0.3,3.8-1.1,7.9,4.8,8c4.4,2.8,6.1,9,11.9,9c1.5,4.2,1.4,7.4,0.6,10.5
		c-1.8,2.8-5.4,1.1-7.1,3.6c-3.1,0.1-3.4,2.3-3.5,4.6c-3.3,2.4-3.2,4.9,0.1,7.2c-0.9,3.1,3.1,3.9,3.4,6.4c-2.4,3.5-4.6,7.1-7.9,9.7
		c0.3,14.5-3,29.5,6.8,41.3c0.1,5-3.7,8.3-1.9,12.2c5.2,11.3-0.3,20.7-5,30.3c-7.8,3.6-3.1,11-5.1,16.5c-5.2,4.2-5.4,11.2-9.7,17.5
		c5.2,4.1,1.9,10.6,4.5,15.8l-0.3,0.4c-1.3-0.7-2.7-1.4-4.5-0.2c-1,2.8-2.6,5.7-2.6,9.1l-0.6,0l0.6-0.1c-1.9-0.3-2.8,0.2-1.7,2.2
		l-0.3,0c-5.2-0.1-2.9,3.9-3.5,6.4c-1.7,3.3-3.7,6.5-0.8,10.1l-0.6,0l0.2,0.6c-7.9-0.3-5.9,4.1-4.2,8.7c1.7,4.4,7,7.4,5.3,13.1
		c-6.9-2-13.8-4-20.6,0.5c-8.7-6.6-17.9-5.8-26.9-4.4c-1.6,3-1,5.1,0.4,7c-0.5,0-0.9,0.3-1,0.8c-2.3-1.4-2.7,0.1-2.9,1.9l-0.6,0.3
		c-2.5-2-4.3,0.5-6.4,1c-12.8-0.5-25.6-0.9-38.4-0.2c-10.3,0.6-18.9,4.4-28,11.4c4.4,3.9,0,8.6,2.4,12.8l-0.4,0.4
		c-2.7-2.1-5.4-0.7-7.4,0.9c-6.7,5.6-14.5,7.7-22.7,7.8c-1.7,4.1-0.8,7.6-1.1,11c-4.2,1.7-10.6-0.1-11.6,7
		c-4.9,3.2-10.9,3.7-15.9,7.7c-3.4-5.2-7.7-6.7-13.8-4.2c1.4,5.2-4.2,8.5-4.2,13.9l-0.3,0c-2.6-0.2-6.5-3.8-6.6,2.5l-0.3-0.2
		c-1.8-0.8-2.7-0.1-2.8,1.8l0.2-0.2c-2.3,0.7-6.8-3-6.2,3.2l-0.5-0.2l0.3,0.5c-4.4,0.2-9-0.4-12.6,3.1c-2.6,0.1-5.1,0.3-8.6,0.5
		c-0.4,4.1-0.5,9-6,9.9l-0.2,0c0.6-4.2-2.1-5.2-6.3-5.7c-2.8,2.5-8.4,3.7-5.5,10.1l-0.7,0.4c-7-3.7-14.1-5.7-21.5-1.1
		c-1.6,1-1.7,2.2-0.4,3.6l-0.7-0.1l-0.6,0.4c-2-1.4-2.4-0.4-2.2,1.5l-0.1,0c-2.3-0.6-4.7-1.4-4.7,2.4l0.2-0.1
		c-6.7-2.7-12.8,2-19.3,1.6c0-3.5,0.1-6.9-3.8-8.7c-6.5,0.5-12,4.9-18.2,5.9c-2-3.2-1-5.9-1.1-8.4c0.2-0.6,0.7-0.8,1.3-0.7
		c1.9,0.2,3.7,0.3,5.5-2.4c-0.2-2.8-0.4-6.5-0.6-10.2c0.8-0.3,1.5-0.1,2,0.6c0.7,0.6,1.5,1.2,2.2,1.8c0.1-1.3-0.8-1.6-1.7-1.9
		c0.6-0.4,1.3-0.9,1.9-1.3c3.9,2.4,2.8-1,3.2-2.7l0.1,0.2c5.7-2.3,6-3.6,2.3-9.4c-5-4.6-10.3-2.5-14.4,0.6
		c-6.7,5.1-14.3,6.7-22.2,8.4c-3.5,0.8-9.8,1-9.8,7.6l0.1-0.1c-2.7-0.1-5.3-0.3-8.1-0.4c0.3-2.5,0.6-4.7,0.9-6.9l-0.1,0.1
		c6.8-0.1,7.7-5.1,8.6-10.2l0.3,0.9l-0.3-0.9c5.5,0.6,11.1,2.8,16.4-2.1c-1.2-2.6-2.2-4.9-3.3-7.3l0.6,0.1l0-0.6
		c4,1.5,3.1-1.6,3.3-3.6c0.2-1.2,1-1.8,2.2-2.1c1.3,2.6,3.2,3,6,1.6c-0.8-5.9-4.9-8.5-10.2-8.2c-6.8,0.4-11.8,4.4-15.2,10.3
		l-0.5-0.2l0.3,0.5c-4.6-2.4-7.1-1.1-7.2,4.2l-0.1-0.2c-5.8-1.3-6.3-1-5.9,2.9l-0.8,0l-0.5,0.6c-8.1-0.5-8.5-9-12.7-12.7
		c-5.3-1.8-9.4-1-12.6,2.7c-2.4-1.4-4.1-2.8-4.5-4.9c0.8-2.5,1.5-4.7,2.4-7.4c4.1-0.5,7.8-1.8,8.6-7.2c0.2-1.8,2.9-3.3,4.4-4.9
		c1.6-0.6,2.1-1.7,1.3-3.3l0.3,0.8l-0.2-0.9c5.8,0.8,11.7,2.9,17.2-1.3c1.5-0.8,2.2-1.7,0.6-3.1l0.6-0.4l-0.2-0.6
		c6.1-1.3,4.9-6.4,5.9-10.1c-1.9-2.4-3.6-2-5.4-1l-0.5-0.4c2.2-3.6,0.4-5.7-2.9-7.5c-4.2,1.4-8.5,2.8-13.5,4.4
		c-5-4.9-11.7,1-17.8-1.8c-1.5-0.7-3.9,2-3.2,4.9l-0.9-0.7l0.8,0.8c-5.1-1.2-6.7-4.2-4.6-8.9c2.5-2.3,6.2-0.4,9.7-4.3
		c0.9-1.1,3-3.7,2.3-7.4l0.2-0.2c6.1,0.2,12.3-0.9,18.4,1.1c2.5,0.8,5.3-0.1,6.5-3.1c6.6,1.5,12,6.6,19,6.4c2.9-2.3,5.6-4.5,5-8.8
		c0.4-3-4.4-2.7-4.2-5.9c1.7-0.7,2.5-1.6,0.7-3.1c0.7-0.2,0.9-0.7,0.6-1.3c1.3,1.2,2.8,1.4,3.3-0.5c1.1-3.7-0.1-7.3-0.8-10.2
		c1.9-6.2,11.3-5.2,10.4-12.9l0,0.1c1.9,0,4.6-0.3,4.4-2.4c-0.5-5.3,5.7-10.3,1.3-15.6c-5.4-2-5.5,3-7.8,5c-0.8,0.5-1.5,0.9-2.3,1.4
		c-1.7-2.8-5.9-3.8-5.8-7.9c0.9,0.8-0.2-0.2,0,0c4.3,1.6,6.7,0,7.6-4.4l-0.3,0.2c3.9,0.7,5.5-0.9,5-4.8l-0.2,0.3
		c1.5-0.1,2.5-0.9,2.7-2.5l-0.2,0.2c3.4,0.5,5.1-1,5.1-4.5c3.9-3,7.9-5.5,11.8-5.2c4.7-3.6,3.6-9,7.7-12.2c2.8-2.2,1.7-6.2-0.3-9.3
		c0.6,0,0.9-0.3,0.9-0.9c1.3,1.7,2.3,1.2,3.2-0.5c3.5-0.1,6-1.3,6.4-4.5c-0.5-4.6-6.2-4.1-6.4-7.6c0.8-11.2,8.4-17.7,13.7-24.6
		c5.1-1.8,8.2,2.5,13,1.3c3.6-5.7,12.7-3.6,17.1-10.5c0.5-4.1,0.6-8.7-0.2-13.4c-5.2-2.9-10-6.3-15.7-1.3c-4.6,1-9.9-2.2-13.9,2.3
		c-9.5-1-18.5,3.8-28,2.3c-0.8-5.5-3.1-6.1-6.9-2.2c-1.6,0.9-2.1,1.8-0.3,3c-0.6,0.2-1,0.6-1.1,1.2c-2.1-1.9-4.3-1.9-6.5-0.4
		l-0.2-0.6l-0.6,0c1.2-1.5,2.5-2.9,3.8-4.5c-1-4.1-2.1-8.1-3.2-12.4c-3.1,1.2-7.5,0.1-7.1,5.4l-0.2,0.3c-3.2-1.9-7.3-2.4-9.6-5.4
		c-0.7-2.5,2.6-4.3,0.1-7.3c-9,0.2-18-2.4-26.3-7.1c5.9-0.2,7.3-4.5,8.3-8.2c-0.6-5.1-4.1-5.8-7-6.9c3.7-10.5,15.4-7.1,22.1-12.6
		c-0.4-8.3-0.8-16.5-1.1-24.6l0.3-0.2c9.3,2.5,18.2,1.7,26.4-3.5c3.4-2.3,3.3-4.6,0.1-7c0.2-1.3,1-2,2.2-2.3c5.5-0.8,6.3-3.1,2.4-7
		c-10.8-4.2-21.3-3.4-32.4,2.1c-2.2,0.4-4.8-3.2-7.9-1.2l0.7-0.6l-0.7,0.5c0.8-3.6,2.4-7.5-3.8-7.6c0.8-4.5-1.1-7.4-6.3-8.1
		c4.2-3,7.8-4.8,11.6-3.1c3.8,1.7,7.1,3,10-1.3c-0.4-2-1.7-3.2-3.7-3.9c0.5-4.4-4.5-6.2-4.8-10.2c2.9-7.8,2.3-14.6-4.5-19.9
		c-5.2,2.5-5.8,5.7-3.6,9.8l-0.5,0.9c-5.2-5.4-4-11-0.9-16.8c4-1.6,7.8-1,11.6-0.9l0.3,0.7c1.1,5.8,3.7,5.1,6.8,1.5
		c7.4-0.1,3-6,3.6-9.9c15.5,6.2,31.3,0,46.1,4.6c1.6-1.1,3.2-2.2,4.8-3.3c2.8,1.2,4.6,4.4,8.2,3.9c-0.4,5.8,2,10,7.6,11.4
		c7.4,1.8,9.4-5.3,13-8.7c4.6-1,9.1,0.8,12.9-2l0,0.6l0.6-0.2c-0.2,1-1.1,2.5,0.4,2.8c8.6,1.6,17.3,0.8,26,0.5
		c2.1-0.1,2.4-2.6,2.5-4.5c0.5-0.7,1-1.4,1.5-2.1l0.7,0.2c0.7,1,1.7,1.4,2.1,0.1c0.6-2.1,0.4-4.2-2.2-5.1c-1.9-1-3.8-2-6.5-3.5
		c4.6-1.8,9.6-2.4,8.8-8.3l0,0.1c8.4-0.4,8.9-0.9,8.2-7.7l0.3-0.8c2,1.7,3.8,3.9,8,3.7c2.9-2.3,8.2-2.6,11.4-6.9
		c-0.6-1.3-1.1-2.4-1.6-3.4l1-0.2c2.1,1,2.6,0.3,2-1.8l-0.1-0.2c5.4,0.2,2.8-3.8,3.4-6.2l-0.1,0.1c9.1-3.5,9.6-5.9,2.9-13.6
		c-3.6-1.2-6.1,2.7-9.6,1.9c-2.9-4.1-7.4-2.7-10.6-1.9c-10.4,2.5-20.1-0.6-30.1-2.6c-2.9-0.6-5-1.8-5.6-5.2c1.4-2.1,2.9-4.3,4.4-6.5
		c2.5-0.8,5.1-2.3,7.6-2.2c9.7,0.5,15-4.2,16.5-12.9c2.6-2,6-0.3,7.4-2.3c3.9-8.4-4.1-15.9,0.5-23c-2.4-2.1-4.1-3.6-5.9-5.1
		c0.5,0.2,0.8,0.1,1.1-0.3c0.6,0.1,1.2,0.2,1.8,0.3c-0.1-0.6-0.2-1.2-0.3-1.8l0.8-0.2c3.6,0.9,7.5,2.5,7.6-3.7
		c5.8-1.3,3.5-8.3,8.4-11.3c4.3-0.7,9.4-1,14.2-4.2c3.1-2.1,7.9-5.1,13-2.1c1.2,0.7,1.6-2,1.6-3.5c4.1,2.3,8.3,3.4,12.9,1.5
		c1.7-2.5,1-6.3,5.1-7.8c5.3-0.2,10.7-4,16.9-2.9c0,2.5,0,5.1,0.1,7.6c0.1,3.5,2.2,4.1,5.1,3.7l-0.1-0.1c1.5,5.6,0,13.1,8.5,14.5
		c3.2-1.8,4-4.7,4.7-7.4c-1-2.3-2.4-4-5-4.1c-1.4-0.4-2.7-1.7-4.2-0.2L371.8,87z"/>
	<path d="M513.6,454.6c4.7-9.6,10.2-19,5-30.3c-1.8-3.9,2-7.2,1.9-12.2c-9.8-11.8-6.5-26.7-6.8-41.3c3.4-2.6,5.5-6.2,7.9-9.7
		c-0.2-2.5-4.2-3.2-3.4-6.4c0.8-0.1,1.6-0.1,2.5-0.2c2.1,1.5,4.3,3,7,4.8c-3,4.2-4.8,8.7-4.4,12.4c-1,4-4.5,3.2-5.9,6.3
		c2.3,7.7-2,16.8,2.8,25c4,6.6,5.6,13.3,2.1,20.2c4.5,13.1,0.6,27.6-8.7,33.8C513.6,456.2,513.6,455.4,513.6,454.6z"/>
	<path d="M213.5,384.8c5.7-5,10.5-1.6,15.7,1.3c0.9,4.8,0.7,9.3,0.2,13.4c-4.4,7-13.5,4.8-17.1,10.5c-4.8,1.2-8-3.1-13-1.3
		c-5.3,6.9-12.8,13.4-13.7,24.6c0.2,3.5,5.9,3,6.4,7.6c-0.4,3.2-3,4.4-6.4,4.5c-1,0-1.9-0.1-2.9-0.1c0.6-1.8,3.2-2.1,3-4.4
		c-1.8-3.3-5.6-1.8-8.8-3.3c6.1-11.7,11.9-23.2,19.8-34c4.4-1.1,8.5,1.8,13.5,2.5c2.8-5.2,8.5-5.2,13.2-5.9
		c3.9-4.1-3.7-8.2,1.7-11.5c-4.2-2.2-7.9-0.9-11.6-1.1C213.6,386.6,213.5,385.7,213.5,384.8z"/>
	<path d="M104.1,587.5c-1.5,1.6-4.1,3.1-4.4,4.9c-0.7,5.4-4.5,6.7-8.6,7.2c-0.9,2.7-1.6,4.9-2.4,7.4c0.4,2.2,2.1,3.5,4.5,4.9
		c3.2-3.7,7.3-4.5,12.6-2.7c4.2,3.7,4.6,12.1,12.7,12.7c-3.5,3.6-7.5,3.2-11.7,1.5c-2.7-3.5,0.6-9.8-5.6-11.7c-5.2-0.4-3,6.5-7.7,8
		c-5.1-5.1-9.4-10.8-12.4-17.2c2.2-7,8.2-5.2,12.7-6.6c-0.1-1.6-0.2-3.1-0.4-4.8c2.6-3.6,6.7-4.8,10.7-6.1
		C104.1,585.9,104.1,586.7,104.1,587.5z"/>
	<path d="M135.5,307c0.4,8.1,0.7,16.3,1.1,24.6c-6.7,5.5-18.4,2.1-22.1,12.6c2.9,1.2,6.5,1.9,7,6.9c-1,3.7-2.3,8.1-8.3,8.2
		c-1.8,0.7-2.5,2.2-2.8,3.9c-0.8-0.1-1.4-0.5-2-1c0.1-1.8,0.2-3.6,0.3-5.3c1.3-2.7,4.9-2.1,6.8-5.2c-2.4-4.3-7.9-5.6-12.8-10.6
		c10.2-4.4,19.2-9,29.2-11.2C132.4,321.5,127.3,313.1,135.5,307z"/>
	<path d="M201.7,224.2c-3.6,0.5-5.4-2.7-8.2-3.9c-1.6,1.1-3.2,2.2-4.8,3.3c-14.9-4.7-30.6,1.5-46.1-4.6c-0.7,3.9,3.8,9.8-3.6,9.9
		c-1-0.1-2-0.2-3-0.3c4.9-3.1-1.7-9,4.6-13.3c17.1,3.8,35.9,2.3,55.9,2.3c2.8,0.9,5.6,3.4,7.8,6.6
		C203.4,224.2,202.6,224.2,201.7,224.2z"/>
	<path d="M368.3,586c-2.5-4.2,2-8.9-2.4-12.8c9-6.9,17.7-10.7,28-11.4c12.8-0.8,25.6-0.3,38.4,0.2c0,1-0.1,2-0.1,3.1
		c-7-0.3-14.1,0.5-21.1,0.3c-6.6-0.2-14.1,1.7-21.3,1.4c-6.2-0.2-10.9,3.2-16,5.3c-0.9,2.4,1.5,3.4,1.9,6
		C373.3,580.4,370.8,583.2,368.3,586z"/>
	<path d="M279.1,108.9c1.7,1.5,3.4,3,5.9,5.1c-4.6,7.1,3.4,14.6-0.5,23c-1.4,2-4.7,0.2-7.4,2.3c-1.5,8.7-6.8,13.5-16.5,12.9
		c-2.5-0.1-5.1,1.4-7.6,2.2c0-0.8,0-1.7,0-2.5c4.2-5.8,10.9-4.6,16.1-5.4c4.6-3.2-0.4-8.2,3.1-10.8c2.5-3.5,6.9-0.6,10.3-3.5
		c-1.5-4.9-4-9.6-4-14.8c-1.2-2.7-2.7-2.6-4.5-0.6c-1.9,0-3.8,0.4-5.5-1.8C268.6,107.5,275.3,110.6,279.1,108.9z"/>
	<path d="M162.4,653c0.1,2.6-0.9,5.2,1.1,8.4c6.2-1,11.7-5.4,18.2-5.9c3.9,1.7,3.9,5.2,3.8,8.7c0,0.8,0,1.6,0,2.4
		c-4.1,0.3-3.9-4.3-6.1-5.6c-5.8-0.5-9.4,3.7-13.3,5.1c-4,0.9-5.3-2.2-7.5-3.3c-5.2,3.3-7.4,11.5-16.5,9.2
		c-2.1-7.9,4.6-9.8,9.1-11.8c4-1.8,8.1-2.4,8.8-7.6l-0.3,0.2C160.7,652.8,161.5,652.9,162.4,653z"/>
	<path d="M509.4,307.8c-1.5,0-3.1,0.1-4.9-1.6c0.1-4.7,0.2-10,0.3-15.8c-4.5-4.4-6.3-10.1-8.3-16c4-4.9,8.9-4.6,12.6-1.6
		c6.2-2.3,3.8-7.5,6.6-10.9c3.4,1.1,6.9,2.3,10.5,3.5c-1.7,2.1-4.3,0.6-7.1,1.9c-1.3,8.2-8.8,9.4-17,11.5
		C511.3,287.3,506.5,298.3,509.4,307.8z"/>
	<path d="M252.9,151.9c0,0.8,0,1.7,0,2.5c-1.5,2.2-3,4.4-4.4,6.5c0.6,3.4,2.7,4.6,5.6,5.2c9.9,2,19.6,5.1,30.1,2.6
		c3.2-0.8,7.7-2.2,10.6,1.9c0,0.8,0,1.5,0,2.3c-11.8,2.4-23.5,1.7-35.2-0.7c-6.6-1.4-12.5-3.7-16.6-9.7
		C244.8,157.3,248,153.8,252.9,151.9z"/>
	<path d="M134.5,263.7c1.9,0.7,3.2,1.9,3.7,3.9c-2.9,4.3-6.2,3-10,1.3c-3.8-1.7-7.4,0.1-11.6,3.1c5.2,0.8,7,3.7,6.3,8.1
		c0,1.6,0,3.2-0.1,4.7c-5.1-0.5-4.2-5.7-5.4-7.8c-4.1-2.4-7,0-9.9-0.4c-2.8-0.3-6-1.1-8.5-4.6c2-3.6,5.7-3.7,9.4-4.3
		c8.2-1.2,16.3-2.6,24.4-4C133.3,263.9,133.9,263.8,134.5,263.7z"/>
	<path d="M473.8,74.7c1,4.3-2.5,6.1-5.1,6.3c-11.4,0.9-21.5,9.6-33.9,5.2c-3.7-1.9-8.3-3.7-6-10c-3-3.2-8.8-3-10.6-8
		c0-0.7,0-1.3,0-2c5.2,2.3,10.7,4,13.4,6.2c3.9,4,1.3,7,3,9.7c4.9,2.4,11.2,3.1,15.4,0.7C457.5,78.5,466,77.9,473.8,74.7z"/>
	<path d="M131.9,226.7c-3.8-0.1-7.7-0.7-11.6,0.9c-3,5.8-4.3,11.4,0.9,16.8c-2.5,3.4-0.3,8.7-4.6,11.4c-4.2,0.8-6.7-2-5.6-5
		c2.9-8.3,0.9-17.7,5.6-25.8c2.6-2.9,7.4-1,9.5-4.5C129.4,222,130.7,224.3,131.9,226.7z"/>
	<path d="M577,174.8c-7.3,1.5-4-5.8-6.8-8.6c-9.4,0.6-18.5-1.8-27.9-3.3c-1.4-5.8,1.2-8.1,6.2-8.6c0.1,0.7,0.1,1.4-0.1,2
		c-0.5,6.3,6.8,2.1,7.2,5.9c8.8,0.8,15.9-2,23.4-6.9C580.1,163,571.9,168.3,577,174.8z"/>
	<path d="M443.1,557.9c-1.4-2-2-4-0.4-7c9-1.4,18.3-2.2,26.9,4.4c6.8-4.6,13.7-2.6,20.6-0.5c0.6,0,1.3,0,1.9,0
		c-0.5,2.8-3.3,4.4-5,3.5c-6.3-3.3-12-0.5-17.9,1.1C460.7,555.8,452.3,548.6,443.1,557.9z"/>
	<path d="M132.1,643.5c0-6.6,6.3-6.8,9.8-7.6c7.9-1.7,15.5-3.3,22.2-8.4c4.1-3.1,9.4-5.2,14.4-0.6c-0.2,1.1-0.4,2.3-1.9,2.3
		c-4,0.7-7.5,2.2-11.2,3.8C154.8,637.7,144.3,643.6,132.1,643.5z"/>
	<path d="M110.5,363.4c0.3-1.8,1-3.3,2.8-3.9c8.3,4.8,17.3,7.3,26.3,7.1c2.5,3-0.8,4.8-0.1,7.3c2.4,3,6.4,3.5,9.6,5.4
		c-3.7,5.8-8.3,0.7-11.5,1.4c-4.3-2.7-3.5-6.6-3.9-9C125.4,368.7,118,366,110.5,363.4z"/>
	<path d="M138.6,536.2c-0.2,3.2,4.6,2.9,4.2,5.9c0.5,4.4-2.2,6.5-5,8.8c-7.1,0.2-12.5-4.9-19-6.4c-0.3-0.8-0.5-1.5-0.8-2.3
		c-0.2-1.9-0.2-3.9,1.3-5.4c0.7-0.7,2-0.8,2.6-1.1c4.9,1,2.3,5.5,5.1,8.5c3,1.2,6.4,5.2,11.9,1.1c-2.1-4.2-8.8-3.7-9.2-9.8
		c2-3.4,6.3-0.3,9-2.2C138.6,534.3,138.6,535.3,138.6,536.2z"/>
	<path d="M362.3,72.8c-6.2-1.1-11.6,2.7-16.9,2.9c-4.1,1.6-3.4,5.4-5.1,7.8c-4.6,1.9-8.8,0.8-12.9-1.5c-1.5-0.8-3.1-1.5-4.6-2.3
		c0.9-2.5,2.8-3.5,2.8-3.5c5.8-0.9,5.8,3.3,8.5,4.1c4.2-0.9,4.6-5.9,8.3-7.9c5.4-1.5,11-4,17.2-4.3c3.3-0.2,5,1.2,4.8,4.7
		C363.7,72.9,363,72.9,362.3,72.8z"/>
	<path d="M513.6,454.6c0,0.8,0,1.6,0,2.4c0.1,10.8-2.7,20.7-8.5,27.8c-1.4,7.7,5.8,14.3-1.9,19.7c-2.6-5.2,0.6-11.7-4.5-15.8
		c4.4-6.3,4.6-13.3,9.7-17.5C510.4,465.6,505.8,458.2,513.6,454.6z"/>
	<path d="M322.7,79.8c1.5,0.8,3.1,1.5,4.6,2.3c0,1.5-0.4,4.2-1.6,3.5c-5.1-3-9.9,0.1-13,2.1c-4.9,3.2-10,3.5-14.2,4.2
		c-4.9,3-2.6,10-8.4,11.3c-0.6,0-1.2,0-1.8-0.1c0.2-2-0.3-3.8-1.7-6.1c6-0.6,5.8-7.3,10.7-10C305.9,86.8,314.3,83.2,322.7,79.8z"/>
	<path d="M291.3,630.4c0-5.3,5.6-8.7,4.2-13.9c6.1-2.5,10.3-1,13.8,4.2c4.9-4,11-4.5,15.9-7.7c1.1-0.1,2.2-0.2,3.2-0.3
		c0.9,1.3,1.7,2.6,0.4,5.1c-3.9,0.7-8.5,0.7-12.4,4.5c-4.9,4.8-10.6,1.6-15.2-2.5C296.7,622.6,297.7,630,291.3,630.4z"/>
	<path d="M336.8,606c0.3-3.4-0.6-6.9,1.1-11c8.1,0,16-2.2,22.7-7.8c2-1.7,4.6-3,7.4-0.9c-7.9,5.4-14.4,13.5-25.5,12.2
		c0.5,5,1.2,9.8-5.6,9.7C336.7,607.6,336.7,606.8,336.8,606z"/>
	<path d="M201.7,224.2c0.9,0,1.7,0,2.6-0.1c3.8,1.1,3.2,5.8,5.8,7.5c5.5,0.1,5.7-4.4,6.9-8c6.5-0.1,12.4-1.8,18.2,1.2
		c-3.8,2.9-8.3,1.1-12.9,2c-3.6,3.5-5.6,10.6-13,8.7C203.7,234.2,201.3,230,201.7,224.2z"/>
	<path d="M161.7,661.7c-1.8-2.1-3.6-4.2-5-5.8c-0.2-2.5,1.1-3.3,2.3-4.1c0.5,0.9,0.4,2.4,2.2,1.9c1-1.4,2.6-2.7,0.1-4l-0.1,0.3
		c4.4-1.8,4.4-7.3,8.7-10.2c2.3,4.2,0.4,7.5-1.4,10.7C166.2,654.2,162.8,657.4,161.7,661.7z"/>
	<path d="M564.1,232.2c3.6-8.3,5.5-17.5,14-22.5c1-4.8,0-9.7,3-13.6c1.1-0.1,2.3-0.1,3.4-0.2C583,211,575.6,222.7,564.1,232.2z"/>
	<path d="M521.9,103.1c-8.3-0.3-6.8-5.6-5.4-8.5c2.6-5.5,1.2-9.6-5-14.6c-1.9-1.6-7.9,1.6-10.7-2.2c4.3-2.8,9.1-2.2,14.1-1.3
		c4.5,2.7,5.8,7,9.3,10.6c1.1,5-6.5,10.9,1.7,15.6C524.5,102.9,523.2,103,521.9,103.1z"/>
	<path d="M124.9,636.2c-0.3,2.2-0.5,4.3-0.9,6.9c2.8,0.1,5.5,0.3,8.1,0.4c-2.4,3.9-7.1,4.2-10.4,6.9c-3.9,0.3-7.5-0.1-11-3
		C112.4,639.5,119.1,638.3,124.9,636.2z"/>
	<path d="M126.6,287.9c3.2-2,5.7,1.6,7.9,1.2c11.1-5.5,21.6-6.3,32.4-2.1c-0.1,1.1-0.3,2-1.6,2.2c-9.1,0-18.4-3.2-27.3,2.4
		C133.5,294.4,129.2,292.7,126.6,287.9z"/>
	<path d="M86.3,567.4c-0.7-2.9,1.7-5.5,3.2-4.9c6.1,2.7,12.8-3.2,17.8,1.8c5-1.6,9.4-3,13.5-4.4c3.3,1.8,5.1,3.9,2.9,7.5
		c-1-0.7-2.2-2.1-2.8-1.9C109.5,569.9,97.7,565.4,86.3,567.4z"/>
	<path d="M181.5,446.7c2,3.1,3.1,7.1,0.3,9.3c-4.1,3.1-3,8.5-7.7,12.2c-3.9-0.3-8,2.2-11.8,5.2c-0.7,0-1.4,0-2.1,0
		c-0.1-3.6,3.2-5,4.1-7.7c3.5-0.6,6.5-1.1,9.9-1.6C174.6,457.3,178.5,452.2,181.5,446.7z"/>
	<path d="M152.9,508.1c0.8,7.7-8.5,6.7-10.4,12.9c0.7,2.9,1.9,6.5,0.8,10.2c-0.6,2-2,1.7-3.3,0.5c0-1.9,0-3.8,0-5.6
		c-2.5-3.4-7.7-1.5-10.3-6.4C138.1,517.3,145.6,513,152.9,508.1z"/>
	<path d="M93.6,546.8c0.8,3.7-1.4,6.3-2.3,7.4c-3.5,3.9-7.2,2-9.7,4.3c-2.1,4.7-0.6,7.7,4.6,8.9c-1.6,3.6-4.5,3.7-8.3,2.7
		c-2.7-5-1.6-9.9,1.6-15.6C86.9,557.5,87,546.7,93.6,546.8z"/>
	<path d="M134.5,263.7c-0.6,0.1-1.2,0.1-1.7,0.2c-3.2-2.4-5.8-5.1-7.1-10.4c0.4-4.1,4-9.6,0.3-14.8c-3.8-0.3-1.9,4-4.3,4.7
		c-2.2-4.1-1.6-7.4,3.6-9.8c6.8,5.3,7.4,12.1,4.5,19.9C129.9,257.5,134.9,259.4,134.5,263.7z"/>
	<path d="M538.5,252.1c-3.6-5.3-0.7-11.1-1.6-16.4c6.6-7.4,14.1-9.2,22.3-5.4c0.3,0.1,0,1.4-0.1,2.1c-5.6,0.4-11.4-1-17.1,2.2
		C540.5,240.3,542.4,246.9,538.5,252.1z"/>
	<path d="M171.5,389.4c9.5,1.5,18.5-3.3,28-2.3c0.1,0.6,0.2,1.2,0.1,1.9c-7.1,2-14,5-21.7,4.3c-3.4-0.3-6.9,0.1-8.7-3.7
		C169.9,389.4,170.7,389.3,171.5,389.4z"/>
	<path d="M133.3,614.2c3.4-5.9,8.4-9.9,15.2-10.3c5.2-0.3,9.3,2.3,10.2,8.2c-2.8,1.4-4.7,0.9-6-1.6c-2.6-3.8-7.3-3-8.5-0.8
		C141.4,614.6,136.8,612.6,133.3,614.2z"/>
	<path d="M502,77.7c-6.4,4.3-12.2-0.9-18.2-1.5c-3.3-0.4-6.8-0.7-10.2-1.3c1.2-3.4,4.1-5.5,7-4C487.5,74.2,495.9,72.5,502,77.7z"/>
	<path d="M162.2,303.3c-8.3,5.3-17.1,6.1-26.4,3.5c7.7-3.6,16.3-3.6,24.3-5.8C161.5,301.2,162,302.1,162.2,303.3z"/>
	<path d="M555.5,151.9c0-4,0-8.1,0-11.6c-2.7-3.5-9.5-1.5-8.4-7.9c2.6,0.4,5.3,0.8,7.7,1.1c7.2,9.6,7.2,11.4,0.9,21.2
		C555.6,153.8,555.6,152.8,555.5,151.9z"/>
	<path d="M150.7,495.3c2.3-2,2.4-7,7.8-5c4.4,5.3-1.8,10.2-1.3,15.6c0.2,2.1-2.5,2.3-4.4,2.4C153.6,503.7,157.9,498.5,150.7,495.3z"
		/>
	<path d="M117.9,542.3c0.3,0.8,0.5,1.5,0.8,2.3c-1.2,3.1-3.9,4-6.5,3.1c-6.1-2-12.3-0.9-18.4-1.1c4.3-4.9,9.3-7.4,15.6-4
		C112.5,544.2,115.1,544,117.9,542.3z"/>
	<path d="M492.2,554.8c-0.6,0-1.3,0-1.9,0c1.6-5.7-3.6-8.7-5.3-13.1c-1.7-4.6-3.7-8.9,4.2-8.7c-2.9,6.5,1.3,10.4,5.8,14.1
		C493.9,549.9,493.1,552.4,492.2,554.8z"/>
	<path class="st1" d="M266.9,222.1l-0.7-0.2c-4.7-2.2-10.4-3.7-8-10.7c2.8-4.2,8.3-2.3,11-5.8c0.7,5.9-4.2,6.5-8.8,8.3
		c2.7,1.5,4.6,2.5,6.5,3.5C266.9,218.8,266.9,220.5,266.9,222.1z"/>
	<path d="M149.3,379c-0.3-5.4,4-4.3,7.1-5.4c1.1,4.3,2.1,8.3,3.2,12.4c-1.3,1.6-2.5,3-3.8,4.5c-5.5-2.3-5.7-5.9-2.5-10
		C152.3,378.2,150.7,379,149.3,379z"/>
	<path d="M294.9,172.8c0-0.8,0-1.5,0-2.3c3.5,0.7,6-3.2,9.6-1.9c6.7,7.7,6.2,10-2.9,13.6c1-2,2-4,3-6
		C302.8,170.8,297.9,174.6,294.9,172.8z"/>
	<path d="M295.5,190.5c0.5,1,1,2,1.6,3.4c-3.1,4.3-8.4,4.6-11.4,6.9c-4.2,0.2-6-2-8-3.7c2.4-5.7,6.4-0.4,9.1-1.1
		C290,194,292.7,192.2,295.5,190.5z"/>
	<path d="M375.6,86.9c2.6,0.1,4,1.8,5,4.1c-0.8,2.7-1.5,5.6-4.7,7.4c-8.5-1.4-7-8.9-8.5-14.5c1.5,1,3,2,4.5,3l-0.4-0.2
		c0.5,2.6,0.9,5.2,3.6,6.5C377.2,91.2,375.9,89,375.6,86.9z"/>
	<path d="M584.6,195.9c-1.1,0.1-2.3,0.1-3.4,0.2c0.1-4.1-3.2-6.8-4.1-11.7c0.5-1.7,1.4-4.6,2.3-7.4c3.4,1.8,1.3,7.6,6.1,8.3
		c0.6,0.8,1.1,1.5,1.7,2.3C586.3,190.4,585.4,193.2,584.6,195.9z"/>
	<path d="M146.6,616.7c1.1,2.3,2.1,4.7,3.3,7.3c-5.3,4.9-11,2.7-16.4,2.1c1-1,2-2.9,3-2.9C141.4,623.1,143.7,619.6,146.6,616.7z"/>
	<path d="M247.6,651.3c5.6-0.9,5.6-5.8,6-9.9c3.5-0.2,6.1-0.3,8.6-0.5c0,0.8-0.1,1.5-0.1,2.3c-4.7,1.8-5,7.4-8.5,10.2
		C251.3,653.6,249.1,653.5,247.6,651.3z"/>
	<path d="M384.9,64.8c0.1,5.7-5.6,1.8-8,5.3c-0.9,3.5-0.9,8.6-4.8,12c-4-5.3,2-9.8,0.5-14.2C376.5,63.6,381.1,66.4,384.9,64.8z"/>
	<path class="st2" d="M142.7,488.8c-0.1,4.1,4.1,5.1,5.8,7.9c-4.8,6.1-9.5-0.6-15.2,1.5C134.8,491.5,139.9,491.4,142.7,488.8z"/>
	<path d="M262.2,643.1c0-0.8,0.1-1.5,0.1-2.3c3.6-3.5,8.2-2.9,12.6-3.1c-0.9,2.8-1.8,5.6-2.7,8.7
		C268.6,646.3,266.4,641.6,262.2,643.1z"/>
	<path d="M412.1,62.2c-7.8,1.1-13.2-4.8-20-6.7c3.7-3.3,7.8,0.6,11-1C407.1,56.7,409.8,59.3,412.1,62.2z"/>
	<path d="M264.6,224c-0.1,1.9-0.3,4.4-2.5,4.5c-8.7,0.3-17.4,1.2-26-0.5c-1.5-0.3-0.6-1.8-0.4-2.8C245.4,225.9,255.1,226,264.6,224z
		"/>
	<path d="M522.8,103.1c1-0.1,2-0.2,3-0.3c1.9,0,3.9-0.3,5.7,1.1c2.4,3-2.6,4.3-1.7,7.4c0.9,1.1,2.1,2.6,3.3,4
		c-5.8,3.2-8.9-0.8-7.4-4.9C527.4,105.7,523.6,105.5,522.8,103.1z"/>
	<path class="st2" d="M122.7,582.9c-5.4,4.3-11.4,2.1-17.2,1.3c1-3.2,3.6-3.2,6.2-3.3c3.7-0.1,7.3-0.2,11-0.3
		C122.5,581.3,122.5,582.1,122.7,582.9z"/>
	<path d="M213,658.6c-1.2-1.4-1.2-2.6,0.4-3.6c7.4-4.5,14.5-2.6,21.5,1.1c-4.5,5.9-8.1-2.1-12.4-1.1
		C219.4,656.2,216.2,657.4,213,658.6z"/>
	<path d="M185.5,666.6c0-0.8,0-1.6,0-2.4c6.5,0.4,12.6-4.2,19.3-1.6C199.3,668.5,192.5,667.8,185.5,666.6z"/>
	<path class="st1" d="M116.6,301.9c4.9-3.3,8.1-4.2,12.7-1.8C125.6,303.6,122.6,305.2,116.6,301.9z"/>
	<path class="st2" d="M199.6,388.9c0.1-0.6,0.1-1.2-0.1-1.9c4.1-4.4,9.3-1.3,13.9-2.3c0,0.9,0.1,1.9,0.1,2.8
		C209.1,390.3,204.2,388.5,199.6,388.9z"/>
	<path d="M133.5,626.1c-0.9,5-1.8,10.1-8.6,10.2c0.4-2.5,0.8-5,1.1-7.1C128.4,627.1,130.9,626.5,133.5,626.1z"/>
	<path d="M235.7,655.8c-2.9-6.4,2.7-7.6,5.5-10.1c4.2,0.4,6.8,1.4,6.3,5.7C242,648.8,238.7,651.9,235.7,655.8z"/>
	<path d="M362.3,72.8c0.7,0,1.4,0,2.1,0.1c1,3.7,2.1,7.5,3.1,11.2c-2.9,0.5-5.1-0.2-5.1-3.7C362.3,77.9,362.3,75.4,362.3,72.8z"/>
	<path d="M336.8,606c0,0.8,0,1.5,0,2.3c-2.3,2.4-4.2,5.7-8.4,4.3c-1.1,0.1-2.2,0.2-3.2,0.3C326.1,605.9,332.5,607.8,336.8,606z"/>
	<path d="M124.2,567.7c1.8-1,3.5-1.4,5.4,1c-1,3.7,0.1,8.8-5.9,10.1C121.9,575,128.4,571.6,124.2,567.7z"/>
	<path d="M495.8,513.8c0-3.4,1.6-6.4,2.6-9.1c1.9-1.2,3.2-0.5,4.5,0.2C500.7,508,501.9,513.9,495.8,513.8z"/>
	<path d="M541.8,126.4c-6-0.9-7.7-5-7.9-10.4C539.1,117.4,539.7,122.5,541.8,126.4z"/>
	<path class="st3" d="M106.8,330.3c-2.8,3.3-5,3.2-7.1,0.7c0-0.8-0.2-1.8,0.2-2.2C102.5,326,104.9,325.8,106.8,330.3z"/>
	<path d="M277.4,197.8c0.7,6.8,0.2,7.3-8.2,7.7C270.7,201.7,275.4,201.2,277.4,197.8z"/>
	<path class="st2" d="M176.6,629.2c1.5,0,1.7-1.2,1.9-2.3c3.7,5.9,3.5,7.1-2.3,9.4C176.4,634,176.5,631.6,176.6,629.2z"/>
	<path d="M489.5,532.4c-2.9-3.6-0.9-6.8,0.8-10.1c0.9,0,1.9,0,2.8,0C492.4,525.9,492.1,529.6,489.5,532.4z"/>
	<path class="st3" d="M110,316.5c1.5-1.6,3.1-2.2,4.8-0.3C112.5,319.2,112.5,319.2,110,316.5z"/>
	<path class="st2" d="M171.5,389.4c-0.8,0-1.5,0-2.3,0.1c-1.6,0.2-3.2,0.4-4.8,0.6c0-1,0.1-2,0.1-3
		C168.4,383.2,170.7,383.9,171.5,389.4z"/>
	<path d="M520.7,354.5c-0.8,0.1-1.6,0.1-2.5,0.2c-3.2-2.4-3.4-4.8-0.1-7.2l1.1,0.1l1.1,0C520.6,349.9,520.6,352.2,520.7,354.5z"/>
	<path d="M555.5,151.9c0.1,1,0.1,1.9,0.2,2.9c-2,2.6-4.8,1-7.3,1.5c0.2-0.7,0.2-1.4,0.1-2C549.9,150.9,553.1,152.3,555.5,151.9z"/>
	<path class="st2" d="M162.2,303.3c-0.2-1.2-0.7-2.1-2.1-2.3c0.1-1.6,0.1-3.1,0.2-4.7l1,0l1-0.1
		C165.5,298.7,165.6,301.1,162.2,303.3z"/>
	<path d="M516.1,320.1c-11.3-0.1-9.8-8.5-9.3-16.3C512,307.9,513.9,314.1,516.1,320.1z"/>
	<path class="st2" d="M150.3,484.4c-0.9,4.4-3.3,6-7.6,4.4C144,485.1,147.6,485.5,150.3,484.4z"/>
	<path class="st2" d="M165.3,289.2c1.3-0.2,1.5-1.1,1.6-2.2c4,3.9,3.2,6.3-2.4,7c0-0.8,0-1.6,0-2.4C164.8,290.8,165,290,165.3,289.2
		z"/>
	<path d="M122.7,284.9c0-1.6,0-3.2,0.1-4.7c6.1,0.1,4.6,4,3.8,7.6C124.8,287.5,123.6,286.3,122.7,284.9z"/>
	<path d="M431,562.8c1.8-2.1,3.5-4.2,5.3-6.2c2.5,0,7.9-4.1,6.2,1.5C438.1,560.7,430.5,569.3,431,562.8z"/>
	<path d="M125.8,618.7c0.2-5.3,2.7-6.5,7.2-4.2C131.7,617.9,129.2,619.2,125.8,618.7z"/>
	<path class="st2" d="M155,479.8c0.5,3.9-1.1,5.5-5,4.8C150.7,482,152.4,480.5,155,479.8z"/>
	<path d="M156.6,391c2.3-1.6,4.4-1.5,6.5,0.4C160.8,394.1,158.7,393.4,156.6,391z"/>
	<path d="M389.4,60.4c1.3,4.5-0.2,6-4.6,4.5C386.3,63.4,387.8,61.9,389.4,60.4z"/>
	<path class="st2" d="M288.3,103.2c0.6,0.1,1.2,0.1,1.8,0.1c-0.2,6.2-4.1,4.6-7.6,3.7C283.2,103.8,286.8,105.1,288.3,103.2z"/>
	<path class="st2" d="M160.2,473.4c0.7,0,1.4,0,2.1,0c0.1,3.5-1.6,4.9-5.1,4.5C158.2,476.3,159.2,474.8,160.2,473.4z"/>
	<path d="M284.3,632.9c0.1-6.3,4-2.7,6.6-2.5C289.4,633.1,286.9,633.1,284.3,632.9z"/>
	<path d="M164.5,291.7c0,0.8,0,1.6,0,2.4c-1.3,0.3-2,1-2.2,2.3l-1,0.1l-1,0C158.4,291.9,161.5,291.8,164.5,291.7z"/>
	<path class="st2" d="M493.2,522.4c-0.9,0-1.9,0-2.8,0c0.6-2.4-1.8-6.5,3.5-6.4C494,518.1,494.3,520.3,493.2,522.4z"/>
	<path d="M136.1,228.5c1,0.1,2,0.2,3,0.3c-3.2,3.6-5.7,4.3-6.8-1.5C133.5,227.7,134.8,228.1,136.1,228.5z"/>
	<path d="M301.7,182.1c-0.5,2.4,2.1,6.5-3.4,6.2C299,185.9,298.7,183.1,301.7,182.1z"/>
	<path d="M119.8,621.3c-0.5-3.9,0.1-4.1,5.9-2.9C124.2,620.6,122.2,621.3,119.8,621.3z"/>
	<path d="M275.2,637.6c-0.6-6.2,3.9-2.5,6.2-3.2C280.1,637,277.7,637.4,275.2,637.6z"/>
	<path class="st3" d="M273.8,116.8c1.8-2,3.4-2.1,4.5,0.6C276.8,117.2,275.3,117,273.8,116.8z"/>
	<path d="M155,609.1c-3.1,6.6-6.1,17.4-9.7,10.1C148.6,614.2,151.7,610,155,609.1z"/>
	<path d="M418.2,66.2c0,0.7,0,1.3,0,2c-1.9-0.4-5.1,0.3-3-3.5C416.1,65.2,417.2,65.7,418.2,66.2z"/>
	<path d="M176.2,636.2c-0.9,2.8,1.7,8.6-7.6,4.6C170.2,638.6,172.5,636.9,176.2,636.2z"/>
	<path d="M391.4,55.8c1.1,2.4,2.1,4.7-2.1,4.6C389.5,58.7,389.8,56.9,391.4,55.8z"/>
	<path d="M523.9,266.9c8.8-23,11.7-16,16.1-16.7C534,258.7,528.7,264.3,523.9,266.9z"/>
	<path d="M520.5,347.6l-1.1,0l-1.1-0.1c0.1-2.4,0.5-4.5,3.5-4.6C521.6,344.5,521.8,346.3,520.5,347.6z"/>
	<path class="st1" d="M108.8,357.1c-0.1,1.8-0.2,3.6-0.3,5.3C104.6,360.4,106,358.7,108.8,357.1z"/>
	<path d="M204.7,662.8c0-3.8,2.4-3.1,4.7-2.4C208.3,662.1,206.5,662.4,204.7,662.8z"/>
	<path d="M552.1,134c-13.4,1.7-11.5-4-12.1-8.4C546.6,127.2,550.3,130.1,552.1,134z"/>
	<path class="st2" d="M157.5,477.7c-0.3,1.5-1.2,2.3-2.7,2.5C155.1,478.6,156.1,477.9,157.5,477.7z"/>
	<path d="M122.7,582.9c-0.1-0.8-0.1-1.5,0-2.3l0.6-0.7C124.9,581.2,124.1,582.1,122.7,582.9z"/>
	<path d="M281.7,107.1c0.1,0.6,0.2,1.2,0.3,1.8c-0.6-0.1-1.2-0.2-1.8-0.3C280.6,108,281.1,107.5,281.7,107.1z"/>
	<path d="M579.5,178.3c-3.6,0.3-5.2-1.2-5-4.4C577.3,174.3,579.1,175.6,579.5,178.3z"/>
	<path d="M587.1,187.6c-0.6-0.8-1.1-1.5-1.7-2.3c0.6-0.1,1.4-0.6,1.7-0.3C588.1,185.8,587.8,186.7,587.1,187.6z"/>
	<path d="M414.2,64.3c-2.1,1.2-2.4,0.3-1.8-1.6C412.9,63.2,413.6,63.8,414.2,64.3z"/>
	<path d="M298.4,188.4c0.6,2,0.1,2.7-2,1.8C297.1,189.6,297.8,189,298.4,188.4z"/>
	<path d="M435.4,562.6c0.2-1.8,0.6-3.3,2.9-1.9C437.4,561.3,436.4,562,435.4,562.6z"/>
	<path d="M281.2,634.5c0.1-1.9,1-2.6,2.8-1.8C283.5,634,282.5,634.4,281.2,634.5z"/>
	<path d="M556,230.4c3.5-1.8,7-1.9,10.5-0.4C563.1,234,559.6,233.9,556,230.4z"/>
	<path class="st1" d="M138.6,536.2c0-0.9,0-1.9,0-2.8l0.7-0.3C141,534.6,140.3,535.5,138.6,536.2z"/>
	<path d="M169.4,649.5c-0.1,1.3-0.4,2.5-2.6,2.7c0.8-1.1,1.6-2.2,2.4-3.3L169.4,649.5z"/>
	<path d="M182.7,445.3c1,0,1.9,0.1,2.9,0.1c-0.8,1.6-1.8,2.1-3.2,0.5L182.7,445.3z"/>
	<path d="M104.1,587.5c0-0.8,0-1.6,0-2.4c0.3-0.5,0.7-0.8,1.3-0.9C106.2,585.8,105.7,586.9,104.1,587.5z"/>
	<path d="M494.1,515.9c-1.2-2-0.3-2.5,1.7-2.2C495.2,514.5,494.7,515.2,494.1,515.9z"/>
	<path d="M164.5,387.1c0,1-0.1,2-0.1,3l-0.1,0C162.4,389,163,388,164.5,387.1z"/>
	<path d="M209.5,660.4c-0.3-1.9,0.2-2.9,2.2-1.5C210.9,659.4,210.2,659.9,209.5,660.4z"/>
	<path class="st4" d="M375.6,86.9c0.2,2.1,1.6,4.3-0.5,6.3c-2.8-1.3-3.1-3.9-3.6-6.5C373,85.3,374.3,86.5,375.6,86.9z"/>
	<path d="M266.9,222.1c0-1.7,0-3.3,0-5c2.6,0.9,2.8,3,2.2,5.1C268.6,223.6,267.6,223.2,266.9,222.1z"/>
	<path d="M526.3,329.3c-6.7,3-8.8-3.9-11.2-10C519.6,321,522.9,325.2,526.3,329.3z"/>
	<path d="M521.5,344.4l-0.9-0.6l-0.8-0.7c1.5-1.9,3-3.4,5.5-1.8C524.2,342.5,523.3,344.1,521.5,344.4z"/>
	<path d="M524.9,328.5c0.1,0,0.3,0,0.4,0c3,0.4,3.4,0.8,3.4,0.8l0.6,3.1v4.3l-0.6,3.5l-2.6,0.8l-0.8,0.1l-0.7,0.9l-2.5,0.7l5.6-4.3
		v-2.9c0,0-0.5-2.2-0.6-3.1c-0.1-0.9-0.7-1.9-0.7-1.9l-1.4-1.5L524.9,328.5z"/>
</g>
<g>
	<g>
		<path class="st0" d="M153.8,625.5c-0.4,0.7-0.5,1.6-0.3,2.4c0.1,0.5,0.3,0.7,0.5,1c0.3,0.3,0.5,0.6,0.9,0.8
			c0.4,0.2,0.8,0.3,1.3,0.3c0.5,0,0.9-0.1,1.3-0.3c1.2-0.9,2.5-1.9,3.7-2.8c0.3-0.2,0.5-0.4,0.7-0.6c0.2-0.2,0.4-0.5,0.4-0.9
			c0.2-0.6,0.1-1.4-0.3-1.9c-0.3-0.5-0.9-1-1.5-1.1c-0.2,0-0.4-0.1-0.7-0.1c-0.5,0-0.9,0.1-1.3,0.3c-1.2,0.9-2.5,1.9-3.7,2.8
			c0.8,0,1.7,0,2.5,0c0,0-0.1,0-0.1,0c0.2,0.1,0.3,0.3,0.5,0.4c0,0-0.1-0.1-0.1-0.1c0.1,0.2,0.3,0.3,0.4,0.5c0,0-0.1-0.1-0.1-0.1
			c0.1,0.2,0.2,0.4,0.3,0.6c0,0,0-0.1,0-0.1c0,0.2,0.1,0.4,0.1,0.7c0-0.1,0-0.1,0-0.2c0,0.2-0.1,0.4-0.1,0.7c0,0,0-0.1,0-0.1
			c-0.1,0.2-0.2,0.4-0.3,0.6c0,0,0-0.1,0-0.1c0.3-0.6,0.4-1.3,0.3-1.9c-0.2-0.6-0.6-1.2-1.1-1.5c-0.6-0.3-1.3-0.5-1.9-0.3
			C154.6,624.6,154.1,625,153.8,625.5L153.8,625.5z"/>
	</g>
</g>
<g>
	<g>
		<path class="st0" d="M152.8,633.1c2.1-0.7,4-1.9,5.8-3.2c2-1.5,3.9-3.1,5.8-4.6c-1.3-1-2.6-2-3.9-3c-0.1,0.1-0.1,0.2-0.2,0.3
			c0.2-0.3,0.2-0.3,0.1-0.1c-0.1,0.1-0.2,0.3-0.3,0.4c-0.3,0.3-0.5,0.6-0.8,0.9c-0.2,0.2-0.5,0.5-0.7,0.7c-0.2,0.1-0.3,0.3-0.5,0.4
			c-0.4,0.3,0.4-0.3,0,0c-0.6,0.4-1.2,0.8-1.8,1.2c-0.3,0.2-0.7,0.4-1,0.5c-0.1,0-0.2,0.1-0.2,0.1c-0.2,0.1-0.1,0,0.2-0.1
			c-0.1,0.1-0.5,0.2-0.6,0.2c-1.2,0.4-2,1.4-1.8,2.7c0.2,1.2,1.2,2.3,2.5,2.2c2.7-0.2,5.4-1.1,7.5-2.7c0.5-0.4,1-0.8,1.1-1.5
			c0.2-0.6,0.1-1.4-0.3-1.9c-0.7-1-2.3-1.7-3.4-0.9c-0.4,0.3-0.9,0.6-1.3,0.9c-0.2,0.1-0.5,0.3-0.7,0.4c-0.1,0.1-0.2,0.1-0.3,0.2
			c-0.3,0.1,0.6-0.2,0,0c-0.5,0.2-1,0.3-1.5,0.4c-0.3,0.1-0.5,0.1-0.8,0.2c-0.5,0.1,0.4,0,0,0c-0.1,0-0.3,0-0.4,0
			c0.2,1.6,0.4,3.3,0.7,4.9c3.7-1.4,6.7-3.7,9-6.8c0.3-0.5,0.4-1.4,0.3-1.9c-0.2-0.5-0.5-1-0.9-1.3c-1.1-0.8-2.3-0.6-3.3,0.2
			c-0.9,0.7-1.8,1.4-2.6,2.1c-0.4,0.3-0.9,0.7-1.3,1c-0.2,0.1-0.4,0.3-0.6,0.4c-0.1,0.1-0.2,0.1-0.3,0.2c0.1-0.1,0.1-0.1,0.2-0.2
			c-0.1,0.1-0.1,0.1-0.2,0.2c-0.8,0.6-1.6,1.1-2.4,1.6c-0.4,0.2-0.8,0.5-1.3,0.7c-0.1,0.1-0.2,0.1-0.3,0.2c-0.3,0.2,0.4-0.2,0.1,0
			c-0.3,0.1-0.5,0.2-0.8,0.3c-1.2,0.4-2.2,1.7-1.7,3.1C150.1,632.6,151.5,633.5,152.8,633.1L152.8,633.1z"/>
	</g>
</g>
</svg>
